<?xml version="1.0" standalone="no"?>
<!DOCTYPE svg PUBLIC "-//W3C//DTD SVG 1.1//EN" "http://www.w3.org/Graphics/SVG/1.1/DTD/svg11.dtd" >
<svg>
<metadata>
Created by FontForge 20120731 at Sun Aug 28 05:48:32 2016
 By www
(c) 2008 Microsoft Corporation. All Rights Reserved. Portions (c) 2008 Mamoun Sakkal, Sakkal Design.
</metadata>
<defs>
<font id="SakkalMajalla" horiz-adv-x="445" >
  <font-face 
    font-family="Sakkal Majalla"
    font-weight="400"
    font-stretch="normal"
    units-per-em="2048"
    panose-1="2 0 0 0 0 0 0 0 0 0"
    ascent="1395"
    descent="-653"
    x-height="684"
    cap-height="1024"
    bbox="-385 -858 3676 1634"
    underline-thickness="119"
    underline-position="-229"
    unicode-range="U+0020-FEFC"
  />
<missing-glyph horiz-adv-x="684" 
d="M293 156v90h76v-90h-76zM300 313l-2 22q0 74 22 117q7 13 21 30.5t36 39.5q43 43 55 64q12 22 12 48q0 50 -31 81q-30 33 -69 33q-45 0 -74.5 -30t-36.5 -97l-67 11q9 95 58.5 139t121.5 44q71 0 119 -49q48 -48 48 -126q0 -45 -16 -76q-8 -16 -25 -36t-42 -45
q-51 -48 -58 -76q-10 -19 -10 -94h-62zM627 57v846h-570v-846h570zM684 960v-960h-684v960h684z" />
    <glyph glyph-name="uni06440627" unicode="&#xfedf;&#xfe8e;" horiz-adv-x="989" arabic-form="isolated" 
d="M754 147q0 26 -7.5 54t-19 55.5t-26 53.5t-28.5 48q-54 -57 -111.5 -107.5t-117.5 -92.5v-11h310zM304 0q3 16 7 40t8 48.5t7.5 47t5.5 36.5l23 13q73 54 141.5 111t131.5 121q-34 46 -71.5 88t-76 79.5t-76.5 69.5t-72 59l-8 -62l-174 111q-32 23 -51 50t-19 71
q0 12 2 29t5 36.5t7 39t9 36.5q50 -17 105.5 -52t112 -81.5t111 -100t103.5 -108t90 -106t69 -92.5q31 32 55.5 92.5t24.5 158.5q0 6 -1 29t-3 52.5t-4 60t-4 51.5q-15 17 -23.5 29.5t-12 21.5t-4.5 16t-1 13l105 135h10q1 -19 4 -35t15 -35t36 -44t68 -62l-107 -138v-88
q0 -62 -10 -110.5t-26 -87.5t-37 -69t-43 -54q18 -30 38.5 -71t30.5 -83q8 -32 8 -53q0 -23 -3.5 -51t-8.5 -56.5t-12 -56t-14 -49.5h-471z" />
    <glyph glyph-name="uni06440627.fina" unicode="&#xfee0;&#xfe8e;" horiz-adv-x="1040" arabic-form="final" 
d="M952 0q-25 0 -43.5 11.5t-24.5 19.5q-15 18 -22 46t-10 70l-17 239q-3 37 -6 72.5t-6 70.5h-10l-11 -41q-32 -118 -78.5 -214.5t-104.5 -162.5q-32 -36 -62.5 -61.5t-62 -43t-65 -27.5t-70.5 -16q-27 -5 -60.5 -10t-68.5 -10t-69 -9.5t-63 -7.5l-5 19q60 24 130 55
t129 67q67 41 129 89t116 117q-24 69 -50.5 129t-62 115.5t-82 107.5t-110.5 105l-9 -63q-49 30 -86.5 54.5t-63.5 47.5t-39.5 46.5t-13.5 52.5q0 21 3 45t7.5 46t9.5 39.5t8 26.5q112 -72 214 -166t187 -218q30 -44 50 -87t33.5 -85t21.5 -82.5t14 -77.5q63 97 105 181
t57 168q9 47 15 98l-15 202l96 159l60 -879q2 -38 16.5 -64.5t52.5 -26.5h25v-147h-88z" />
    <glyph glyph-name="uni06440622" unicode="&#xfedf;&#xfe82;" horiz-adv-x="917" arabic-form="isolated" 
d="M682 147q0 26 -6.5 55t-17.5 57.5t-24.5 55t-27.5 48.5q-54 -57 -114 -110t-120 -95v-11h310zM232 0q3 16 7 40t8 48.5t7.5 47t5.5 36.5l23 13q73 54 145.5 115.5t135.5 125.5q-34 46 -62 75.5t-54 52t-54 42t-62 45.5l-8 -62l-174 111q-32 23 -51 50t-19 71q0 12 2 29
t5 36.5t7 39t9 36.5q72 -27 146.5 -80.5t143 -119t128 -136t101.5 -132.5q31 32 55.5 92.5t24.5 158.5q0 6 -1 29t-3 52.5t-4 60t-4 51.5q-15 17 -23.5 29.5t-12 21.5t-4.5 16t-1 13l105 135h10q1 -19 4 -35t15 -35t36 -44t68 -62l-107 -138v-88q0 -62 -10 -110.5t-26 -87.5
t-37 -69t-43 -54q18 -30 38.5 -71t30.5 -83q8 -32 8 -53q0 -23 -3.5 -51t-8.5 -56.5t-12 -56t-14 -49.5h-471zM392 1116q-8 -5 -15.5 -10.5t-15.5 -10.5q-46 -31 -85.5 -53.5t-74.5 -22.5q-37 0 -70 13.5t-50 43.5l-71 -58v46l93 90h14q20 -27 53.5 -43t79.5 -16q24 0 62 15
t80 38v-32z" />
    <glyph glyph-name="uni06440622.fina" unicode="&#xfee0;&#xfe82;" horiz-adv-x="1040" arabic-form="final" 
d="M952 0q-25 0 -43.5 11.5t-24.5 19.5q-15 18 -22 46t-10 70l-17 239q-3 37 -6 72.5t-6 70.5h-10l-11 -41q-32 -118 -78.5 -214.5t-104.5 -162.5q-32 -36 -62.5 -61.5t-62 -43t-65 -27.5t-70.5 -16q-27 -5 -60.5 -10t-68.5 -10t-69 -9.5t-63 -7.5l-5 19q60 24 130 55
t129 67q33 21 64.5 41t60.5 42.5t57 49.5t55 62q-19 61 -38 111t-46 96t-67 92t-102 99l-9 -63q-49 30 -86.5 54.5t-63.5 47.5t-39.5 46.5t-13.5 52.5q0 21 3 45t7.5 46t9.5 39.5t8 26.5q43 -29 88.5 -63t91.5 -76t90.5 -92.5t85.5 -112.5q52 -79 76 -158.5t36 -154.5
q63 97 109 186t61 174q9 47 15 98l-15 202l96 159l60 -879q2 -38 16.5 -64.5t52.5 -26.5h25v-147h-88zM429 1116q-8 -5 -15.5 -10.5t-15.5 -10.5q-46 -31 -85.5 -53.5t-74.5 -22.5q-37 0 -70 13.5t-50 43.5l-71 -58v46l93 90h14q20 -27 53.5 -43t79.5 -16q24 0 62 15t80 38
v-32z" />
    <glyph glyph-name="uni06440623" unicode="&#xfedf;&#xfe84;" horiz-adv-x="917" arabic-form="isolated" 
d="M682 147q0 26 -6.5 55t-17.5 57.5t-24.5 55t-27.5 48.5q-54 -57 -114 -110t-120 -95v-11h310zM232 0q3 16 7 40t8 48.5t7.5 47t5.5 36.5l23 13q73 54 145.5 115.5t135.5 125.5q-34 46 -62 75.5t-54 52t-54 42t-62 45.5l-8 -62l-174 111q-32 23 -51 50t-19 71q0 12 2 29
t5 36.5t7 39t9 36.5q72 -27 146.5 -80.5t143 -119t128 -136t101.5 -132.5q31 32 55.5 92.5t24.5 158.5q0 6 -1 29t-3 52.5t-4 60t-4 51.5q-15 17 -23.5 29.5t-12 21.5t-4.5 16t-1 13l105 135h10q1 -19 4 -35t15 -35t36 -44t68 -62l-107 -138v-88q0 -62 -10 -110.5t-26 -87.5
t-37 -69t-43 -54q18 -30 38.5 -71t30.5 -83q8 -32 8 -53q0 -23 -3.5 -51t-8.5 -56.5t-12 -56t-14 -49.5h-471zM344 1087q-32 -8 -71 -19.5t-66 -25.5q-20 -10 -38 -28.5t-32 -38.5l-25 11q4 19 17 45t32 44q-29 11 -48 30.5t-19 41.5t16 51t40 54.5t52 43.5t52 18
q25 0 37.5 -13.5t12.5 -31.5q0 -26 -21 -51q-30 24 -67 24q-21 0 -41 -12t-20 -35q0 -13 8.5 -23.5t22 -18t30 -11.5t31.5 -4q23 0 56 9t75 23z" />
    <glyph glyph-name="uni06440623.fina" unicode="&#xfee0;&#xfe84;" horiz-adv-x="1040" arabic-form="final" 
d="M952 0q-25 0 -43.5 11.5t-24.5 19.5q-15 18 -22 46t-10 70l-17 239q-3 37 -6 72.5t-6 70.5h-10l-11 -41q-32 -118 -78.5 -214.5t-104.5 -162.5q-32 -36 -62.5 -61.5t-62 -43t-65 -27.5t-70.5 -16q-27 -5 -60.5 -10t-68.5 -10t-69 -9.5t-63 -7.5l-5 19q60 24 130 55
t129 67q33 21 64.5 41t60.5 42.5t57 49.5t55 62q-19 61 -38 111t-46 96t-67 92t-102 99l-9 -63q-49 30 -86.5 54.5t-63.5 47.5t-39.5 46.5t-13.5 52.5q0 21 3 45t7.5 46t9.5 39.5t8 26.5q43 -29 88.5 -63t91.5 -76t90.5 -92.5t85.5 -112.5q52 -79 76 -158.5t36 -154.5
q63 97 109 186t61 174q9 47 15 98l-15 202l96 159l60 -879q2 -38 16.5 -64.5t52.5 -26.5h25v-147h-88zM394 1087q-32 -8 -71 -19.5t-66 -25.5q-20 -10 -38 -28.5t-32 -38.5l-25 11q4 19 17 45t32 44q-29 11 -48 30.5t-19 41.5t16 51t40 54.5t52 43.5t52 18q25 0 37.5 -13.5
t12.5 -31.5q0 -26 -21 -51q-30 24 -67 24q-21 0 -41 -12t-20 -35q0 -13 8.5 -23.5t22 -18t30 -11.5t31.5 -4q23 0 56 9t75 23z" />
    <glyph glyph-name="uni06440625" unicode="&#xfedf;&#xfe88;" horiz-adv-x="989" arabic-form="isolated" 
d="M754 147q0 26 -7.5 54t-19 55.5t-26 53.5t-28.5 48q-54 -57 -111.5 -107.5t-117.5 -92.5v-11h310zM304 0q3 16 7 40t8 48.5t7.5 47t5.5 36.5l23 13q73 54 141.5 111t131.5 121q-34 46 -71.5 88t-76 79.5t-76.5 69.5t-72 59l-8 -62l-174 111q-32 23 -51 50t-19 71
q0 12 2 29t5 36.5t7 39t9 36.5q50 -17 105.5 -52t112 -81.5t111 -100t103.5 -108t90 -106t69 -92.5q31 32 55.5 92.5t24.5 158.5q0 6 -1 29t-3 52.5t-4 60t-4 51.5q-15 17 -23.5 29.5t-12 21.5t-4.5 16t-1 13l105 135h10q1 -19 4 -35t15 -35t36 -44t68 -62l-107 -138v-88
q0 -62 -10 -110.5t-26 -87.5t-37 -69t-43 -54q18 -30 38.5 -71t30.5 -83q8 -32 8 -53q0 -23 -3.5 -51t-8.5 -56.5t-12 -56t-14 -49.5h-471zM511 -277q-32 -8 -71 -19.5t-66 -25.5q-20 -10 -38 -28.5t-32 -38.5l-25 11q4 19 17 45t32 44q-29 11 -48 30.5t-19 41.5t16 51
t40 54.5t52 43.5t52 18q25 0 37.5 -13.5t12.5 -31.5q0 -26 -21 -51q-30 24 -67 24q-21 0 -41 -12t-20 -35q0 -13 8.5 -23.5t22 -18t30 -11.5t31.5 -4q23 0 56 9t75 23z" />
    <glyph glyph-name="uni06440625.fina" unicode="&#xfee0;&#xfe88;" horiz-adv-x="1040" arabic-form="final" 
d="M952 0q-25 0 -43.5 11.5t-24.5 19.5q-15 18 -22 46t-10 70l-17 239q-3 37 -6 72.5t-6 70.5h-10l-11 -41q-32 -118 -78.5 -214.5t-104.5 -162.5q-32 -36 -62.5 -61.5t-62 -43t-65 -27.5t-70.5 -16q-27 -5 -60.5 -10t-68.5 -10t-69 -9.5t-63 -7.5l-5 19q60 24 130 55
t129 67q67 41 129 89t116 117q-24 69 -50.5 129t-62 115.5t-82 107.5t-110.5 105l-9 -63q-49 30 -86.5 54.5t-63.5 47.5t-39.5 46.5t-13.5 52.5q0 21 3 45t7.5 46t9.5 39.5t8 26.5q112 -72 214 -166t187 -218q30 -44 50 -87t33.5 -85t21.5 -82.5t14 -77.5q63 97 105 181
t57 168q9 47 15 98l-15 202l96 159l60 -879q2 -38 16.5 -64.5t52.5 -26.5h25v-147h-88zM361 -335q-32 -8 -71 -19.5t-66 -25.5q-20 -10 -38 -28.5t-32 -38.5l-25 11q4 19 17 45t32 44q-29 11 -48 30.5t-19 41.5t16 51t40 54.5t52 43.5t52 18q25 0 37.5 -13.5t12.5 -31.5
q0 -26 -21 -51q-30 24 -67 24q-21 0 -41 -12t-20 -35q0 -13 8.5 -23.5t22 -18t30 -11.5t31.5 -4q23 0 56 9t75 23z" />
    <glyph glyph-name="uni06440671" unicode="&#xfedf;&#xfb51;" horiz-adv-x="917" 
d="M682 147q0 26 -6.5 55t-17.5 57.5t-24.5 55t-27.5 48.5q-54 -57 -114 -110t-120 -95v-11h310zM232 0q3 16 7 40t8 48.5t7.5 47t5.5 36.5l23 13q73 54 145.5 115.5t135.5 125.5q-34 46 -62 75.5t-54 52t-54 42t-62 45.5l-8 -62l-174 111q-32 23 -51 50t-19 71q0 12 2 29
t5 36.5t7 39t9 36.5q72 -27 146.5 -80.5t143 -119t128 -136t101.5 -132.5q31 32 55.5 92.5t24.5 158.5q0 6 -1 29t-3 52.5t-4 60t-4 51.5q-15 17 -23.5 29.5t-12 21.5t-4.5 16t-1 13l105 135h10q1 -19 4 -35t15 -35t36 -44t68 -62l-107 -138v-88q0 -62 -10 -110.5t-26 -87.5
t-37 -69t-43 -54q18 -30 38.5 -71t30.5 -83q8 -32 8 -53q0 -23 -3.5 -51t-8.5 -56.5t-12 -56t-14 -49.5h-471zM463 1095q6 4 11 8t5 7q0 6 -4 16.5t-12.5 20t-22.5 16.5t-33 7q-17 0 -49 -22.5t-69 -52.5h174zM188 1030q-35 0 -56 19.5t-33 45.5q-35 -17 -53 -41
q-11 -15 -17.5 -27t-11.5 -24q-5 3 -10.5 6.5t-9.5 5.5q6 19 14.5 38t25.5 42q17 22 35 34.5t39 23.5h22q4 -7 10.5 -16.5t15 -18.5t19.5 -15.5t25 -7.5h11q19 12 37 26l36 28q42 32 79.5 57t70.5 25q14 0 31.5 -9t32.5 -22.5t25 -30.5t10 -32q0 -13 -6.5 -27.5t-15.5 -29
t-20 -27.5t-20 -23h-286z" />
    <glyph glyph-name="uni06440671.fina" unicode="&#xfee0;&#xfb51;" horiz-adv-x="1040" 
d="M952 0q-25 0 -43.5 11.5t-24.5 19.5q-15 18 -22 46t-10 70l-17 239q-3 37 -6 72.5t-6 70.5h-10l-11 -41q-32 -118 -78.5 -214.5t-104.5 -162.5q-32 -36 -62.5 -61.5t-62 -43t-65 -27.5t-70.5 -16q-27 -5 -60.5 -10t-68.5 -10t-69 -9.5t-63 -7.5l-5 19q60 24 130 55
t129 67q33 21 64.5 41t60.5 42.5t57 49.5t55 62q-19 61 -38 111t-46 96t-67 92t-102 99l-9 -63q-49 30 -86.5 54.5t-63.5 47.5t-39.5 46.5t-13.5 52.5q0 21 3 45t7.5 46t9.5 39.5t8 26.5q43 -29 88.5 -63t91.5 -76t90.5 -92.5t85.5 -112.5q52 -79 76 -158.5t36 -154.5
q63 97 109 186t61 174q9 47 15 98l-15 202l96 159l60 -879q2 -38 16.5 -64.5t52.5 -26.5h25v-147h-88zM483 1095q6 4 11 8t5 7q0 6 -4 16.5t-12.5 20t-22.5 16.5t-33 7q-17 0 -49 -22.5t-69 -52.5h174zM208 1030q-35 0 -56 19.5t-33 45.5q-35 -17 -53 -41q-11 -15 -17.5 -27
t-11.5 -24q-5 3 -10.5 6.5t-9.5 5.5q6 19 14.5 38t25.5 42q17 22 35 34.5t39 23.5h22q4 -7 10.5 -16.5t15 -18.5t19.5 -15.5t25 -7.5h11q19 12 37 26l36 28q42 32 79.5 57t70.5 25q14 0 31.5 -9t32.5 -22.5t25 -30.5t10 -32q0 -13 -6.5 -27.5t-15.5 -29t-20 -27.5t-20 -23
h-286z" />
    <glyph glyph-name="uniFDF2" unicode="&#x627;&#xfedf;&#xfee0;&#xfbab;" horiz-adv-x="1786" arabic-form="isolated" 
d="M492 525q-15 -20 -30 -42t-32 -30q-6 -3 -24 -8t-42 -11.5t-52.5 -14t-55 -14t-49 -12.5t-35.5 -10l-12 -17q69 -29 142 -47t154 -34l28 14zM1335 0h-198q-42 0 -72 22.5t-44 64.5h-12l-40 -87h-310q-43 0 -76 17t-53 38q-20 22 -32 73.5t-13 118.5h-10l-77 -102l-221 54
q-33 12 -52.5 22t-29.5 19.5t-12.5 21t-2.5 26.5q0 17 11.5 37.5t31.5 52.5q23 36 39 59.5t33 40.5q8 8 29.5 18.5t52 21.5t67 22t74.5 20l76 19v50l93 126v-501q0 -29 9 -49.5t22 -29.5q20 -14 42 -20t54 -8h262l-80 503l87 144l79 -590q3 -21 11.5 -33t20.5 -17t27 -6
t31 -1h166l-101 594l89 151l96 -685zM976 1079q0 -19 -2 -39t-6 -34q7 -5 18 -10t25 -5q17 0 31 13.5t24 34.5t16 46t8 47l35 17q0 -34 -5.5 -75.5t-19.5 -77.5t-38 -60.5t-61 -24.5q-24 0 -40 9t-24 16q-7 -12 -15.5 -25.5t-21 -25.5t-29.5 -20t-41 -8q-11 0 -21 3t-18 12
t-13 25t-5 42q0 14 3.5 31t8.5 33t10.5 29t10.5 20l20 -10q-3 -12 -6.5 -28.5t-3.5 -28.5q0 -17 8 -28.5t29 -11.5t36 14.5t26 35.5t18 44t12 40h31zM949 1124q0 15 -0.5 33t-2 37t-5 38t-9.5 34q-12 28 -26 44.5t-32 34.5q4 26 8.5 52.5t8.5 51.5q51 -47 72.5 -108.5
t21.5 -124.5q0 -23 -4 -49.5t-8 -42.5h-24zM1595 0l-78 946l96 164q11 -171 19 -297.5t14 -217.5t10 -151t6 -97l3 -55.5t1 -27.5q0 -49 -6 -90.5t-15 -75.5t-19.5 -58.5t-20.5 -39.5h-10z" />
    <glyph glyph-name="uniFDF2.alt1" unicode="&#x627;&#xfedf;&#xfee0;&#xfba7;" horiz-adv-x="1694" 
d="M1236 0h-198q-42 0 -72 22.5t-44 64.5h-12l-40 -87h-269q-40 0 -70.5 13t-53.5 32q-13 10 -25.5 27t-24 36t-22 38.5t-19.5 35.5t-15 25.5t-11 9.5q-11 0 -28 -14t-38 -37.5t-45 -54t-48 -64t-46.5 -67.5t-40.5 -63l-34 17q17 43 39 88.5t45.5 87.5t47 77.5t44.5 60.5
q12 14 31 33.5t39.5 37.5t40 30.5t33.5 12.5q24 0 43 -22.5t39 -53.5q15 -23 32 -48t37 -45t43.5 -33t52.5 -13h230l-74 423l87 144q6 -50 15 -115t18.5 -134.5t20 -137.5t19.5 -123q3 -21 11.5 -33t20.5 -17t27 -6t31 -1h166l-101 594l89 151l96 -685zM1503 0l-78 946
l96 164q11 -171 19 -297.5t14 -217.5t10 -151t6 -97l3 -55.5t1 -27.5q0 -49 -6 -90.5t-15 -75.5t-19.5 -58.5t-20.5 -39.5h-10z" />
    <glyph glyph-name="uni064406440647" unicode="&#xfedf;&#xfee0;&#xfbab;" horiz-adv-x="1487" 
d="M492 525q-15 -20 -30 -42t-32 -30q-6 -3 -24 -8t-42 -11.5t-52.5 -14t-55 -14t-49 -12.5t-35.5 -10l-12 -17q69 -29 142 -47t154 -34l28 14zM1335 0h-198q-42 0 -72 22.5t-44 64.5h-12l-40 -87h-310q-43 0 -76 17t-53 38q-20 22 -32 73.5t-13 118.5h-10l-77 -102l-221 54
q-33 12 -52.5 22t-29.5 19.5t-12.5 21t-2.5 26.5q0 17 11.5 37.5t31.5 52.5q23 36 39 59.5t33 40.5q8 8 29.5 18.5t52 21.5t67 22t74.5 20l76 19v50l93 126v-501q0 -29 9 -49.5t22 -29.5q20 -14 42 -20t54 -8h262l-80 503l87 144l79 -590q3 -21 11.5 -33t20.5 -17t27 -6
t31 -1h166l-101 594l89 151l96 -685zM976 1079q0 -19 -2 -39t-6 -34q7 -5 18 -10t25 -5q17 0 31 13.5t24 34.5t16 46t8 47l35 17q0 -34 -5.5 -75.5t-19.5 -77.5t-38 -60.5t-61 -24.5q-24 0 -40 9t-24 16q-7 -12 -15.5 -25.5t-21 -25.5t-29.5 -20t-41 -8q-11 0 -21 3t-18 12
t-13 25t-5 42q0 14 3.5 31t8.5 33t10.5 29t10.5 20l20 -10q-3 -12 -6.5 -28.5t-3.5 -28.5q0 -17 8 -28.5t29 -11.5t36 14.5t26 35.5t18 44t12 40h31zM949 1124q0 15 -0.5 33t-2 37t-5 38t-9.5 34q-12 28 -26 44.5t-32 34.5q4 26 8.5 52.5t8.5 51.5q51 -47 72.5 -108.5
t21.5 -124.5q0 -23 -4 -49.5t-8 -42.5h-24z" />
    <glyph glyph-name="uni064406440647.alt1" unicode="&#xfedf;&#xfee0;&#xfba7;" horiz-adv-x="1388" 
d="M1236 0h-198q-42 0 -72 22.5t-44 64.5h-12l-40 -87h-269q-40 0 -70.5 13t-53.5 32q-13 10 -25.5 27t-24 36t-22 38.5t-19.5 35.5t-15 25.5t-11 9.5q-11 0 -28 -14t-38 -37.5t-45 -54t-48 -64t-46.5 -67.5t-40.5 -63l-34 17q17 43 39 88.5t45.5 87.5t47 77.5t44.5 60.5
q12 14 31 33.5t39.5 37.5t40 30.5t33.5 12.5q24 0 43 -22.5t39 -53.5q15 -23 32 -48t37 -45t43.5 -33t52.5 -13h230l-74 423l87 144q6 -50 15 -115t18.5 -134.5t20 -137.5t19.5 -123q3 -21 11.5 -33t20.5 -17t27 -6t31 -1h166l-101 594l89 151l96 -685z" />
    <glyph glyph-name="uniFDFC" unicode="&#x631;&#xfef3;&#xfe8e;&#x644;" horiz-adv-x="1725" arabic-form="isolated" 
d="M1485 529q28 -30 56 -67t50 -82.5t35.5 -100t13.5 -120.5q0 -78 -22.5 -160.5t-61.5 -150.5t-90.5 -111.5t-109.5 -43.5q-48 0 -101 19t-123 61l-51 -72l-100 64l-45 -64l-105 67l71 103l98 -66l47 66l102 -68q21 -6 39 -9t39 -3q46 0 90.5 20.5t84 52.5t73 72t58 79.5
t38 74.5t13.5 57q0 19 -15 47.5t-39 59t-53.5 60.5t-57.5 51zM984 1q-23 0 -40 11.5t-22 19.5q-14 18 -19.5 46t-8.5 70q-5 72 -9.5 133.5t-9.5 121.5q-5 68 -9.5 133t-9.5 132t-10 139t-11 155l89 159l55 -881q2 -38 15.5 -65t48.5 -27h167q0 31 -8.5 58t-21 50t-27 42
t-27.5 34l65 164q17 -27 34 -61t30.5 -69.5t22 -71t8.5 -65.5q0 -29 -4.5 -60t-12 -60.5t-16.5 -57t-18 -50.5h-251zM677 821q5 -83 10 -165t9.5 -156.5t8 -139t6.5 -113t4.5 -78t1.5 -33.5q0 -47 -3.5 -82t-9 -62.5t-13.5 -49.5t-17 -41q-6 -14 -12 -27t-12 -27
q-36 -27 -75 -51t-81.5 -42.5t-88 -29.5t-93.5 -11q-69 0 -114 22.5t-71 59.5t-36.5 83.5t-10.5 93.5q0 58 10.5 109t26 96t35 84t37.5 73l15 -6q-11 -35 -19 -64t-13.5 -57.5t-8 -59.5t-2.5 -70q0 -109 48 -159.5t133 -50.5q39 0 81.5 10t84 26.5t79 38t66.5 44.5l-84 935
q-16 18 -26 36t-10 31l96 135h10q1 -19 3.5 -34t15.5 -33t39.5 -42.5t75.5 -62.5z" />
    <glyph glyph-name="uni06440645.init" unicode="&#xfedf;&#xfee4;" horiz-adv-x="635" arabic-form="initial" 
d="M271 810l28 -436q2 -39 12 -73t31 -46q18 -9 35 -17t33 -16q40 -18 73 -32.5t57 -30t37 -35t13 -47.5q0 -25 -5 -47t-14 -43.5t-21.5 -44t-27.5 -47.5q-29 20 -60 41.5t-61.5 41.5t-59 36.5t-52.5 25.5q-27 11 -52 12.5t-46 1.5t-42 -8.5t-44 -18.5q-23 -11 -49 -19
t-56 -8q-11 0 -23.5 3t-24 8.5t-19 14t-7.5 19.5v57q0 12 7.5 20.5t19 14t24 8t23.5 2.5q37 0 69.5 11.5t65.5 22.5q22 8 44.5 13.5t46.5 6.5l-74 732q-23 23 -31.5 41.5t-8.5 33.5l105 135h10q0 -21 4.5 -40.5t20 -41t44.5 -49t78 -65.5z" />
    <glyph glyph-name="uni062806D2.fina" unicode="&#xfe92;&#xfbaf;" horiz-adv-x="918" 
d="M877 0q-31 0 -53.5 6.5t-40.5 21t-33.5 36.5t-31.5 53q-9 16 -18.5 38t-21 42.5t-24.5 35t-29 14.5q-14 0 -33 -23t-40 -53t-41.5 -59.5t-35.5 -41.5q-14 -11 -45 -26t-69 -32q-29 -13 -58 -27t-53 -28.5t-41.5 -30t-23.5 -30.5q10 -13 29 -23t44.5 -17t56 -10.5
t62.5 -3.5h1133l7 -34q-30 -11 -81 -28t-107.5 -33.5t-111.5 -28t-92 -11.5h-81h-729q-103 0 -161 26t-74 61q12 28 34 72t47 88.5t48.5 82.5t38.5 54q12 9 32 20t45 23t51.5 24.5t52.5 24.5q34 16 62 30t40 24q10 9 20.5 24.5t22.5 34.5l25 37.5t26 35t27 25.5t29 10
q32 0 59.5 -40t66.5 -118q15 -29 26 -48t23 -30.5t26.5 -16t35.5 -4.5v-147h-41zM567 -538l-135 82l86 115l135 -84z" />
    <glyph glyph-name="uni062A06D2.fina" unicode="&#xfe98;&#xfbaf;" horiz-adv-x="918" 
d="M877 0q-31 0 -53.5 6.5t-40.5 21t-33.5 36.5t-31.5 53q-9 16 -18.5 38t-21 42.5t-24.5 35t-29 14.5q-14 0 -33 -23t-40 -53t-41.5 -59.5t-35.5 -41.5q-14 -11 -45 -26t-69 -32q-29 -13 -58 -27t-53 -28.5t-41.5 -30t-23.5 -30.5q10 -13 29 -23t44.5 -17t56 -10.5
t62.5 -3.5h1133l7 -34q-30 -11 -81 -28t-107.5 -33.5t-111.5 -28t-92 -11.5h-81h-729q-103 0 -161 26t-74 61q12 28 34 72t47 88.5t48.5 82.5t38.5 54q12 9 32 20t45 23t51.5 24.5t52.5 24.5q34 16 62 30t40 24q10 9 20.5 24.5t22.5 34.5l25 37.5t26 35t27 25.5t29 10
q32 0 59.5 -40t66.5 -118q15 -29 26 -48t23 -30.5t26.5 -16t35.5 -4.5v-147h-41zM799 554l-121 72l-55 -72l-127 75l86 115l120 -74l56 74l127 -78z" />
    <glyph glyph-name="uni062B06D2.fina" unicode="&#xfe9c;&#xfbaf;" horiz-adv-x="918" 
d="M877 0q-31 0 -53.5 6.5t-40.5 21t-33.5 36.5t-31.5 53q-9 16 -18.5 38t-21 42.5t-24.5 35t-29 14.5q-14 0 -33 -23t-40 -53t-41.5 -59.5t-35.5 -41.5q-14 -11 -45 -26t-69 -32q-29 -13 -58 -27t-53 -28.5t-41.5 -30t-23.5 -30.5q10 -13 29 -23t44.5 -17t56 -10.5
t62.5 -3.5h1133l7 -34q-30 -11 -81 -28t-107.5 -33.5t-111.5 -28t-92 -11.5h-81h-729q-103 0 -161 26t-74 61q12 28 34 72t47 88.5t48.5 82.5t38.5 54q12 9 32 20t45 23t51.5 24.5t52.5 24.5q34 16 62 30t40 24q10 9 20.5 24.5t22.5 34.5l25 37.5t26 35t27 25.5t29 10
q32 0 59.5 -40t66.5 -118q15 -29 26 -48t23 -30.5t26.5 -16t35.5 -4.5v-147h-41zM691 717l-130 79l83 111l130 -81zM799 543l-121 72l-55 -72l-127 75l86 115l120 -74l56 74l127 -78z" />
    <glyph glyph-name="uni064606D2.fina" unicode="&#xfee8;&#xfbaf;" horiz-adv-x="918" 
d="M877 0q-31 0 -53.5 6.5t-40.5 21t-33.5 36.5t-31.5 53q-9 16 -18.5 38t-21 42.5t-24.5 35t-29 14.5q-14 0 -33 -23t-40 -53t-41.5 -59.5t-35.5 -41.5q-14 -11 -45 -26t-69 -32q-29 -13 -58 -27t-53 -28.5t-41.5 -30t-23.5 -30.5q10 -13 29 -23t44.5 -17t56 -10.5
t62.5 -3.5h1133l7 -34q-30 -11 -81 -28t-107.5 -33.5t-111.5 -28t-92 -11.5h-81h-729q-103 0 -161 26t-74 61q12 28 34 72t47 88.5t48.5 82.5t38.5 54q12 9 32 20t45 23t51.5 24.5t52.5 24.5q34 16 62 30t40 24q10 9 20.5 24.5t22.5 34.5l25 37.5t26 35t27 25.5t29 10
q32 0 59.5 -40t66.5 -118q15 -29 26 -48t23 -30.5t26.5 -16t35.5 -4.5v-147h-41zM726 531l-135 82l86 115l135 -84z" />
    <glyph glyph-name="uni064A06D2.fina" unicode="&#xfef4;&#xfbaf;" horiz-adv-x="918" 
d="M877 0q-31 0 -53.5 6.5t-40.5 21t-33.5 36.5t-31.5 53q-9 16 -18.5 38t-21 42.5t-24.5 35t-29 14.5q-14 0 -33 -23t-40 -53t-41.5 -59.5t-35.5 -41.5q-14 -11 -45 -26t-69 -32q-29 -13 -58 -27t-53 -28.5t-41.5 -30t-23.5 -30.5q10 -13 29 -23t44.5 -17t56 -10.5
t62.5 -3.5h1133l7 -34q-30 -11 -81 -28t-107.5 -33.5t-111.5 -28t-92 -11.5h-81h-729q-103 0 -161 26t-74 61q12 28 34 72t47 88.5t48.5 82.5t38.5 54q12 9 32 20t45 23t51.5 24.5t52.5 24.5q34 16 62 30t40 24q10 9 20.5 24.5t22.5 34.5l25 37.5t26 35t27 25.5t29 10
q32 0 59.5 -40t66.5 -118q15 -29 26 -48t23 -30.5t26.5 -16t35.5 -4.5v-147h-41zM640 -526l-121 72l-55 -72l-127 75l86 115l120 -74l56 74l127 -78z" />
    <glyph glyph-name="uni067906D2.fina" unicode="&#xfb69;&#xfbaf;" horiz-adv-x="918" 
d="M877 0q-31 0 -53.5 6.5t-40.5 21t-33.5 36.5t-31.5 53q-9 16 -18.5 38t-21 42.5t-24.5 35t-29 14.5q-14 0 -33 -23t-40 -53t-41.5 -59.5t-35.5 -41.5q-14 -11 -45 -26t-69 -32q-29 -13 -58 -27t-53 -28.5t-41.5 -30t-23.5 -30.5q10 -13 29 -23t44.5 -17t56 -10.5
t62.5 -3.5h1133l7 -34q-30 -11 -81 -28t-107.5 -33.5t-111.5 -28t-92 -11.5h-81h-729q-103 0 -161 26t-74 61q12 28 34 72t47 88.5t48.5 82.5t38.5 54q12 9 32 20t45 23t51.5 24.5t52.5 24.5q34 16 62 30t40 24q10 9 20.5 24.5t22.5 34.5l25 37.5t26 35t27 25.5t29 10
q32 0 59.5 -40t66.5 -118q15 -29 26 -48t23 -30.5t26.5 -16t35.5 -4.5v-147h-41zM815 605q6 4 11 8t5 7q0 6 -4 16.5t-12.5 20t-22.5 16.5t-33 7q-17 0 -49 -22.5t-69 -52.5h174zM566 605l30 20l-21 211l45 60h5q1 -15 3 -40.5t4 -57t4 -68t4 -73.5q20 15 39.5 30t38.5 27
t36.5 19.5t34.5 7.5q14 0 31.5 -9t32.5 -22.5t25 -30.5t10 -32q0 -13 -6.5 -27.5t-15.5 -29t-20 -27.5t-20 -23h-284q-14 14 -30 26.5t-30 29.5l3 9h81z" />
    <glyph glyph-name="uni067A06D2.fina" unicode="&#xfb61;&#xfbaf;" horiz-adv-x="918" 
d="M877 0q-31 0 -53.5 6.5t-40.5 21t-33.5 36.5t-31.5 53q-9 16 -18.5 38t-21 42.5t-24.5 35t-29 14.5q-14 0 -33 -23t-40 -53t-41.5 -59.5t-35.5 -41.5q-14 -11 -45 -26t-69 -32q-29 -13 -58 -27t-53 -28.5t-41.5 -30t-23.5 -30.5q10 -13 29 -23t44.5 -17t56 -10.5
t62.5 -3.5h1133l7 -34q-30 -11 -81 -28t-107.5 -33.5t-111.5 -28t-92 -11.5h-81h-729q-103 0 -161 26t-74 61q12 28 34 72t47 88.5t48.5 82.5t38.5 54q12 9 32 20t45 23t51.5 24.5t52.5 24.5q34 16 62 30t40 24q10 9 20.5 24.5t22.5 34.5l25 37.5t26 35t27 25.5t29 10
q32 0 59.5 -40t66.5 -118q15 -29 26 -48t23 -30.5t26.5 -16t35.5 -4.5v-147h-41zM716 539l-127 75l79 105l-88 52l86 115l127 -78l-79 -103l88 -54z" />
    <glyph glyph-name="uni067F06D2.fina" unicode="&#xfb65;&#xfbaf;" horiz-adv-x="918" 
d="M877 0q-31 0 -53.5 6.5t-40.5 21t-33.5 36.5t-31.5 53q-9 16 -18.5 38t-21 42.5t-24.5 35t-29 14.5q-14 0 -33 -23t-40 -53t-41.5 -59.5t-35.5 -41.5q-14 -11 -45 -26t-69 -32q-29 -13 -58 -27t-53 -28.5t-41.5 -30t-23.5 -30.5q10 -13 29 -23t44.5 -17t56 -10.5
t62.5 -3.5h1133l7 -34q-30 -11 -81 -28t-107.5 -33.5t-111.5 -28t-92 -11.5h-81h-729q-103 0 -161 26t-74 61q12 28 34 72t47 88.5t48.5 82.5t38.5 54q12 9 32 20t45 23t51.5 24.5t52.5 24.5q34 16 62 30t40 24q10 9 20.5 24.5t22.5 34.5l25 37.5t26 35t27 25.5t29 10
q32 0 59.5 -40t66.5 -118q15 -29 26 -48t23 -30.5t26.5 -16t35.5 -4.5v-147h-41zM607 723l96 -59l60 80l-96 56zM799 554l-121 72l-55 -72l-127 75l85 113l-94 55l86 115l121 -74l55 74l127 -78l-85 -111l94 -57z" />
    <glyph glyph-name="uni067E06D2.fina" unicode="&#xfb59;&#xfbaf;" horiz-adv-x="918" 
d="M877 0q-31 0 -53.5 6.5t-40.5 21t-33.5 36.5t-31.5 53q-9 16 -18.5 38t-21 42.5t-24.5 35t-29 14.5q-14 0 -33 -23t-40 -53t-41.5 -59.5t-35.5 -41.5q-14 -11 -45 -26t-69 -32q-29 -13 -58 -27t-53 -28.5t-41.5 -30t-23.5 -30.5q10 -13 29 -23t44.5 -17t56 -10.5
t62.5 -3.5h1133l7 -34q-30 -11 -81 -28t-107.5 -33.5t-111.5 -28t-92 -11.5h-81h-729q-103 0 -161 26t-74 61q12 28 34 72t47 88.5t48.5 82.5t38.5 54q12 9 32 20t45 23t51.5 24.5t52.5 24.5q34 16 62 30t40 24q10 9 20.5 24.5t22.5 34.5l25 37.5t26 35t27 25.5t29 10
q32 0 59.5 -40t66.5 -118q15 -29 26 -48t23 -30.5t26.5 -16t35.5 -4.5v-147h-41zM571 -701l-130 79l83 111l130 -81zM640 -526l-121 72l-55 -72l-127 75l86 115l120 -74l56 74l127 -78z" />
    <glyph glyph-name="uni0621" unicode="&#x621;" horiz-adv-x="638" arabic-form="isolated" 
d="M496 98q-27 -6 -58 -14t-61.5 -17t-58.5 -20t-50 -23q-32 -17 -68 -46t-59 -61l-30 12q7 32 29 74t51 76q-48 18 -79.5 50.5t-31.5 68.5q0 24 12 54.5t33 61.5t48 60.5t56.5 52t60 36.5t57.5 14q42 0 62.5 -22.5t20.5 -53.5q0 -23 -9 -43t-26 -41q-20 18 -46.5 29
t-56.5 11q-17 0 -36 -5.5t-35.5 -15.5t-27.5 -24.5t-11 -32.5q0 -33 30.5 -55.5t69.5 -32.5q13 -3 26 -5t26 -2q38 0 94 14.5t125 37.5z" />
    <glyph glyph-name="uni0622" unicode="&#x622;" horiz-adv-x="430" arabic-form="isolated" 
d="M213 0l-78 946l96 164q11 -171 19 -297.5t14 -217.5t10 -151t6 -97l3 -55.5t1 -27.5q0 -49 -6 -90.5t-15 -75.5t-19.5 -58.5t-20.5 -39.5h-10zM393 1256q-8 -5 -15.5 -10.5t-15.5 -10.5q-46 -31 -85.5 -53.5t-74.5 -22.5q-37 0 -70 13.5t-50 43.5l-71 -58v46l93 90h14
q20 -27 53.5 -43t79.5 -16q24 0 62 15t80 38v-32z" />
    <glyph glyph-name="uni0622.fina" unicode="&#x622;" horiz-adv-x="453" arabic-form="final" 
d="M277 0q-25 0 -46 11.5t-27 19.5q-15 18 -23 46t-12 70q-5 59 -11 127.5t-12 141t-12 146.5t-12 144t-11 133.5t-9 114.5l96 163l58 -879q2 -38 16.5 -64.5t52.5 -26.5h128v-147h-176zM382 1256q-8 -5 -15.5 -10.5t-15.5 -10.5q-46 -31 -85.5 -53.5t-74.5 -22.5
q-37 0 -70 13.5t-50 43.5l-71 -58v46l93 90h14q20 -27 53.5 -43t79.5 -16q24 0 62 15t80 38v-32z" />
    <glyph glyph-name="uni0623" unicode="&#x623;" horiz-adv-x="430" arabic-form="isolated" 
d="M210 0l-75 820l96 164q4 -56 9.5 -131t11 -154.5t10.5 -158t9.5 -141t7 -103.5t2.5 -46q0 -50 -6.5 -89.5t-16 -70.5t-20 -53t-18.5 -37h-10zM304 1097q-32 -8 -71 -19.5t-66 -25.5q-20 -10 -38 -28.5t-32 -38.5l-25 11q4 19 17 45t32 44q-29 11 -48 30.5t-19 41.5t16 51
t40 54.5t52 43.5t52 18q25 0 37.5 -13.5t12.5 -31.5q0 -26 -21 -51q-30 24 -67 24q-21 0 -41 -12t-20 -35q0 -13 8.5 -23.5t22 -18t30 -11.5t31.5 -4q23 0 56 9t75 23z" />
    <glyph glyph-name="uni0623.fina" unicode="&#x623;" horiz-adv-x="453" arabic-form="final" 
d="M277 0q-25 0 -46 11.5t-27 19.5q-15 18 -23 46t-12 70q-16 180 -32 348.5t-27 325.5l96 163l50 -746q2 -38 16.5 -64.5t52.5 -26.5h128v-147h-176zM278 1097q-32 -8 -71 -19.5t-66 -25.5q-20 -10 -38 -28.5t-32 -38.5l-25 11q4 19 17 45t32 44q-29 11 -48 30.5t-19 41.5
t16 51t40 54.5t52 43.5t52 18q25 0 37.5 -13.5t12.5 -31.5q0 -26 -21 -51q-30 24 -67 24q-21 0 -41 -12t-20 -35q0 -13 8.5 -23.5t22 -18t30 -11.5t31.5 -4q23 0 56 9t75 23z" />
    <glyph glyph-name="uni0624" unicode="&#x624;" horiz-adv-x="742" arabic-form="isolated" 
d="M582 249q-10 30 -25.5 58.5t-33.5 51t-38 36.5t-38 14t-35 -12.5t-30 -30t-20.5 -35t-7.5 -27.5q9 -24 43.5 -44.5t94.5 -20.5q9 0 21 1t25 2.5t24.5 3t19.5 3.5zM582 190q-9 -17 -20.5 -35.5t-26.5 -33.5t-33.5 -24.5t-42.5 -9.5q-33 0 -65.5 10.5t-59 28.5t-42.5 43.5
t-16 55.5q0 72 19.5 134.5t51 108.5t71 72.5t78.5 26.5q28 0 53.5 -17.5t47 -47t39.5 -68.5t30.5 -82t19 -87.5t6.5 -84.5q0 -61 -13 -124t-38 -122t-59.5 -111t-77.5 -90.5t-93.5 -61t-105.5 -22.5q-33 0 -68.5 6t-76 18.5t-87.5 32.5t-103 48l12 30q32 -10 56 -17
t43.5 -11.5t37.5 -6.5t39 -2q49 0 99.5 15.5t99 42.5t92.5 63.5t79 78t59.5 86.5t33.5 89q-8 38 -19 68h-20zM544 715q-32 -8 -71 -19.5t-66 -25.5q-20 -10 -38 -28.5t-32 -38.5l-25 11q4 19 17 45t32 44q-29 11 -48 30.5t-19 41.5t16 51t40 54.5t52 43.5t52 18
q25 0 37.5 -13.5t12.5 -31.5q0 -26 -21 -51q-30 24 -67 24q-21 0 -41 -12t-20 -35q0 -13 8.5 -23.5t22 -18t30 -11.5t31.5 -4q23 0 56 9t75 23z" />
    <glyph glyph-name="uni0624.fina" unicode="&#x624;" horiz-adv-x="860" arabic-form="final" 
d="M589 152q-10 30 -25 60.5t-33 56t-38 41.5t-40 16q-22 0 -40 -12t-30.5 -28.5t-19.5 -33.5t-7 -27q8 -26 34.5 -43t83.5 -25q9 -1 24 -2t31.5 -1.5t32.5 -1t27 -0.5zM682 0q-15 -80 -49 -156t-83 -135t-111 -95t-133 -36q-33 0 -68.5 6t-76 18.5t-88 32.5t-103.5 48
l12 30q32 -10 56 -17t44 -11.5t38 -6.5t39 -2q48 0 98.5 15.5t99 41.5t91.5 60t77 70.5t55.5 73t26.5 67.5h-30.5t-37 1t-39.5 2.5t-38 3.5q-33 4 -64 15.5t-55.5 29.5t-39 43t-14.5 55q0 72 19.5 132.5t50 104t68.5 68t74 24.5q39 0 72 -31t57.5 -79.5t40.5 -108t20 -117.5
h169v-147h-178zM544 615q-32 -8 -71 -19.5t-66 -25.5q-20 -10 -38 -28.5t-32 -38.5l-25 11q4 19 17 45t32 44q-29 11 -48 30.5t-19 41.5t16 51t40 54.5t52 43.5t52 18q25 0 37.5 -13.5t12.5 -31.5q0 -26 -21 -51q-30 24 -67 24q-21 0 -41 -12t-20 -35q0 -13 8.5 -23.5
t22 -18t30 -11.5t31.5 -4q23 0 56 9t75 23z" />
    <glyph glyph-name="uni0625" unicode="&#x625;" horiz-adv-x="430" arabic-form="isolated" 
d="M213 0l-78 946l96 164q11 -171 19 -297.5t14 -217.5t10 -151t6 -97l3 -55.5t1 -27.5q0 -49 -6 -90.5t-15 -75.5t-19.5 -58.5t-20.5 -39.5h-10zM310 -307q-32 -8 -71 -19.5t-66 -25.5q-20 -10 -38 -28.5t-32 -38.5l-25 11q4 19 17 45t32 44q-29 11 -48 30.5t-19 41.5
t16 51t40 54.5t52 43.5t52 18q25 0 37.5 -13.5t12.5 -31.5q0 -26 -21 -51q-30 24 -67 24q-21 0 -41 -12t-20 -35q0 -13 8.5 -23.5t22 -18t30 -11.5t31.5 -4q23 0 56 9t75 23z" />
    <glyph glyph-name="uni0625.fina" unicode="&#x625;" horiz-adv-x="453" arabic-form="final" 
d="M277 0q-25 0 -46 11.5t-27 19.5q-15 18 -23 46t-12 70q-5 59 -11 127.5t-12 141t-12 146.5t-12 144t-11 133.5t-9 114.5l96 163l58 -879q2 -38 16.5 -64.5t52.5 -26.5h128v-147h-176zM337 -284q-32 -8 -71 -19.5t-66 -25.5q-20 -10 -38 -28.5t-32 -38.5l-25 11
q4 19 17 45t32 44q-29 11 -48 30.5t-19 41.5t16 51t40 54.5t52 43.5t52 18q25 0 37.5 -13.5t12.5 -31.5q0 -26 -21 -51q-30 24 -67 24q-21 0 -41 -12t-20 -35q0 -13 8.5 -23.5t22 -18t30 -11.5t31.5 -4q23 0 56 9t75 23z" />
    <glyph glyph-name="uni0626" unicode="&#x626;" horiz-adv-x="1085" arabic-form="isolated" 
d="M953 439q-2 28 -23.5 39.5t-54.5 11.5q-30 0 -73.5 -23.5t-84 -59.5t-69 -79t-28.5 -81q0 -15 17 -27t47 -21t72 -16t93 -13q39 -5 67.5 -12t46.5 -21t26.5 -38.5t8.5 -63.5q0 -19 -5.5 -44t-15 -51.5t-21 -53t-23.5 -48.5q-42 -31 -98 -68.5t-123.5 -70.5t-143 -55
t-156.5 -22q-97 0 -161 25.5t-102 66t-53.5 92t-15.5 102.5q0 62 12.5 116.5t32 102.5t44 90.5t47.5 79.5l30 -12q-15 -35 -28 -67.5t-23 -65.5t-15.5 -67t-5.5 -72q0 -56 22.5 -100.5t60 -75t86.5 -46.5t102 -16q68 0 140.5 19t139 49t124 67.5t95.5 73.5q0 8 -9.5 14.5
t-33.5 12.5t-64.5 11t-101.5 10q-38 3 -73.5 10.5t-62.5 20.5t-43.5 31.5t-16.5 43.5q0 53 16.5 111.5t45.5 115t67.5 107.5t82.5 89.5t90.5 61.5t90.5 23q68 0 68 -81q0 -8 -3 -22.5t-8 -32t-11 -36.5t-12 -35h-13zM371 457q-32 -8 -71 -19.5t-66 -25.5q-20 -10 -38 -28.5
t-32 -38.5l-25 11q4 19 17 45t32 44q-29 11 -48 30.5t-19 41.5t16 51t40 54.5t52 43.5t52 18q25 0 37.5 -13.5t12.5 -31.5q0 -26 -21 -51q-30 24 -67 24q-21 0 -41 -12t-20 -35q0 -13 8.5 -23.5t22 -18t30 -11.5t31.5 -4q23 0 56 9t75 23z" />
    <glyph glyph-name="uni0626.init" unicode="&#x626;" arabic-form="initial" 
d="M0 0q-11 0 -23.5 3t-24 8.5t-19 14t-7.5 19.5v57q0 12 7.5 20.5t19 14t24 8t23.5 2.5h278q0 31 -9 57.5t-23 49.5t-30 42t-30 34l71 164q19 -27 37.5 -61t33 -69.5t23.5 -71t9 -65.5q0 -29 -5 -59.5t-13.5 -60t-18 -57t-18.5 -50.5h-305zM296 657q-32 -8 -71 -19.5
t-66 -25.5q-20 -10 -38 -28.5t-32 -38.5l-25 11q4 19 17 45t32 44q-29 11 -48 30.5t-19 41.5t16 51t40 54.5t52 43.5t52 18q25 0 37.5 -13.5t12.5 -31.5q0 -26 -21 -51q-30 24 -67 24q-21 0 -41 -12t-20 -35q0 -13 8.5 -23.5t22 -18t30 -11.5t31.5 -4q23 0 56 9t75 23z" />
    <glyph glyph-name="uni0626.medi" unicode="&#x626;" horiz-adv-x="540" arabic-form="medial" 
d="M415 0q-20 0 -40 7t-36.5 20.5t-28.5 32t-16 41.5h-12l-47 -101h-235q-11 0 -23.5 3t-24 8.5t-19 14t-7.5 19.5v57q0 12 7.5 20.5t19 14t24 8t23.5 2.5h230l40 244l105 69l-35 -211q3 -33 15.5 -53.5t31.5 -31t43 -14t51 -3.5h59v-147h-125zM351 607q-32 -8 -71 -19.5
t-66 -25.5q-20 -10 -38 -28.5t-32 -38.5l-25 11q4 19 17 45t32 44q-29 11 -48 30.5t-19 41.5t16 51t40 54.5t52 43.5t52 18q25 0 37.5 -13.5t12.5 -31.5q0 -26 -21 -51q-30 24 -67 24q-21 0 -41 -12t-20 -35q0 -13 8.5 -23.5t22 -18t30 -11.5t31.5 -4q23 0 56 9t75 23z" />
    <glyph glyph-name="uni0626.fina" unicode="&#x626;" horiz-adv-x="861" arabic-form="final" 
d="M861 80q9 -5 21.5 -14t25 -19t23.5 -19.5t17 -15.5q12 -13 24.5 -30t23.5 -37l-72 -191q-36 -29 -93 -57t-125.5 -50.5t-144.5 -36t-149 -13.5q-97 0 -161 25.5t-102 66t-53.5 92t-15.5 102.5q0 61 12.5 116t32 103.5t43.5 90.5t47 79l30 -12q-15 -35 -28.5 -67.5
t-23 -65t-15.5 -66.5t-6 -73q0 -56 22 -100t59 -74.5t86.5 -47t105.5 -16.5q87 0 164.5 11t140.5 29t109 40.5t71 46.5q-5 21 -33 42.5t-71.5 39.5t-100 29.5t-117.5 11.5q16 43 30.5 77.5t33.5 69.5h189v-67zM391 457q-32 -8 -71 -19.5t-66 -25.5q-20 -10 -38 -28.5
t-32 -38.5l-25 11q4 19 17 45t32 44q-29 11 -48 30.5t-19 41.5t16 51t40 54.5t52 43.5t52 18q25 0 37.5 -13.5t12.5 -31.5q0 -26 -21 -51q-30 24 -67 24q-21 0 -41 -12t-20 -35q0 -13 8.5 -23.5t22 -18t30 -11.5t31.5 -4q23 0 56 9t75 23z" />
    <glyph glyph-name="uni0627" unicode="&#x627;" horiz-adv-x="430" arabic-form="isolated" 
d="M213 0l-78 946l96 164q11 -171 19 -297.5t14 -217.5t10 -151t6 -97l3 -55.5t1 -27.5q0 -49 -6 -90.5t-15 -75.5t-19.5 -58.5t-20.5 -39.5h-10z" />
    <glyph glyph-name="uni0627.fina" unicode="&#x627;" horiz-adv-x="453" arabic-form="final" 
d="M277 0q-25 0 -46 11.5t-27 19.5q-15 18 -23 46t-12 70q-5 59 -11 127.5t-12 141t-12 146.5t-12 144t-11 133.5t-9 114.5l96 163l58 -879q2 -38 16.5 -64.5t52.5 -26.5h128v-147h-176z" />
    <glyph glyph-name="uni0628" unicode="&#x628;" horiz-adv-x="1265" arabic-form="isolated" 
d="M296 0q-56 0 -96.5 19t-67 47t-39.5 60.5t-13 59.5q0 66 16 128t58 128l30 -12q-35 -94 -35 -154q0 -18 8.5 -40t31 -42t61 -33.5t99.5 -13.5h755q0 31 -9 57.5t-22.5 49.5t-30 42t-30.5 34l71 164q18 -27 35.5 -60.5t31 -68.5t22 -71t8.5 -67q0 -19 -3 -40t-10 -47.5
t-17.5 -60.5t-25.5 -79h-828zM661 -325l-135 82l86 115l135 -84z" />
    <glyph glyph-name="uni0628.init" unicode="&#x628;" arabic-form="initial" 
d="M0 0q-11 0 -23.5 3t-24 8.5t-19 14t-7.5 19.5v57q0 12 7.5 20.5t19 14t24 8t23.5 2.5h278q0 31 -9 57.5t-23 49.5t-30 42t-30 34l71 164q19 -27 37.5 -61t33 -69.5t23.5 -71t9 -65.5q0 -29 -5 -59.5t-13.5 -60t-18 -57t-18.5 -50.5h-305zM226 -325l-135 82l86 115
l135 -84z" />
    <glyph glyph-name="uni0628.medi" unicode="&#x628;" horiz-adv-x="540" arabic-form="medial" 
d="M415 0q-20 0 -40 7t-36.5 20.5t-28.5 32t-16 41.5h-12l-47 -101h-235q-11 0 -23.5 3t-24 8.5t-19 14t-7.5 19.5v57q0 12 7.5 20.5t19 14t24 8t23.5 2.5h230l40 244l105 69l-35 -211q3 -33 15.5 -53.5t31.5 -31t43 -14t51 -3.5h59v-147h-125zM296 -295l-135 82l86 115
l135 -84z" />
    <glyph glyph-name="uni0628.fina" unicode="&#x628;" horiz-adv-x="1329" arabic-form="final" 
d="M1230 0q-20 0 -40 7t-36.5 20.5t-28.5 32t-16 41.5h-12l-47 -101h-754q-56 0 -96.5 19t-67 47t-39.5 60.5t-13 59.5q0 66 16 128t58 128l30 -12q-35 -94 -35 -154q0 -18 8.5 -40t31 -42t61 -33.5t99.5 -13.5h697l39 244l105 69l-35 -211q3 -33 15.5 -53.5t31.5 -31
t43 -14t51 -3.5h33v-147h-99zM661 -325l-135 82l86 115l135 -84z" />
    <glyph glyph-name="uni0629" unicode="&#x629;" horiz-adv-x="634" arabic-form="isolated" 
d="M279 614q-2 -7 -2 -11.5v-9.5q0 -36 33 -55q34 -22 62 -38.5t51 -30.5q34 -21 58 -39t39 -40t22 -51.5t7 -72.5q0 -36 -10 -73q-8 -34 -23.5 -69.5t-32.5 -69.5q-16 -14 -41.5 -27.5t-60.5 -24.5t-78.5 -18t-95.5 -7q-66 0 -96.5 30t-30.5 87q0 46 8.5 91t22.5 87.5
t31.5 81t35.5 72.5q-11 11 -13.5 21t-2.5 24q0 10 10 30.5t24.5 44t31 45.5t28.5 36zM473 188q0 25 -19 49t-47.5 45.5t-61.5 40t-60 33.5q-22 12 -37.5 21t-20.5 14q-7 -10 -20 -30.5t-26 -46.5t-22.5 -54t-9.5 -53q0 -12 4 -24.5t14 -22.5t28 -16.5t47 -6.5q43 0 84.5 4.5
t74 11.5t52.5 16t20 19zM405 777l-121 72l-55 -72l-127 75l86 115l120 -74l56 74l127 -78z" />
    <glyph glyph-name="uni0629.fina" unicode="&#x629;" horiz-adv-x="787" arabic-form="final" 
d="M480 323l-18 244q-14 -20 -26 -43.5t-30 -33.5q-9 -6 -39.5 -19.5t-67 -29.5t-71.5 -31t-53 -24l-11 -17q69 -25 138.5 -38t150.5 -24zM658 0q-43 0 -76.5 19.5t-51.5 42.5q-12 15 -19.5 37.5t-12.5 50.5t-8 59t-6 61h-18l-79 -122q-55 8 -106.5 19t-94.5 25
q-32 10 -52.5 19t-32.5 18t-16.5 19t-4.5 22q0 16 13.5 47t32 64t37 62t28.5 40q7 8 23 18.5t39 22.5t51 26t58 28q24 11 47.5 22t46.5 22q0 7 -1 18t-1.5 23t-1.5 22.5t-1 16.5l91 136l14 -208q3 -37 7 -89t8.5 -106t9.5 -104t9 -84q3 -29 13 -47.5t19 -24.5q20 -14 41 -20
t54 -8h70v-147h-129zM394 844l-121 72l-55 -72l-127 75l86 115l120 -74l56 74l127 -78z" />
    <glyph glyph-name="uni062A" unicode="&#x62a;" horiz-adv-x="1265" arabic-form="isolated" 
d="M296 0q-56 0 -96.5 19t-67 47t-39.5 60.5t-13 59.5q0 66 16 128t58 128l30 -12q-35 -94 -35 -154q0 -18 8.5 -40t31 -42t61 -33.5t99.5 -13.5h755q0 31 -9 57.5t-22.5 49.5t-30 42t-30.5 34l71 164q18 -27 35.5 -60.5t31 -68.5t22 -71t8.5 -67q0 -19 -3 -40t-10 -47.5
t-17.5 -60.5t-25.5 -79h-828zM734 564l-121 72l-55 -72l-127 75l86 115l120 -74l56 74l127 -78z" />
    <glyph glyph-name="uni062A.init" unicode="&#x62a;" arabic-form="initial" 
d="M0 0q-11 0 -23.5 3t-24 8.5t-19 14t-7.5 19.5v57q0 12 7.5 20.5t19 14t24 8t23.5 2.5h278q0 31 -9 57.5t-23 49.5t-30 42t-30 34l71 164q19 -27 37.5 -61t33 -69.5t23.5 -71t9 -65.5q0 -29 -5 -59.5t-13.5 -60t-18 -57t-18.5 -50.5h-305zM349 614l-121 72l-55 -72
l-127 75l86 115l120 -74l56 74l127 -78z" />
    <glyph glyph-name="uni062A.medi" unicode="&#x62a;" horiz-adv-x="540" arabic-form="medial" 
d="M415 0q-20 0 -40 7t-36.5 20.5t-28.5 32t-16 41.5h-12l-47 -101h-235q-11 0 -23.5 3t-24 8.5t-19 14t-7.5 19.5v57q0 12 7.5 20.5t19 14t24 8t23.5 2.5h230l40 244l105 69l-35 -211q3 -33 15.5 -53.5t31.5 -31t43 -14t51 -3.5h59v-147h-125zM379 564l-121 72l-55 -72
l-127 75l86 115l120 -74l56 74l127 -78z" />
    <glyph glyph-name="uni062A.fina" unicode="&#x62a;" horiz-adv-x="1329" arabic-form="final" 
d="M1230 0q-20 0 -40 7t-36.5 20.5t-28.5 32t-16 41.5h-12l-47 -101h-754q-56 0 -96.5 19t-67 47t-39.5 60.5t-13 59.5q0 66 16 128t58 128l30 -12q-35 -94 -35 -154q0 -18 8.5 -40t31 -42t61 -33.5t99.5 -13.5h697l39 244l105 69l-35 -211q3 -33 15.5 -53.5t31.5 -31
t43 -14t51 -3.5h33v-147h-99zM734 564l-121 72l-55 -72l-127 75l86 115l120 -74l56 74l127 -78z" />
    <glyph glyph-name="uni062B" unicode="&#x62b;" horiz-adv-x="1265" arabic-form="isolated" 
d="M296 0q-56 0 -96.5 19t-67 47t-39.5 60.5t-13 59.5q0 66 16 128t58 128l30 -12q-35 -94 -35 -154q0 -18 8.5 -40t31 -42t61 -33.5t99.5 -13.5h755q0 31 -9 57.5t-22.5 49.5t-30 42t-30.5 34l71 164q18 -27 35.5 -60.5t31 -68.5t22 -71t8.5 -67q0 -19 -3 -40t-10 -47.5
t-17.5 -60.5t-25.5 -79h-828zM626 738l-130 79l83 111l130 -81zM734 564l-121 72l-55 -72l-127 75l86 115l120 -74l56 74l127 -78z" />
    <glyph glyph-name="uni062B.init" unicode="&#x62b;" arabic-form="initial" 
d="M0 0q-11 0 -23.5 3t-24 8.5t-19 14t-7.5 19.5v57q0 12 7.5 20.5t19 14t24 8t23.5 2.5h278q0 31 -9 57.5t-23 49.5t-30 42t-30 34l71 164q19 -27 37.5 -61t33 -69.5t23.5 -71t9 -65.5q0 -29 -5 -59.5t-13.5 -60t-18 -57t-18.5 -50.5h-305zM241 788l-130 79l83 111l130 -81
zM349 614l-121 72l-55 -72l-127 75l86 115l120 -74l56 74l127 -78z" />
    <glyph glyph-name="uni062B.medi" unicode="&#x62b;" horiz-adv-x="540" arabic-form="medial" 
d="M415 0q-20 0 -40 7t-36.5 20.5t-28.5 32t-16 41.5h-12l-47 -101h-235q-11 0 -23.5 3t-24 8.5t-19 14t-7.5 19.5v57q0 12 7.5 20.5t19 14t24 8t23.5 2.5h230l40 244l105 69l-35 -211q3 -33 15.5 -53.5t31.5 -31t43 -14t51 -3.5h59v-147h-125zM271 738l-130 79l83 111
l130 -81zM379 564l-121 72l-55 -72l-127 75l86 115l120 -74l56 74l127 -78z" />
    <glyph glyph-name="uni062B.fina" unicode="&#x62b;" horiz-adv-x="1329" arabic-form="final" 
d="M1230 0q-20 0 -40 7t-36.5 20.5t-28.5 32t-16 41.5h-12l-47 -101h-754q-56 0 -96.5 19t-67 47t-39.5 60.5t-13 59.5q0 66 16 128t58 128l30 -12q-35 -94 -35 -154q0 -18 8.5 -40t31 -42t61 -33.5t99.5 -13.5h697l39 244l105 69l-35 -211q3 -33 15.5 -53.5t31.5 -31
t43 -14t51 -3.5h33v-147h-99zM626 738l-130 79l83 111l130 -81zM734 564l-121 72l-55 -72l-127 75l86 115l120 -74l56 74l127 -78z" />
    <glyph glyph-name="uni062C" unicode="&#x62c;" horiz-adv-x="1028" arabic-form="isolated" 
d="M1023 -502q-53 -20 -111 -40t-114.5 -36t-107.5 -26t-90 -10q-118 0 -199 17t-134.5 45.5t-83 66.5t-43 80t-16.5 85.5t-3 83.5q0 96 21.5 170.5t51 130t61 93t52.5 58.5q33 33 80.5 68.5t95.5 61.5q-72 8 -140.5 14.5t-137.5 6.5q-35 0 -57.5 -18t-38.5 -39l-29 16
q17 47 36 83.5t42.5 61t54 37.5t69.5 13q19 0 45 -2.5t54 -5.5q72 -8 184 -18t278 -10l-66 -149q-21 -2 -43 -5t-48 -7.5t-57.5 -12t-71.5 -18.5q-89 -30 -160.5 -76.5t-121.5 -108t-76.5 -137.5t-26.5 -166q0 -64 30 -109t85.5 -75.5t132.5 -48.5t170.5 -27t201.5 -11.5
t224 -2.5zM605 -221l-135 82l86 115l135 -84z" />
    <glyph glyph-name="uni062C.init" unicode="&#x62c;" horiz-adv-x="1055" arabic-form="initial" 
d="M895 173q-44 2 -81 12t-75 10q-28 0 -56 -8t-55 -20t-52.5 -27t-48.5 -29q-36 -22 -74 -42t-84.5 -35.5t-104.5 -24.5t-133 -9h-131q-11 0 -23.5 3t-24 8.5t-19 14t-7.5 19.5v57q0 12 7.5 20.5t19 14t24 8t23.5 2.5h171q84 0 149 13.5t117 32t93 39t76 34.5
q-47 18 -91 37.5t-86.5 36t-83.5 27.5t-82 11q-21 0 -35.5 -6.5t-25.5 -16.5t-19 -21.5t-16 -21.5l-29 16q20 50 39 87.5t41 62.5t49 37.5t62 12.5q26 0 56.5 -7.5t65 -19.5t72 -28t76.5 -34q46 -21 94.5 -42t95.5 -38t93 -27.5t88 -10.5zM481 -295l-135 82l86 115l135 -84z
" />
    <glyph glyph-name="uni062C.medi" unicode="&#x62c;" horiz-adv-x="1063" arabic-form="medial" 
d="M799 0q-67 0 -106 9.5t-59.5 30t-26 53t-5.5 79.5v33q-35 -35 -85.5 -71.5t-111 -66t-129 -48.5t-138.5 -19h-138q-11 0 -23.5 3t-24 8.5t-19 14t-7.5 19.5v57q0 12 7.5 20.5t19 14t24 8t23.5 2.5h195q61 0 120 15.5t114 39t105.5 52t95.5 55.5l-68 19q-41 11 -78.5 22
t-74 20t-73 15t-73.5 6q-20 0 -35 -8.5t-26 -21t-19.5 -26t-15.5 -23.5l-29 16q20 51 39.5 91t41 67t48.5 41t62 14q45 0 95.5 -12.5t113.5 -32.5q45 -14 95 -28.5t104.5 -26.5t113.5 -19.5t122 -7.5l-66 -148q-70 0 -123 10q-45 0 -74 -9t-55 -24q0 -35 12 -54.5t35 -28.5
t56 -11t74 -2h231v-147h-264zM481 -295l-135 82l86 115l135 -84z" />
    <glyph glyph-name="uni062C.fina" unicode="&#x62c;" horiz-adv-x="927" arabic-form="final" 
d="M742 0q-59 0 -98 4.5t-62 21t-33 48t-10 86.5q0 14 1.5 31t4.5 35t6 35t6 32q-89 -30 -160.5 -76.5t-121.5 -108t-76.5 -137.5t-26.5 -166q0 -64 30 -109t85.5 -75.5t132.5 -48.5t170.5 -27t201.5 -11.5t224 -2.5l7 -33q-53 -20 -111 -40t-114.5 -36t-107.5 -26t-90 -10
q-118 0 -199 17t-134.5 45.5t-83 66.5t-43 80t-16.5 85.5t-3 83.5q0 96 21.5 170.5t51 130t61 93t52.5 58.5q33 33 80 68.5t95 61.5q-72 8 -140 14.5t-137 6.5q-35 0 -57.5 -10t-38.5 -31l-29 16q17 47 36 80t42.5 54t52.5 30.5t66 9.5t93 -6q72 -8 187 -16.5t281 -8.5
l-66 -149q-83 -7 -157 -27q-5 -17 -9 -38t-4 -35q0 -32 15 -49.5t40.5 -26.5t58.5 -11t69 -2h142v-147h-185zM531 -285l-135 82l86 115l135 -84z" />
    <glyph glyph-name="uni062D" unicode="&#x62d;" horiz-adv-x="1028" arabic-form="isolated" 
d="M1023 -502q-53 -20 -111 -40t-114.5 -36t-107.5 -26t-90 -10q-118 0 -199 17t-134.5 45.5t-83 66.5t-43 80t-16.5 85.5t-3 83.5q0 96 21.5 170.5t51 130t61 93t52.5 58.5q33 33 80.5 68.5t95.5 61.5q-72 8 -140.5 14.5t-137.5 6.5q-35 0 -57.5 -18t-38.5 -39l-29 16
q17 47 36 83.5t42.5 61t54 37.5t69.5 13q19 0 45 -2.5t54 -5.5q72 -8 184 -18t278 -10l-66 -149q-21 -2 -43 -5t-48 -7.5t-57.5 -12t-71.5 -18.5q-89 -30 -160.5 -76.5t-121.5 -108t-76.5 -137.5t-26.5 -166q0 -64 30 -109t85.5 -75.5t132.5 -48.5t170.5 -27t201.5 -11.5
t224 -2.5z" />
    <glyph glyph-name="uni062D.init" unicode="&#x62d;" horiz-adv-x="1055" arabic-form="initial" 
d="M895 173q-44 2 -81 12t-75 10q-28 0 -56 -8t-55 -20t-52.5 -27t-48.5 -29q-36 -22 -74 -42t-84.5 -35.5t-104.5 -24.5t-133 -9h-131q-11 0 -23.5 3t-24 8.5t-19 14t-7.5 19.5v57q0 12 7.5 20.5t19 14t24 8t23.5 2.5h171q84 0 149 13.5t117 32t93 39t76 34.5
q-47 18 -91 37.5t-86.5 36t-83.5 27.5t-82 11q-21 0 -35.5 -6.5t-25.5 -16.5t-19 -21.5t-16 -21.5l-29 16q20 50 39 87.5t41 62.5t49 37.5t62 12.5q26 0 56.5 -7.5t65 -19.5t72 -28t76.5 -34q46 -21 94.5 -42t95.5 -38t93 -27.5t88 -10.5z" />
    <glyph glyph-name="uni062D.medi" unicode="&#x62d;" horiz-adv-x="1063" arabic-form="medial" 
d="M799 0q-67 0 -106 9.5t-59.5 30t-26 53t-5.5 79.5v33q-35 -35 -85.5 -71.5t-111 -66t-129 -48.5t-138.5 -19h-138q-11 0 -23.5 3t-24 8.5t-19 14t-7.5 19.5v57q0 12 7.5 20.5t19 14t24 8t23.5 2.5h195q61 0 120 15.5t114 39t105.5 52t95.5 55.5l-68 19q-41 11 -78.5 22
t-74 20t-73 15t-73.5 6q-20 0 -35 -8.5t-26 -21t-19.5 -26t-15.5 -23.5l-29 16q20 51 39.5 91t41 67t48.5 41t62 14q45 0 95.5 -12.5t113.5 -32.5q45 -14 95 -28.5t104.5 -26.5t113.5 -19.5t122 -7.5l-66 -148q-70 0 -123 10q-45 0 -74 -9t-55 -24q0 -35 12 -54.5t35 -28.5
t56 -11t74 -2h231v-147h-264z" />
    <glyph glyph-name="uni062D.fina" unicode="&#x62d;" horiz-adv-x="927" arabic-form="final" 
d="M742 0q-59 0 -98 4.5t-62 21t-33 48t-10 86.5q0 14 1.5 31t4.5 35t6 35t6 32q-89 -30 -160.5 -76.5t-121.5 -108t-76.5 -137.5t-26.5 -166q0 -64 30 -109t85.5 -75.5t132.5 -48.5t170.5 -27t201.5 -11.5t224 -2.5l7 -33q-53 -20 -111 -40t-114.5 -36t-107.5 -26t-90 -10
q-118 0 -199 17t-134.5 45.5t-83 66.5t-43 80t-16.5 85.5t-3 83.5q0 96 21.5 170.5t51 130t61 93t52.5 58.5q33 33 80 68.5t95 61.5q-72 8 -140 14.5t-137 6.5q-35 0 -57.5 -10t-38.5 -31l-29 16q17 47 36 80t42.5 54t52.5 30.5t66 9.5t93 -6q72 -8 187 -16.5t281 -8.5
l-66 -149q-83 -7 -157 -27q-5 -17 -9 -38t-4 -35q0 -32 15 -49.5t40.5 -26.5t58.5 -11t69 -2h142v-147h-185z" />
    <glyph glyph-name="uni062E" unicode="&#x62e;" horiz-adv-x="1028" arabic-form="isolated" 
d="M1023 -502q-53 -20 -111 -40t-114.5 -36t-107.5 -26t-90 -10q-118 0 -199 17t-134.5 45.5t-83 66.5t-43 80t-16.5 85.5t-3 83.5q0 96 21.5 170.5t51 130t61 93t52.5 58.5q33 33 80.5 68.5t95.5 61.5q-72 8 -140.5 14.5t-137.5 6.5q-35 0 -57.5 -18t-38.5 -39l-29 16
q17 47 36 83.5t42.5 61t54 37.5t69.5 13q19 0 45 -2.5t54 -5.5q72 -8 184 -18t278 -10l-66 -149q-21 -2 -43 -5t-48 -7.5t-57.5 -12t-71.5 -18.5q-89 -30 -160.5 -76.5t-121.5 -108t-76.5 -137.5t-26.5 -166q0 -64 30 -109t85.5 -75.5t132.5 -48.5t170.5 -27t201.5 -11.5
t224 -2.5zM481 672l-135 82l86 115l135 -84z" />
    <glyph glyph-name="uni062E.init" unicode="&#x62e;" horiz-adv-x="1055" arabic-form="initial" 
d="M895 173q-44 2 -81 12t-75 10q-28 0 -56 -8t-55 -20t-52.5 -27t-48.5 -29q-36 -22 -74 -42t-84.5 -35.5t-104.5 -24.5t-133 -9h-131q-11 0 -23.5 3t-24 8.5t-19 14t-7.5 19.5v57q0 12 7.5 20.5t19 14t24 8t23.5 2.5h171q84 0 149 13.5t117 32t93 39t76 34.5
q-47 18 -91 37.5t-86.5 36t-83.5 27.5t-82 11q-21 0 -35.5 -6.5t-25.5 -16.5t-19 -21.5t-16 -21.5l-29 16q20 50 39 87.5t41 62.5t49 37.5t62 12.5q26 0 56.5 -7.5t65 -19.5t72 -28t76.5 -34q46 -21 94.5 -42t95.5 -38t93 -27.5t88 -10.5zM481 672l-135 82l86 115l135 -84z
" />
    <glyph glyph-name="uni062E.medi" unicode="&#x62e;" horiz-adv-x="1063" arabic-form="medial" 
d="M799 0q-67 0 -106 9.5t-59.5 30t-26 53t-5.5 79.5v33q-35 -35 -85.5 -71.5t-111 -66t-129 -48.5t-138.5 -19h-138q-11 0 -23.5 3t-24 8.5t-19 14t-7.5 19.5v57q0 12 7.5 20.5t19 14t24 8t23.5 2.5h195q61 0 120 15.5t114 39t105.5 52t95.5 55.5l-68 19q-41 11 -78.5 22
t-74 20t-73 15t-73.5 6q-20 0 -35 -8.5t-26 -21t-19.5 -26t-15.5 -23.5l-29 16q20 51 39.5 91t41 67t48.5 41t62 14q45 0 95.5 -12.5t113.5 -32.5q45 -14 95 -28.5t104.5 -26.5t113.5 -19.5t122 -7.5l-66 -148q-70 0 -123 10q-45 0 -74 -9t-55 -24q0 -35 12 -54.5t35 -28.5
t56 -11t74 -2h231v-147h-264zM481 672l-135 82l86 115l135 -84z" />
    <glyph glyph-name="uni062E.fina" unicode="&#x62e;" horiz-adv-x="927" arabic-form="final" 
d="M742 0q-59 0 -98 4.5t-62 21t-33 48t-10 86.5q0 14 1.5 31t4.5 35t6 35t6 32q-89 -30 -160.5 -76.5t-121.5 -108t-76.5 -137.5t-26.5 -166q0 -64 30 -109t85.5 -75.5t132.5 -48.5t170.5 -27t201.5 -11.5t224 -2.5l7 -33q-53 -20 -111 -40t-114.5 -36t-107.5 -26t-90 -10
q-118 0 -199 17t-134.5 45.5t-83 66.5t-43 80t-16.5 85.5t-3 83.5q0 96 21.5 170.5t51 130t61 93t52.5 58.5q33 33 80 68.5t95 61.5q-72 8 -140 14.5t-137 6.5q-35 0 -57.5 -10t-38.5 -31l-29 16q17 47 36 80t42.5 54t52.5 30.5t66 9.5t93 -6q72 -8 187 -16.5t281 -8.5
l-66 -149q-83 -7 -157 -27q-5 -17 -9 -38t-4 -35q0 -32 15 -49.5t40.5 -26.5t58.5 -11t69 -2h142v-147h-185zM481 672l-135 82l86 115l135 -84z" />
    <glyph glyph-name="uni062F" unicode="&#x62f;" horiz-adv-x="725" arabic-form="isolated" 
d="M340 630q3 14 14.5 22t25.5 8q17 0 37 -14q57 -44 98.5 -97t69.5 -108.5t41.5 -109.5t13.5 -100q0 -32 -5.5 -61.5t-13.5 -55.5t-17.5 -48t-17.5 -38q-16 -8 -51 -17.5t-81.5 -18t-100.5 -14t-107 -5.5q-47 0 -78.5 3t-51 12.5t-28 27t-8.5 47.5q0 13 2.5 31t7 38
t10 40.5t11.5 38.5l31 -9q0 -25 6 -39.5t21 -22t39.5 -9.5t62.5 -2q45 0 99.5 5.5t102.5 13.5t80.5 15.5t32.5 12.5q0 30 -13.5 65.5t-35.5 70.5t-50.5 67.5t-59 57.5t-60.5 40t-54 15z" />
    <glyph glyph-name="uni062F.fina" unicode="&#x62f;" horiz-adv-x="874" arabic-form="final" 
d="M734 0q-25 0 -43.5 11.5t-24.5 19.5q-16 19 -26.5 55t-15.5 78h-20q-11 -43 -25 -79t-25 -59q-16 -8 -46 -17t-70.5 -17t-89.5 -13.5t-102 -5.5q-47 0 -78.5 4t-51 14t-28 27t-8.5 44q0 24 5 52t11.5 56t14.5 53.5t14 44.5l33 -9v-73q0 -25 25 -41t88 -16q44 0 88.5 4
t84.5 10.5t72 15t52 17.5q11 26 19 55.5t11 64.5l-59 297l76 143q24 -139 43 -273.5t49 -271.5q9 -20 25 -32t42 -12h100v-147h-140z" />
    <glyph glyph-name="uni0630" unicode="&#x630;" horiz-adv-x="725" arabic-form="isolated" 
d="M340 630q3 14 14.5 22t25.5 8q17 0 37 -14q57 -44 98.5 -97t69.5 -108.5t41.5 -109.5t13.5 -100q0 -32 -5.5 -61.5t-13.5 -55.5t-17.5 -48t-17.5 -38q-16 -8 -51 -17.5t-81.5 -18t-100.5 -14t-107 -5.5q-47 0 -78.5 3t-51 12.5t-28 27t-8.5 47.5q0 13 2.5 31t7 38
t10 40.5t11.5 38.5l31 -9q0 -25 6 -39.5t21 -22t39.5 -9.5t62.5 -2q45 0 99.5 5.5t102.5 13.5t80.5 15.5t32.5 12.5q0 30 -13.5 65.5t-35.5 70.5t-50.5 67.5t-59 57.5t-60.5 40t-54 15zM386 802l-135 82l86 115l135 -84z" />
    <glyph glyph-name="uni0630.fina" unicode="&#x630;" horiz-adv-x="874" arabic-form="final" 
d="M734 0q-25 0 -43.5 11.5t-24.5 19.5q-16 19 -26.5 55t-15.5 78h-20q-11 -43 -25 -79t-25 -59q-16 -8 -46 -17t-70.5 -17t-89.5 -13.5t-102 -5.5q-47 0 -78.5 4t-51 14t-28 27t-8.5 44q0 24 5 52t11.5 56t14.5 53.5t14 44.5l33 -9v-73q0 -25 25 -41t88 -16q44 0 88.5 4
t84.5 10.5t72 15t52 17.5q11 26 19 55.5t11 64.5l-59 297l76 143q24 -139 43 -273.5t49 -271.5q9 -20 25 -32t42 -12h100v-147h-140zM581 852l-135 82l86 115l135 -84z" />
    <glyph glyph-name="uni0631" unicode="&#x631;" horiz-adv-x="695" arabic-form="isolated" 
d="M477 485q31 -30 61 -67t54 -82.5t38.5 -100t14.5 -119.5q0 -52 -15 -106.5t-40.5 -106t-60.5 -97.5t-74.5 -80.5t-82.5 -54.5t-85 -20q-63 0 -138 24.5t-179 80.5l12 30q30 -10 52 -17t40.5 -11.5t36 -6.5t37.5 -2q49 0 101 20t100 52.5t91 72t75 79t50.5 74.5t18.5 57
q0 19 -16.5 47.5t-42 59.5t-57 60t-62.5 50z" />
    <glyph glyph-name="uni0631.fina" unicode="&#x631;" horiz-adv-x="821" arabic-form="final" 
d="M763 0q-28 0 -56.5 7.5t-48.5 30.5l-15 -8q-2 -51 -17.5 -104.5t-41.5 -103.5t-60 -94.5t-73 -77.5t-81 -52.5t-83 -19.5q-63 0 -137.5 24.5t-179.5 80.5l12 30q31 -10 53.5 -17t41.5 -11.5t35.5 -6.5t35.5 -2q49 0 101.5 18.5t101.5 48t93 66.5t77 74.5t52 71t19 55.5
q0 9 -5.5 22.5t-15 30t-21.5 34t-25 35.5q-21 28 -40 56l-38 56l61 143q12 -18 22.5 -36t23.5 -37q19 -29 41.5 -58.5t49 -53.5t56.5 -39.5t63 -15.5h57v-147h-58z" />
    <glyph glyph-name="uni0632" unicode="&#x632;" horiz-adv-x="695" arabic-form="isolated" 
d="M477 485q31 -30 61 -67t54 -82.5t38.5 -100t14.5 -119.5q0 -52 -15 -106.5t-40.5 -106t-60.5 -97.5t-74.5 -80.5t-82.5 -54.5t-85 -20q-63 0 -138 24.5t-179 80.5l12 30q30 -10 52 -17t40.5 -11.5t36 -6.5t37.5 -2q49 0 101 20t100 52.5t91 72t75 79t50.5 74.5t18.5 57
q0 19 -16.5 47.5t-42 59.5t-57 60t-62.5 50zM470 636l-135 82l86 115l135 -84z" />
    <glyph glyph-name="uni0632.fina" unicode="&#x632;" horiz-adv-x="821" arabic-form="final" 
d="M763 0q-28 0 -56.5 7.5t-48.5 30.5l-15 -8q-2 -51 -17.5 -104.5t-41.5 -103.5t-60 -94.5t-73 -77.5t-81 -52.5t-83 -19.5q-63 0 -137.5 24.5t-179.5 80.5l12 30q31 -10 53.5 -17t41.5 -11.5t35.5 -6.5t35.5 -2q49 0 101.5 18.5t101.5 48t93 66.5t77 74.5t52 71t19 55.5
q0 9 -5.5 22.5t-15 30t-21.5 34t-25 35.5q-21 28 -40 56l-38 56l61 143q12 -18 22.5 -36t23.5 -37q19 -29 41.5 -58.5t49 -53.5t56.5 -39.5t63 -15.5h57v-147h-58zM508 536l-135 82l86 115l135 -84z" />
    <glyph glyph-name="uni0633" unicode="&#x633;" horiz-adv-x="1579" arabic-form="isolated" 
d="M1434 439q6 -13 16 -37t20 -53.5t17 -61.5t7 -61q0 -40 -9 -80.5t-35 -85.5q-21 -38 -36 -56.5t-40 -18.5q-8 0 -25 7t-39 18t-46.5 25.5t-47 28.5t-40.5 27.5t-27 22.5q-19 -19 -48 -33t-62.5 -23.5t-69 -15.5t-67.5 -9v-35q0 -27 -5 -59.5t-13.5 -65.5t-20.5 -64.5
t-26 -56.5q-39 -30 -90 -56.5t-109 -46.5t-120.5 -31.5t-123.5 -11.5q-92 0 -152.5 22.5t-96.5 58.5t-50.5 80.5t-14.5 88.5q0 52 9 98t24.5 88t36 80.5t43.5 75.5l30 -12q-27 -69 -41 -122.5t-14 -107.5q0 -48 22 -85t58.5 -61.5t83 -37.5t95.5 -13q46 0 104 9.5
t114.5 26.5t106 40t79.5 50q0 36 -8 78.5t-23.5 86t-38.5 86.5t-53 81l71 164q23 -38 42.5 -74.5t33.5 -72.5q5 -12 9 -24l8 -24q15 -5 52 -5q54 0 106 12.5t90 38.5q18 12 33.5 37t29 54.5t24 59.5t18.5 52l51 -15q-4 -21 -10 -46t-13 -49.5t-15 -48t-16 -42.5
q10 -13 39 -34t61.5 -41t61 -34.5t37.5 -14.5q12 0 12 16q0 6 -1 26t-7 48t-19.5 60t-37.5 61z" />
    <glyph glyph-name="uni0633.init" unicode="&#x633;" horiz-adv-x="1174" arabic-form="initial" 
d="M1029 439q6 -13 16 -37t20 -53.5t17 -61.5t7 -61q0 -40 -8.5 -80.5t-34.5 -85.5q-22 -38 -37 -56.5t-40 -18.5q-8 0 -25 7t-38.5 18t-46 25t-46.5 28.5t-40.5 28t-27.5 22.5q-24 -23 -63 -38.5t-84 -25.5t-90.5 -14.5t-81.5 -4.5q-38 0 -53 14.5t-15 38.5h-7
q-18 -20 -55.5 -35.5t-85.5 -26.5t-103 -16.5t-107 -5.5q-11 0 -23.5 3t-24 8.5t-19 14t-7.5 19.5v57q0 12 7.5 20.5t19 14t24 8t23.5 2.5q17 0 33 0.5t33 1.5q56 3 109 12t96.5 23.5t75.5 33t47 40.5q29 43 51.5 84t42.5 93l51 -18q-14 -52 -35 -103t-41 -84
q-6 -11 -12.5 -21.5t-6.5 -12.5q0 -15 55 -15q27 0 57 3t59 9.5t55.5 16t45.5 22.5q18 12 33.5 36.5t29 53.5t24 59.5t18.5 53.5l51 -15q-4 -21 -10 -46t-13 -49.5t-15 -48t-16 -42.5q10 -13 38.5 -34t61 -41t61 -34.5t37.5 -14.5q5 0 8 4q4 4 4 12q0 6 -1 26t-7 48
t-19.5 60t-37.5 61z" />
    <glyph glyph-name="uni0633.medi" unicode="&#x633;" horiz-adv-x="1224" arabic-form="medial" 
d="M1131 0q-36 0 -72 25t-52 71h-10q-5 -16 -10.5 -33.5t-11 -33t-10 -28t-8.5 -19.5q-19 -33 -35.5 -42.5t-37.5 -9.5q-11 0 -28.5 21t-35.5 50.5t-35 62.5t-28 57q-23 -28 -62.5 -46.5t-86 -30t-94.5 -16.5t-87 -5q-29 0 -48.5 15.5t-19.5 45.5h-4q-19 -19 -56.5 -34.5
t-86 -26.5t-103.5 -17t-109 -6q-11 0 -23.5 3t-24 8.5t-19 14t-7.5 19.5v57q0 12 8 20.5t19 14t24 8t23 2.5q14 0 29 0.5t29 1.5q57 3 110.5 12.5t98 23.5t77.5 33t50 41q27 37 51 80.5t44 95.5l51 -18q-14 -51 -33.5 -98t-42.5 -89q-6 -11 -12.5 -21.5t-6.5 -12.5
q0 -15 55 -15q26 0 56 2t59 6.5t55 13t45 21.5q18 12 34 37.5t29.5 56.5t24.5 62t19 55l51 -15q-7 -35 -18.5 -78t-24.5 -80q7 -19 19 -45.5t24.5 -51t23 -41.5t15.5 -17q6 0 10.5 4.5t7.5 11.5t5.5 14.5t4.5 12.5q9 25 20 59.5t21.5 72t20.5 74t17 64.5l53 -12
q-5 -37 -16 -85.5t-23 -96.5q10 -27 24 -42.5t32.5 -23.5t41 -10.5t48.5 -2.5h45v-147h-93z" />
    <glyph glyph-name="uni0633.fina" unicode="&#x633;" horiz-adv-x="1635" arabic-form="final" 
d="M1544 0q-35 0 -70 24t-57 72h-10q-5 -17 -10.5 -34t-10.5 -32.5t-10 -28t-9 -19.5q-18 -33 -34.5 -42.5t-37.5 -9.5q-11 0 -28.5 21t-35.5 50.5t-35 62.5t-28 57q-20 -23 -50 -39.5t-65.5 -27.5t-74.5 -18t-77 -11q1 -7 1 -13.5v-13.5q0 -25 -5 -57t-13.5 -65.5
t-20.5 -66t-26 -57.5q-38 -29 -89 -55.5t-109 -46.5t-121 -32t-124 -12q-92 0 -152.5 22.5t-96.5 58.5t-50.5 80.5t-14.5 88.5q0 52 9 98t24.5 88t36 80.5t43.5 75.5l30 -12q-27 -69 -41 -122.5t-14 -107.5q0 -48 22 -85t58.5 -61.5t83 -37.5t95.5 -13q46 0 104 9.5
t114.5 26.5t106 40t79.5 50q0 36 -8 78.5t-23.5 86t-38.5 86.5t-53 81l71 164q32 -51 55.5 -99.5t38.5 -97.5q13 -3 38 -3q26 0 56 2t59 6.5t55 13t45 21.5q18 12 34 37.5t29.5 56.5t24.5 62t19 55l51 -15q-7 -35 -18.5 -78t-24.5 -80q7 -19 19 -45.5t24.5 -51t23 -41.5
t15.5 -17q7 0 10.5 4.5t6.5 11.5q4 8 7.5 18t8.5 23q9 26 19 59.5t20 68.5t19 68.5t16 59.5l53 -12q-5 -37 -16 -85.5t-23 -96.5q10 -27 24.5 -42.5t33.5 -23.5t41.5 -10.5t48.5 -2.5h43v-147h-91z" />
    <glyph glyph-name="uni0634" unicode="&#x634;" horiz-adv-x="1579" arabic-form="isolated" 
d="M1434 439q6 -13 16 -37t20 -53.5t17 -61.5t7 -61q0 -40 -9 -80.5t-35 -85.5q-21 -38 -36 -56.5t-40 -18.5q-8 0 -25 7t-39 18t-46.5 25.5t-47 28.5t-40.5 27.5t-27 22.5q-19 -19 -48 -33t-62.5 -23.5t-69 -15.5t-67.5 -9v-35q0 -27 -5 -59.5t-13.5 -65.5t-20.5 -64.5
t-26 -56.5q-39 -30 -90 -56.5t-109 -46.5t-120.5 -31.5t-123.5 -11.5q-92 0 -152.5 22.5t-96.5 58.5t-50.5 80.5t-14.5 88.5q0 52 9 98t24.5 88t36 80.5t43.5 75.5l30 -12q-27 -69 -41 -122.5t-14 -107.5q0 -48 22 -85t58.5 -61.5t83 -37.5t95.5 -13q46 0 104 9.5
t114.5 26.5t106 40t79.5 50q0 36 -8 78.5t-23.5 86t-38.5 86.5t-53 81l71 164q23 -38 42.5 -74.5t33.5 -72.5q5 -12 9 -24l8 -24q15 -5 52 -5q54 0 106 12.5t90 38.5q18 12 33.5 37t29 54.5t24 59.5t18.5 52l51 -15q-4 -21 -10 -46t-13 -49.5t-15 -48t-16 -42.5
q10 -13 39 -34t61.5 -41t61 -34.5t37.5 -14.5q12 0 12 16q0 6 -1 26t-7 48t-19.5 60t-37.5 61zM1126 788l-130 79l83 111l130 -81zM1234 614l-121 72l-55 -72l-127 75l86 115l120 -74l56 74l127 -78z" />
    <glyph glyph-name="uni0634.init" unicode="&#x634;" horiz-adv-x="1174" arabic-form="initial" 
d="M1029 439q6 -13 16 -37t20 -53.5t17 -61.5t7 -61q0 -40 -8.5 -80.5t-34.5 -85.5q-22 -38 -37 -56.5t-40 -18.5q-8 0 -25 7t-38.5 18t-46 25t-46.5 28.5t-40.5 28t-27.5 22.5q-24 -23 -63 -38.5t-84 -25.5t-90.5 -14.5t-81.5 -4.5q-38 0 -53 14.5t-15 38.5h-7
q-18 -20 -55.5 -35.5t-85.5 -26.5t-103 -16.5t-107 -5.5q-11 0 -23.5 3t-24 8.5t-19 14t-7.5 19.5v57q0 12 7.5 20.5t19 14t24 8t23.5 2.5q17 0 33 0.5t33 1.5q56 3 109 12t96.5 23.5t75.5 33t47 40.5q29 43 51.5 84t42.5 93l51 -18q-14 -52 -35 -103t-41 -84
q-6 -11 -12.5 -21.5t-6.5 -12.5q0 -15 55 -15q27 0 57 3t59 9.5t55.5 16t45.5 22.5q18 12 33.5 36.5t29 53.5t24 59.5t18.5 53.5l51 -15q-4 -21 -10 -46t-13 -49.5t-15 -48t-16 -42.5q10 -13 38.5 -34t61 -41t61 -34.5t37.5 -14.5q5 0 8 4q4 4 4 12q0 6 -1 26t-7 48
t-19.5 60t-37.5 61zM746 788l-130 79l83 111l130 -81zM854 614l-121 72l-55 -72l-127 75l86 115l120 -74l56 74l127 -78z" />
    <glyph glyph-name="uni0634.medi" unicode="&#x634;" horiz-adv-x="1224" arabic-form="medial" 
d="M1131 0q-36 0 -72 25t-52 71h-10q-5 -16 -10.5 -33.5t-11 -33t-10 -28t-8.5 -19.5q-19 -33 -35.5 -42.5t-37.5 -9.5q-11 0 -28.5 21t-35.5 50.5t-35 62.5t-28 57q-23 -28 -62.5 -46.5t-86 -30t-94.5 -16.5t-87 -5q-29 0 -48.5 15.5t-19.5 45.5h-4q-19 -19 -56.5 -34.5
t-86 -26.5t-103.5 -17t-109 -6q-11 0 -23.5 3t-24 8.5t-19 14t-7.5 19.5v57q0 12 8 20.5t19 14t24 8t23 2.5q14 0 29 0.5t29 1.5q57 3 110.5 12.5t98 23.5t77.5 33t50 41q27 37 51 80.5t44 95.5l51 -18q-14 -51 -33.5 -98t-42.5 -89q-6 -11 -12.5 -21.5t-6.5 -12.5
q0 -15 55 -15q26 0 56 2t59 6.5t55 13t45 21.5q18 12 34 37.5t29.5 56.5t24.5 62t19 55l51 -15q-7 -35 -18.5 -78t-24.5 -80q7 -19 19 -45.5t24.5 -51t23 -41.5t15.5 -17q6 0 10.5 4.5t7.5 11.5t5.5 14.5t4.5 12.5q9 25 20 59.5t21.5 72t20.5 74t17 64.5l53 -12
q-5 -37 -16 -85.5t-23 -96.5q10 -27 24 -42.5t32.5 -23.5t41 -10.5t48.5 -2.5h45v-147h-93zM746 788l-130 79l83 111l130 -81zM854 614l-121 72l-55 -72l-127 75l86 115l120 -74l56 74l127 -78z" />
    <glyph glyph-name="uni0634.fina" unicode="&#x634;" horiz-adv-x="1635" arabic-form="final" 
d="M1544 0q-35 0 -70 24t-57 72h-10q-5 -17 -10.5 -34t-10.5 -32.5t-10 -28t-9 -19.5q-18 -33 -34.5 -42.5t-37.5 -9.5q-11 0 -28.5 21t-35.5 50.5t-35 62.5t-28 57q-20 -23 -50 -39.5t-65.5 -27.5t-74.5 -18t-77 -11q1 -7 1 -13.5v-13.5q0 -25 -5 -57t-13.5 -65.5
t-20.5 -66t-26 -57.5q-38 -29 -89 -55.5t-109 -46.5t-121 -32t-124 -12q-92 0 -152.5 22.5t-96.5 58.5t-50.5 80.5t-14.5 88.5q0 52 9 98t24.5 88t36 80.5t43.5 75.5l30 -12q-27 -69 -41 -122.5t-14 -107.5q0 -48 22 -85t58.5 -61.5t83 -37.5t95.5 -13q46 0 104 9.5
t114.5 26.5t106 40t79.5 50q0 36 -8 78.5t-23.5 86t-38.5 86.5t-53 81l71 164q32 -51 55.5 -99.5t38.5 -97.5q13 -3 38 -3q26 0 56 2t59 6.5t55 13t45 21.5q18 12 34 37.5t29.5 56.5t24.5 62t19 55l51 -15q-7 -35 -18.5 -78t-24.5 -80q7 -19 19 -45.5t24.5 -51t23 -41.5
t15.5 -17q7 0 10.5 4.5t6.5 11.5q4 8 7.5 18t8.5 23q9 26 19 59.5t20 68.5t19 68.5t16 59.5l53 -12q-5 -37 -16 -85.5t-23 -96.5q10 -27 24.5 -42.5t33.5 -23.5t41.5 -10.5t48.5 -2.5h43v-147h-91zM1156 788l-130 79l83 111l130 -81zM1264 614l-121 72l-55 -72l-127 75
l86 115l120 -74l56 74l127 -78z" />
    <glyph glyph-name="uni0635" unicode="&#x635;" horiz-adv-x="1862" arabic-form="isolated" 
d="M1650 147q11 7 21 15t10 14q0 13 -18 41.5t-49 57.5t-72.5 51t-89.5 22q-41 0 -91 -20t-101.5 -50.5t-99.5 -65.5t-85 -65h575zM902 0v-9q0 -26 -5 -56.5t-14 -62.5t-20.5 -63t-24.5 -58q-39 -29 -90.5 -55t-109.5 -46t-120.5 -32t-123.5 -12q-92 0 -152.5 22.5
t-96.5 58.5t-50.5 80.5t-14.5 88.5q0 52 9 98t24.5 88t36 80.5t43.5 75.5l30 -12q-27 -69 -41 -122.5t-14 -107.5q0 -48 22 -85t58.5 -61.5t83 -37.5t95.5 -13q46 0 104 9.5t114.5 26.5t106 40t79.5 50q0 36 -8 78.5t-23.5 86t-38.5 86.5t-53 81l71 164q24 -38 45 -81.5
t35 -80.5q11 -31 27.5 -50.5t44.5 -21.5h7q41 34 89 72t99.5 75t106 71.5t108.5 60.5t105.5 41.5t97.5 15.5q19 0 43.5 -10t50.5 -26t51 -37.5t44.5 -45t31.5 -46.5t12 -44q0 -34 -12.5 -71.5t-31 -74t-40 -70t-39.5 -58.5h-752z" />
    <glyph glyph-name="uni0635.init" unicode="&#x635;" horiz-adv-x="1380" arabic-form="initial" 
d="M1168 147q11 7 21 15t10 14q0 13 -18 41.5t-49 57.5t-72.5 51t-89.5 22q-41 0 -91 -19.5t-101 -49.5t-99.5 -65.5t-85.5 -66.5h575zM434 0q-42 -42 -67 -90t-47 -105l-51 18q14 48 33 94t39 83h-104q-29 0 -44.5 13t-20.5 26q-17 -9 -32.5 -16t-35 -12.5t-44.5 -8
t-60 -2.5q-11 0 -23.5 3t-24 8.5t-19 14t-7.5 19.5v57q5 24 25 33.5t49 11.5q51 0 97 8t84.5 22.5t68.5 35t48 46.5q24 35 41.5 74t28.5 67l51 -18q-8 -35 -23.5 -79t-33.5 -76q-14 -26 -27 -44.5t-28 -35.5h149q61 51 137 109.5t157 109t162 84t150 33.5q19 0 43.5 -10
t50.5 -26t51 -37.5t44.5 -45t31.5 -46.5t12 -44q0 -34 -12.5 -71.5t-31 -74t-40 -70t-39.5 -58.5h-738z" />
    <glyph glyph-name="uni0635.medi" unicode="&#x635;" horiz-adv-x="1461" arabic-form="medial" 
d="M1168 147q11 7 21 15t10 14q0 13 -18 41.5t-49 57.5t-72.5 51t-89.5 22q-41 0 -91 -19.5t-101 -49.5t-99.5 -65.5t-85.5 -66.5h575zM434 0q-42 -42 -67 -90t-47 -105l-51 18q14 48 33 94t39 83h-104q-29 0 -44.5 13t-20.5 26q-17 -9 -32.5 -16t-35 -12.5t-44.5 -8
t-60 -2.5q-11 0 -23.5 3t-24 8.5t-19 14t-7.5 19.5v57q5 24 25 33.5t49 11.5q51 0 97 8t84.5 22.5t68.5 35t48 46.5q24 35 41.5 74t28.5 67l51 -18q-4 -17 -10 -37.5t-13.5 -41.5t-16 -40.5t-17.5 -35.5q-14 -26 -27 -44.5t-28 -35.5h149q61 51 137 109.5t157 109t162 84
t150 33.5q19 0 43.5 -10t50.5 -26t51 -37.5t44.5 -45t31.5 -46.5t12 -44q0 -29 -9.5 -62t-24.5 -65h200v-147h-1027z" />
    <glyph glyph-name="uni0635.fina" unicode="&#x635;" horiz-adv-x="1943" arabic-form="final" 
d="M1650 147q11 7 21 15t10 14q0 13 -18 41.5t-49 57.5t-72.5 51t-89.5 22q-41 0 -91 -20t-101.5 -50.5t-99.5 -65.5t-85 -65h575zM902 0v-6q0 -28 -5.5 -60t-14.5 -64t-21 -63t-25 -57q-41 -28 -92 -54t-108 -46t-118.5 -32t-123.5 -12q-92 0 -152.5 22.5t-96.5 58.5
t-50.5 80.5t-14.5 88.5q0 52 9 98t24.5 88t36 80.5t43.5 75.5l30 -12q-27 -69 -41 -122.5t-14 -107.5q0 -48 22 -85t58.5 -61.5t83 -37.5t95.5 -13q46 0 104 9.5t114.5 26.5t106 40t79.5 50q0 36 -8 78.5t-23.5 86t-38.5 86.5t-53 81l71 164q48 -73 76 -149q6 -15 13 -30
t16.5 -27t21 -19.5t25.5 -8.5h7q41 34 89 72t99.5 75t106 71.5t108.5 60.5t105.5 41.5t97.5 15.5q19 0 43.5 -10t50.5 -26t51 -37.5t44.5 -45t31.5 -46.5t12 -44q0 -30 -10 -62.5t-25 -64.5h201v-147h-1041z" />
    <glyph glyph-name="uni0636" unicode="&#x636;" horiz-adv-x="1862" arabic-form="isolated" 
d="M1650 147q11 7 21 15t10 14q0 13 -18 41.5t-49 57.5t-72.5 51t-89.5 22q-41 0 -91 -20t-101.5 -50.5t-99.5 -65.5t-85 -65h575zM902 0v-9q0 -26 -5 -56.5t-14 -62.5t-20.5 -63t-24.5 -58q-39 -29 -90.5 -55t-109.5 -46t-120.5 -32t-123.5 -12q-92 0 -152.5 22.5
t-96.5 58.5t-50.5 80.5t-14.5 88.5q0 52 9 98t24.5 88t36 80.5t43.5 75.5l30 -12q-27 -69 -41 -122.5t-14 -107.5q0 -48 22 -85t58.5 -61.5t83 -37.5t95.5 -13q46 0 104 9.5t114.5 26.5t106 40t79.5 50q0 36 -8 78.5t-23.5 86t-38.5 86.5t-53 81l71 164q24 -38 45 -81.5
t35 -80.5q11 -31 27.5 -50.5t44.5 -21.5h7q41 34 89 72t99.5 75t106 71.5t108.5 60.5t105.5 41.5t97.5 15.5q19 0 43.5 -10t50.5 -26t51 -37.5t44.5 -45t31.5 -46.5t12 -44q0 -34 -12.5 -71.5t-31 -74t-40 -70t-39.5 -58.5h-752zM1301 602l-135 82l86 115l135 -84z" />
    <glyph glyph-name="uni0636.init" unicode="&#x636;" horiz-adv-x="1380" arabic-form="initial" 
d="M1168 147q11 7 21 15t10 14q0 13 -18 41.5t-49 57.5t-72.5 51t-89.5 22q-41 0 -91 -19.5t-101 -49.5t-99.5 -65.5t-85.5 -66.5h575zM434 0q-42 -42 -67 -90t-47 -105l-51 18q14 48 33 94t39 83h-104q-29 0 -44.5 13t-20.5 26q-17 -9 -32.5 -16t-35 -12.5t-44.5 -8
t-60 -2.5q-11 0 -23.5 3t-24 8.5t-19 14t-7.5 19.5v57q5 24 25 33.5t49 11.5q51 0 97 8t84.5 22.5t68.5 35t48 46.5q24 35 41.5 74t28.5 67l51 -18q-8 -35 -23.5 -79t-33.5 -76q-14 -26 -27 -44.5t-28 -35.5h149q61 51 137 109.5t157 109t162 84t150 33.5q19 0 43.5 -10
t50.5 -26t51 -37.5t44.5 -45t31.5 -46.5t12 -44q0 -34 -12.5 -71.5t-31 -74t-40 -70t-39.5 -58.5h-738zM831 602l-135 82l86 115l135 -84z" />
    <glyph glyph-name="uni0636.medi" unicode="&#x636;" horiz-adv-x="1461" arabic-form="medial" 
d="M1168 147q11 7 21 15t10 14q0 13 -18 41.5t-49 57.5t-72.5 51t-89.5 22q-41 0 -91 -19.5t-101 -49.5t-99.5 -65.5t-85.5 -66.5h575zM434 0q-42 -42 -67 -90t-47 -105l-51 18q14 48 33 94t39 83h-104q-29 0 -44.5 13t-20.5 26q-17 -9 -32.5 -16t-35 -12.5t-44.5 -8
t-60 -2.5q-11 0 -23.5 3t-24 8.5t-19 14t-7.5 19.5v57q5 24 25 33.5t49 11.5q51 0 97 8t84.5 22.5t68.5 35t48 46.5q24 35 41.5 74t28.5 67l51 -18q-4 -17 -10 -37.5t-13.5 -41.5t-16 -40.5t-17.5 -35.5q-14 -26 -27 -44.5t-28 -35.5h149q61 51 137 109.5t157 109t162 84
t150 33.5q19 0 43.5 -10t50.5 -26t51 -37.5t44.5 -45t31.5 -46.5t12 -44q0 -29 -9.5 -62t-24.5 -65h200v-147h-1027zM831 602l-135 82l86 115l135 -84z" />
    <glyph glyph-name="uni0636.fina" unicode="&#x636;" horiz-adv-x="1943" arabic-form="final" 
d="M1650 147q11 7 21 15t10 14q0 13 -18 41.5t-49 57.5t-72.5 51t-89.5 22q-41 0 -91 -20t-101.5 -50.5t-99.5 -65.5t-85 -65h575zM902 0v-6q0 -28 -5.5 -60t-14.5 -64t-21 -63t-25 -57q-41 -28 -92 -54t-108 -46t-118.5 -32t-123.5 -12q-92 0 -152.5 22.5t-96.5 58.5
t-50.5 80.5t-14.5 88.5q0 52 9 98t24.5 88t36 80.5t43.5 75.5l30 -12q-27 -69 -41 -122.5t-14 -107.5q0 -48 22 -85t58.5 -61.5t83 -37.5t95.5 -13q46 0 104 9.5t114.5 26.5t106 40t79.5 50q0 36 -8 78.5t-23.5 86t-38.5 86.5t-53 81l71 164q48 -73 76 -149q6 -15 13 -30
t16.5 -27t21 -19.5t25.5 -8.5h7q41 34 89 72t99.5 75t106 71.5t108.5 60.5t105.5 41.5t97.5 15.5q19 0 43.5 -10t50.5 -26t51 -37.5t44.5 -45t31.5 -46.5t12 -44q0 -30 -10 -62.5t-25 -64.5h201v-147h-1041zM1301 602l-135 82l86 115l135 -84z" />
    <glyph glyph-name="uni0637" unicode="&#x637;" horiz-adv-x="1361" arabic-form="isolated" 
d="M1149 147q11 7 21 15t10 14q0 13 -18 41.5t-49 57.5t-72.5 51t-89.5 22q-41 0 -91 -20t-101.5 -50.5t-99.5 -65.5t-85 -65h575zM324 0q-36 0 -75.5 12.5t-77.5 30t-72 37.5t-59 35l9 32h388l59 40v83l-63 672q-23 24 -31 38.5t-8 27.5l104 135h10q1 -20 5 -35.5
t18.5 -33.5t43 -42.5t79.5 -60.5l-104 -129l24 -508q-1 -25 -3.5 -49.5t-7.5 -48.5q57 42 119 86t124.5 79.5t122.5 58.5t114 23q19 0 43.5 -10t50.5 -26t51 -37.5t44.5 -45t31.5 -46.5t12 -44q0 -34 -12.5 -71.5t-31 -74t-40 -70t-39.5 -58.5h-829z" />
    <glyph glyph-name="uni0637.init" unicode="&#x637;" horiz-adv-x="1008" arabic-form="initial" 
d="M796 147q11 7 21 15t10 14q0 13 -18 41.5t-49 57.5t-72.5 51t-89.5 22q-41 0 -91 -20t-101.5 -50.5t-99.5 -65.5t-85 -65h575zM0 0q-9 0 -21.5 2.5t-24 8t-20 14t-8.5 20.5v57q0 12 8.5 21t20 14t24 7.5t21.5 2.5h84l59 40v83l-63 672q-23 24 -31 38.5t-8 27.5l104 135
h10q1 -20 5 -35.5t18.5 -33.5t43 -42.5t79.5 -60.5l-104 -129l24 -508q-1 -25 -3.5 -49.5t-7.5 -48.5q57 42 119 86t124.5 79.5t122.5 58.5t114 23q19 0 43.5 -10t50.5 -26t51 -37.5t44.5 -45t31.5 -46.5t12 -44q0 -34 -12.5 -71.5t-31 -74t-40 -70t-39.5 -58.5h-800z" />
    <glyph glyph-name="uni0637.medi" unicode="&#x637;" horiz-adv-x="1089" arabic-form="medial" 
d="M796 147q11 7 21 15t10 14q0 13 -18 41.5t-49 57.5t-72.5 51t-89.5 22q-41 0 -91 -20t-101.5 -50.5t-99.5 -65.5t-85 -65h575zM0 0q-9 0 -21.5 2.5t-24 8t-20 14t-8.5 20.5v57q0 12 8.5 21t20 14t24 7.5t21.5 2.5h84l59 40v83l-63 672q-23 24 -31 38.5t-8 27.5l104 135
h10q1 -20 5 -35.5t18.5 -33.5t43 -42.5t79.5 -60.5l-104 -129l24 -508q-1 -25 -3.5 -49.5t-7.5 -48.5q57 42 119 86t124.5 79.5t122.5 58.5t114 23q19 0 43.5 -10t50.5 -26t51 -37.5t44.5 -45t31.5 -46.5t12 -44q0 -30 -9.5 -62t-25.5 -65h201v-147h-1089z" />
    <glyph glyph-name="uni0637.fina" unicode="&#x637;" horiz-adv-x="1442" arabic-form="final" 
d="M1149 147q11 7 21 15t10 14q0 13 -18 41.5t-49 57.5t-72.5 51t-89.5 22q-41 0 -91 -20t-101.5 -50.5t-99.5 -65.5t-85 -65h575zM324 0q-35 0 -74.5 12.5t-77.5 30t-72.5 37.5t-59.5 35l9 32h388l59 40v83l-63 672q-23 24 -31 38.5t-8 27.5l104 135h10q1 -20 5 -35.5
t18.5 -33.5t43 -42.5t79.5 -60.5l-104 -129l24 -508q-1 -25 -3.5 -49.5t-7.5 -48.5q57 42 119 86t124.5 79.5t122.5 58.5t114 23q19 0 43.5 -10t50.5 -26t51 -37.5t44.5 -45t31.5 -46.5t12 -44q0 -30 -10 -62.5t-25 -64.5h201v-147h-1118z" />
    <glyph glyph-name="uni0638" unicode="&#x638;" horiz-adv-x="1361" arabic-form="isolated" 
d="M1149 147q11 7 21 15t10 14q0 13 -18 41.5t-49 57.5t-72.5 51t-89.5 22q-41 0 -91 -20t-101.5 -50.5t-99.5 -65.5t-85 -65h575zM324 0q-36 0 -75.5 12.5t-77.5 30t-72 37.5t-59 35l9 32h388l59 40v83l-63 672q-23 24 -31 38.5t-8 27.5l104 135h10q1 -20 5 -35.5
t18.5 -33.5t43 -42.5t79.5 -60.5l-104 -129l24 -508q-1 -25 -3.5 -49.5t-7.5 -48.5q57 42 119 86t124.5 79.5t122.5 58.5t114 23q19 0 43.5 -10t50.5 -26t51 -37.5t44.5 -45t31.5 -46.5t12 -44q0 -34 -12.5 -71.5t-31 -74t-40 -70t-39.5 -58.5h-829zM931 602l-135 82l86 115
l135 -84z" />
    <glyph glyph-name="uni0638.init" unicode="&#x638;" horiz-adv-x="1008" arabic-form="initial" 
d="M796 147q11 7 21 15t10 14q0 13 -18 41.5t-49 57.5t-72.5 51t-89.5 22q-41 0 -91 -20t-101.5 -50.5t-99.5 -65.5t-85 -65h575zM0 0q-9 0 -21.5 2.5t-24 8t-20 14t-8.5 20.5v57q0 12 8.5 21t20 14t24 7.5t21.5 2.5h84l59 40v83l-63 672q-23 24 -31 38.5t-8 27.5l104 135
h10q1 -20 5 -35.5t18.5 -33.5t43 -42.5t79.5 -60.5l-104 -129l24 -508q-1 -25 -3.5 -49.5t-7.5 -48.5q57 42 119 86t124.5 79.5t122.5 58.5t114 23q19 0 43.5 -10t50.5 -26t51 -37.5t44.5 -45t31.5 -46.5t12 -44q0 -34 -12.5 -71.5t-31 -74t-40 -70t-39.5 -58.5h-800z
M581 602l-135 82l86 115l135 -84z" />
    <glyph glyph-name="uni0638.medi" unicode="&#x638;" horiz-adv-x="1089" arabic-form="medial" 
d="M796 147q11 7 21 15t10 14q0 13 -18 41.5t-49 57.5t-72.5 51t-89.5 22q-41 0 -91 -20t-101.5 -50.5t-99.5 -65.5t-85 -65h575zM0 0q-9 0 -21.5 2.5t-24 8t-20 14t-8.5 20.5v57q0 12 8.5 21t20 14t24 7.5t21.5 2.5h84l59 40v83l-63 672q-23 24 -31 38.5t-8 27.5l104 135
h10q1 -20 5 -35.5t18.5 -33.5t43 -42.5t79.5 -60.5l-104 -129l24 -508q-1 -25 -3.5 -49.5t-7.5 -48.5q57 42 119 86t124.5 79.5t122.5 58.5t114 23q19 0 43.5 -10t50.5 -26t51 -37.5t44.5 -45t31.5 -46.5t12 -44q0 -30 -9.5 -62t-25.5 -65h201v-147h-1089zM631 602l-135 82
l86 115l135 -84z" />
    <glyph glyph-name="uni0638.fina" unicode="&#x638;" horiz-adv-x="1442" arabic-form="final" 
d="M1149 147q11 7 21 15t10 14q0 13 -18 41.5t-49 57.5t-72.5 51t-89.5 22q-41 0 -91 -20t-101.5 -50.5t-99.5 -65.5t-85 -65h575zM324 0q-35 0 -74.5 12.5t-77.5 30t-72.5 37.5t-59.5 35l9 32h388l59 40v83l-63 672q-23 24 -31 38.5t-8 27.5l104 135h10q1 -20 5 -35.5
t18.5 -33.5t43 -42.5t79.5 -60.5l-104 -129l24 -508q-1 -25 -3.5 -49.5t-7.5 -48.5q57 42 119 86t124.5 79.5t122.5 58.5t114 23q19 0 43.5 -10t50.5 -26t51 -37.5t44.5 -45t31.5 -46.5t12 -44q0 -30 -10 -62.5t-25 -64.5h201v-147h-1118zM981 602l-135 82l86 115l135 -84z
" />
    <glyph glyph-name="uni0639" unicode="&#x639;" horiz-adv-x="887" arabic-form="isolated" 
d="M631 298q-87 -40 -174.5 -90t-158 -112.5t-115 -139.5t-44.5 -171q0 -90 53 -142.5t153.5 -79.5t245.5 -34.5t329 -7.5l7 -33q-56 -21 -110.5 -41.5t-105.5 -36.5t-97.5 -25.5t-85.5 -9.5q-140 0 -226.5 35t-134 89.5t-63.5 119.5t-16 125q0 96 21.5 171.5t52 132
t62.5 95t53 60.5q-28 12 -63 35.5t-66 53t-52.5 63t-21.5 66.5q0 51 21.5 108t56.5 104.5t78.5 79t88.5 31.5q39 0 73.5 -11.5t63 -30t52.5 -41.5t42 -45l-13 -12q-26 14 -59 27t-70 13q-19 0 -52 -6t-70 -18t-74 -30.5t-64 -43.5q0 -19 13.5 -41.5t35 -45.5t48.5 -44.5
t55 -38t53.5 -26.5t43.5 -10q32 0 68 14l238 108z" />
    <glyph glyph-name="uni0639.init" unicode="&#x639;" horiz-adv-x="878" arabic-form="initial" 
d="M748 78q-30 -6 -79 -14t-107.5 -16.5t-122.5 -17t-123 -16.5q-35 -5 -77 -7.5t-85 -4t-83 -2t-71 -0.5q-11 0 -23.5 3t-24 8.5t-19 14t-7.5 19.5v57q0 12 7.5 20.5t19 14t24 8t23.5 2.5q30 0 64.5 0.5t67 2t60.5 4t46 6.5q-9 13 -19 29.5t-18.5 35.5t-14.5 39.5t-6 41.5
q0 43 24 95t63 97.5t87.5 76t96.5 30.5q41 0 75.5 -16t62.5 -39.5t49.5 -51.5t36.5 -52l-16 -11q-29 25 -62 38t-71 13q-25 0 -58 -4.5t-68 -13.5t-68 -23.5t-58 -35.5q10 -42 35.5 -80.5t57 -68.5t64.5 -49.5t57 -24.5q5 0 28 2.5t56 6.5t71 9t72.5 9t61 7.5t36.5 4.5z" />
    <glyph glyph-name="uni0639.medi" unicode="&#x639;" horiz-adv-x="795" arabic-form="medial" 
d="M653 0q-42 0 -75 2.5t-60.5 13t-52 31t-49.5 55.5q-29 -23 -67.5 -41.5t-83.5 -32t-93 -21t-96 -7.5h-76q-11 0 -23.5 3t-24 8.5t-19 14t-7.5 19.5v57q0 12 8 21t19.5 14t24.5 7.5t22 2.5h107q30 0 64 5.5t67 15t62 22.5t50 29q-9 11 -21.5 27t-28.5 31t-34.5 25.5
t-40.5 10.5q-21 0 -47 -10l-22 10l84 193q23 14 52.5 24.5t74.5 10.5q29 0 72.5 -16.5t84.5 -44t70 -62t29 -70.5q0 -21 -6 -45t-18 -46.5t-31 -41.5t-44 -31q10 -14 31 -21.5t46 -11t49.5 -4t41.5 -0.5h103v-147h-142z" />
    <glyph glyph-name="uni0639.fina" unicode="&#x639;" horiz-adv-x="792" arabic-form="final" 
d="M631 0q-37 0 -69.5 2t-62 12t-55.5 30.5t-50 57.5l-18 31q-52 -36 -96.5 -77.5t-77.5 -88.5t-51.5 -100t-18.5 -111q0 -90 49 -140.5t143 -75t230.5 -30.5t310.5 -6l7 -33q-37 -15 -87 -34.5t-101.5 -36.5t-100 -29t-83.5 -12q-89 0 -154.5 15.5t-112.5 41.5t-76.5 61
t-46.5 75t-23.5 81.5t-6.5 81.5q0 96 22 171.5t52 132.5t62 95.5t53 59.5q11 12 24 25t29 27q-9 12 -21 27t-27 28.5t-33 22.5t-38 9q-21 0 -47 -10l-22 10q8 22 18 48t21 51.5t22.5 49.5t22.5 44q23 14 52.5 24.5t74.5 10.5q29 0 72.5 -16.5t84.5 -44t70 -62t29 -70.5
q0 -21 -6 -45t-18 -46.5t-31 -41.5t-44 -31q10 -14 31 -21.5t46 -11t49.5 -4t41.5 -0.5h122v-147h-161z" />
    <glyph glyph-name="uni063A" unicode="&#x63a;" horiz-adv-x="887" arabic-form="isolated" 
d="M631 298q-87 -40 -174.5 -90t-158 -112.5t-115 -139.5t-44.5 -171q0 -90 53 -142.5t153.5 -79.5t245.5 -34.5t329 -7.5l7 -33q-56 -21 -110.5 -41.5t-105.5 -36.5t-97.5 -25.5t-85.5 -9.5q-140 0 -226.5 35t-134 89.5t-63.5 119.5t-16 125q0 96 21.5 171.5t52 132
t62.5 95t53 60.5q-28 12 -63 35.5t-66 53t-52.5 63t-21.5 66.5q0 51 21.5 108t56.5 104.5t78.5 79t88.5 31.5q39 0 73.5 -11.5t63 -30t52.5 -41.5t42 -45l-13 -12q-26 14 -59 27t-70 13q-19 0 -52 -6t-70 -18t-74 -30.5t-64 -43.5q0 -19 13.5 -41.5t35 -45.5t48.5 -44.5
t55 -38t53.5 -26.5t43.5 -10q32 0 68 14l238 108zM301 855l-135 82l86 115l135 -84z" />
    <glyph glyph-name="uni063A.init" unicode="&#x63a;" horiz-adv-x="878" arabic-form="initial" 
d="M748 78q-30 -6 -79 -14t-107.5 -16.5t-122.5 -17t-123 -16.5q-35 -5 -77 -7.5t-85 -4t-83 -2t-71 -0.5q-11 0 -23.5 3t-24 8.5t-19 14t-7.5 19.5v57q0 12 7.5 20.5t19 14t24 8t23.5 2.5q30 0 64.5 0.5t67 2t60.5 4t46 6.5q-9 13 -19 29.5t-18.5 35.5t-14.5 39.5t-6 41.5
q0 43 24 95t63 97.5t87.5 76t96.5 30.5q41 0 75.5 -16t62.5 -39.5t49.5 -51.5t36.5 -52l-16 -11q-29 25 -62 38t-71 13q-25 0 -58 -4.5t-68 -13.5t-68 -23.5t-58 -35.5q10 -42 35.5 -80.5t57 -68.5t64.5 -49.5t57 -24.5q5 0 28 2.5t56 6.5t71 9t72.5 9t61 7.5t36.5 4.5z
M431 711l-135 82l86 115l135 -84z" />
    <glyph glyph-name="uni063A.medi" unicode="&#x63a;" horiz-adv-x="795" arabic-form="medial" 
d="M653 0q-42 0 -75 2.5t-60.5 13t-52 31t-49.5 55.5q-29 -23 -67.5 -41.5t-83.5 -32t-93 -21t-96 -7.5h-76q-11 0 -23.5 3t-24 8.5t-19 14t-7.5 19.5v57q0 12 8 21t19.5 14t24.5 7.5t22 2.5h107q30 0 64 5.5t67 15t62 22.5t50 29q-9 11 -21.5 27t-28.5 31t-34.5 25.5
t-40.5 10.5q-21 0 -47 -10l-22 10l84 193q23 14 52.5 24.5t74.5 10.5q29 0 72.5 -16.5t84.5 -44t70 -62t29 -70.5q0 -21 -6 -45t-18 -46.5t-31 -41.5t-44 -31q10 -14 31 -21.5t46 -11t49.5 -4t41.5 -0.5h103v-147h-142zM411 672l-135 82l86 115l135 -84z" />
    <glyph glyph-name="uni063A.fina" unicode="&#x63a;" horiz-adv-x="792" arabic-form="final" 
d="M631 0q-37 0 -69.5 2t-62 12t-55.5 30.5t-50 57.5l-18 31q-52 -36 -96.5 -77.5t-77.5 -88.5t-51.5 -100t-18.5 -111q0 -90 49 -140.5t143 -75t230.5 -30.5t310.5 -6l7 -33q-37 -15 -87 -34.5t-101.5 -36.5t-100 -29t-83.5 -12q-89 0 -154.5 15.5t-112.5 41.5t-76.5 61
t-46.5 75t-23.5 81.5t-6.5 81.5q0 96 22 171.5t52 132.5t62 95.5t53 59.5q11 12 24 25t29 27q-9 12 -21 27t-27 28.5t-33 22.5t-38 9q-21 0 -47 -10l-22 10q8 22 18 48t21 51.5t22.5 49.5t22.5 44q23 14 52.5 24.5t74.5 10.5q29 0 72.5 -16.5t84.5 -44t70 -62t29 -70.5
q0 -21 -6 -45t-18 -46.5t-31 -41.5t-44 -31q10 -14 31 -21.5t46 -11t49.5 -4t41.5 -0.5h122v-147h-161zM411 672l-135 82l86 115l135 -84z" />
    <glyph glyph-name="uni0641" unicode="&#x641;" horiz-adv-x="1418" arabic-form="isolated" 
d="M1066 555q-20 0 -39 -14t-33.5 -33t-23.5 -38.5t-9 -29.5q18 -22 66 -38.5t108 -16.5q8 0 19 1t22 3t21 4.5t15 5.5q-10 30 -26.5 58t-36.5 50t-41.5 35t-41.5 13zM296 0q-56 0 -96.5 19t-67 47t-39.5 60.5t-13 59.5q0 66 16 128t58 128l30 -12q-35 -94 -35 -154
q0 -18 8.5 -40t31 -42t61 -33.5t99.5 -13.5h894q3 17 4.5 37.5t1.5 34.5q0 31 -6 67t-14 60h-15q-10 -14 -22.5 -30t-28 -29.5t-33 -23t-37.5 -9.5q-33 0 -70 6t-68 18.5t-51.5 33t-20.5 50.5q0 63 22.5 125.5t57.5 113t78.5 81.5t85.5 31q30 0 57 -17t50 -46t41 -67
t31 -80.5t20 -86.5t7 -84q0 -23 -3 -48.5t-10.5 -63t-21 -90.5t-34.5 -130h-968zM1111 814l-135 82l86 115l135 -84z" />
    <glyph glyph-name="uni0641.init" unicode="&#x641;" horiz-adv-x="708" arabic-form="initial" 
d="M502 399q-10 30 -27 58t-37 50t-41.5 35t-39.5 13q-22 0 -40.5 -12t-33 -29t-23.5 -36.5t-12 -34.5q10 -13 28.5 -23.5t42.5 -18t51 -12t54 -4.5q20 0 42 4.5t36 9.5zM0 0q-11 0 -23.5 3t-24 8.5t-19 14t-7.5 19.5v57q0 12 7.5 20.5t19 14t24 8t23.5 2.5h533
q3 17 4.5 37.5t1.5 34.5q0 31 -6 67t-14 60h-20q-9 -14 -22 -30t-29 -30t-33.5 -23t-36.5 -9q-33 0 -69.5 5.5t-67.5 18t-51 32.5t-20 50q0 67 23 131t59 113t80 79t86 30t79.5 -37t65.5 -93t44 -123.5t16 -127.5q0 -23 -3 -48.5t-10.5 -63t-21 -90.5t-34.5 -130h-554z
M400 816l-135 82l86 115l135 -84z" />
    <glyph glyph-name="uni0641.medi" unicode="&#x641;" horiz-adv-x="769" arabic-form="medial" 
d="M397 394q-19 0 -41 -5t-44 -15.5t-42.5 -28t-35.5 -42.5q0 -12 2 -27t12 -34t32 -41t64 -49q19 5 43 13.5t47 18t43 21t32 22.5q0 24 -10.5 53t-26.5 54.5t-36 42.5t-39 17zM0 0q-11 0 -23.5 3t-24 8.5t-19 14t-7.5 19.5v57q0 12 7.5 20.5t19 14t24 8t23.5 2.5h174
q-7 12 -10.5 24.5t-3.5 32.5q0 30 11.5 67t32.5 75t50 73.5t63.5 63t73.5 44.5t80 17q25 0 48.5 -19t42 -50t30 -70t11.5 -78q0 -11 -4 -28t-12.5 -37.5t-20 -42t-26.5 -40.5q-9 -11 -16.5 -18t-17.5 -14h263v-147h-769zM431 672l-135 82l86 115l135 -84z" />
    <glyph glyph-name="uni0641.fina" unicode="&#x641;" horiz-adv-x="1597" arabic-form="final" 
d="M1225 394q-19 0 -41 -5t-44 -15.5t-42.5 -28t-35.5 -42.5q1 -13 4 -29.5t14 -36t32.5 -41t59.5 -44.5q19 5 43 13.5t47 18t43 21t32 22.5q0 24 -10.5 53t-26.5 54.5t-36 42.5t-39 17zM296 0q-56 0 -96.5 19t-67 47t-39.5 60.5t-13 59.5q0 66 16 128t58 128l30 -12
q-35 -94 -35 -154q0 -18 8.5 -40t31 -42t61.5 -33.5t100 -13.5h652q-8 13 -11 25t-3 32q0 30 11.5 67t32.5 75t50 73.5t63.5 63t73.5 44.5t80 17q25 0 48.5 -19t42 -50t30 -70t11.5 -78q0 -11 -4 -28t-12.5 -37.5t-20 -42t-26.5 -40.5q-9 -11 -16.5 -18t-17.5 -14h263v-147
h-1301zM1271 672l-135 82l86 115l135 -84z" />
    <glyph glyph-name="uni0642" unicode="&#x642;" horiz-adv-x="1083" arabic-form="isolated" 
d="M621 289q4 -11 21 -21.5t41 -18.5t52 -13t55 -5q25 0 42.5 4t37.5 10q-10 30 -27.5 57.5t-39.5 47.5t-46 32t-46 12q-20 0 -36.5 -12.5t-28.5 -30t-18.5 -35t-6.5 -27.5zM867 188q-17 -29 -32 -48.5t-31 -31t-35.5 -16.5t-44.5 -5q-91 0 -136.5 33t-45.5 94q0 68 23 130
t57 109t72.5 75t70.5 28q34 0 64.5 -18t56 -48t46.5 -70t35.5 -83.5t22.5 -88t8 -84.5q0 -85 -22.5 -163.5t-51.5 -154.5q-37 -32 -88.5 -66.5t-116 -63.5t-140 -47.5t-159.5 -18.5q-98 0 -163 25.5t-104.5 66t-56 92t-16.5 102.5q0 61 12.5 116t32 103.5t43.5 91t47 79.5
l30 -12q-15 -35 -28.5 -68t-23 -65.5t-15.5 -67t-6 -72.5q0 -56 24 -100.5t63 -75t89.5 -46.5t103.5 -16q64 0 132.5 16.5t131.5 42.5t114.5 57t81.5 60q2 13 2.5 31.5t0.5 33.5q0 75 -25 144h-23zM844 710l-121 72l-55 -72l-127 75l86 115l120 -74l56 74l127 -78z" />
    <glyph glyph-name="uni0642.init" unicode="&#x642;" horiz-adv-x="708" arabic-form="initial" 
d="M502 399q-10 30 -27 58t-37 50t-41.5 35t-39.5 13q-22 0 -40.5 -12t-33 -29t-23.5 -36.5t-12 -34.5q10 -13 28.5 -23.5t42.5 -18t51 -12t54 -4.5q20 0 42 4.5t36 9.5zM0 0q-11 0 -23.5 3t-24 8.5t-19 14t-7.5 19.5v57q0 12 7.5 20.5t19 14t24 8t23.5 2.5h533
q3 17 4.5 37.5t1.5 34.5q0 31 -6 67t-14 60h-20q-9 -14 -22 -30t-29 -30t-33.5 -23t-36.5 -9q-33 0 -69.5 5.5t-67.5 18t-51 32.5t-20 50q0 67 23 131t59 113t80 79t86 30t79.5 -37t65.5 -93t44 -123.5t16 -127.5q0 -23 -3 -48.5t-10.5 -63t-21 -90.5t-34.5 -130h-554z
M502 814l-121 72l-55 -72l-127 75l86 115l120 -74l56 74l127 -78z" />
    <glyph glyph-name="uni0642.medi" unicode="&#x642;" horiz-adv-x="769" arabic-form="medial" 
d="M397 394q-19 0 -41 -5t-44 -15.5t-42.5 -28t-35.5 -42.5q0 -12 2 -27t12 -34t32 -41t64 -49q19 5 43 13.5t47 18t43 21t32 22.5q0 24 -10.5 53t-26.5 54.5t-36 42.5t-39 17zM0 0q-11 0 -23.5 3t-24 8.5t-19 14t-7.5 19.5v57q0 12 7.5 20.5t19 14t24 8t23.5 2.5h174
q-7 12 -10.5 24.5t-3.5 32.5q0 30 11.5 67t32.5 75t50 73.5t63.5 63t73.5 44.5t80 17q25 0 48.5 -19t42 -50t30 -70t11.5 -78q0 -11 -4 -28t-12.5 -37.5t-20 -42t-26.5 -40.5q-9 -11 -16.5 -18t-17.5 -14h263v-147h-769zM504 684l-121 72l-55 -72l-127 75l86 115l120 -74
l56 74l127 -78z" />
    <glyph glyph-name="uni0642.fina" unicode="&#x642;" horiz-adv-x="1065" arabic-form="final" 
d="M620 225q7 -24 40.5 -43t93.5 -27q9 -1 25.5 -1.5t35 -1t35.5 -0.5h28q-10 30 -28 59.5t-40.5 53.5t-46.5 39t-46 15q-19 0 -35.5 -10.5t-29 -25.5t-21 -31t-11.5 -27zM976 0q-8 -63 -28 -122.5t-46 -119.5q-38 -30 -85 -62.5t-107 -59.5t-135.5 -44.5t-170.5 -17.5
q-94 0 -156.5 23.5t-99.5 62t-52.5 88t-15.5 100.5q0 61 12.5 116t32 103.5t43.5 91t47 79.5l30 -12q-15 -35 -28.5 -68t-23 -65.5t-15.5 -67t-6 -72.5q0 -56 22.5 -98.5t60 -71t84.5 -42.5t97 -14q73 0 142 16t128 40t106.5 53t77.5 55q1 9 3 24t4 31t3.5 31t1.5 25h-34.5
t-43.5 1l-46 2t-41 3q-97 11 -142 43.5t-45 98.5q0 72 19.5 132.5t50 105t67.5 69t72 24.5q39 0 76.5 -31t68 -79t51.5 -107.5t26 -116.5h84v-147h-89zM824 614l-121 72l-55 -72l-127 75l86 115l120 -74l56 74l127 -78z" />
    <glyph glyph-name="uni0643" unicode="&#x643;" horiz-adv-x="1274" arabic-form="isolated" 
d="M702 782q-10 -8 -23 -19.5t-25 -24.5t-19.5 -24.5t-7.5 -14.5q0 -8 14 -9.5t34 -3.5q15 -2 30.5 -3t28.5 -3.5t21.5 -7.5t8.5 -13q0 -17 -4.5 -42t-15.5 -50.5t-28.5 -48.5t-43.5 -36q-2 -1 -27.5 -7.5t-59.5 -14t-68.5 -14t-54.5 -7.5l-3 8q10 4 29.5 13t44 20t50 23.5
t46 24.5t34 21.5t13.5 15.5q0 9 -19 9t-42 2t-42 11.5t-19 37.5q0 24 10 49.5t25 49t33 44.5t35 37.5t30.5 27.5t18.5 14zM296 0q-49 0 -89 19t-68 47t-43.5 60.5t-15.5 59.5q0 66 16 128t58 128l30 -12q-35 -94 -35 -154q0 -18 10 -40t33.5 -42t62 -33.5t94.5 -13.5h754
l-80 795q-17 17 -28 35t-11 31l104 135h11q1 -19 4 -34t16.5 -33t42.5 -42.5t82 -62.5l-104 -129l53 -635l-68 -207h-829z" />
    <glyph glyph-name="uni0643.init" unicode="&#x643;" horiz-adv-x="786" arabic-form="initial" 
d="M754 1008q-68 -29 -148 -62.5t-162.5 -69t-162.5 -70t-148 -65.5q48 -33 111 -80t125.5 -99.5t117 -106t86.5 -99.5q26 -38 40 -71t14 -76q0 -24 -6 -51t-14.5 -54t-18 -53.5t-17.5 -50.5h-571q-11 0 -23.5 3t-24 8.5t-19 14t-7.5 19.5v57q0 12 7.5 20.5t19 14t24 8
t23.5 2.5h551q-6 39 -40 84t-83.5 90.5t-108 90.5t-112.5 84l-6 -50l-115 58q-70 34 -70 121q0 42 19 95t59 116q8 13 44 33.5t93.5 47.5t132.5 58.5t161 67.5l296 122z" />
    <glyph glyph-name="uni0643.medi" unicode="&#x643;" horiz-adv-x="843" arabic-form="medial" 
d="M711 0q-21 0 -37.5 9t-31 25.5t-28 39t-29.5 50.5q-11 19 -22.5 40t-24.5 41l-11 -4q-2 -25 -6 -47.5t-12 -46.5t-20.5 -50t-30.5 -57h-458q-11 0 -23.5 3t-24 8.5t-19 14t-7.5 19.5v57q0 12 7.5 20.5t19 14t24 8t23.5 2.5h464q0 39 -17 84t-48 90.5t-75.5 90.5t-98.5 84
l-6 -50l-111 56q-18 9 -31.5 18.5t-23 23t-14.5 33t-5 48.5q0 85 78 211q8 13 58 39t126.5 60.5t171.5 74.5t194 81q45 19 89.5 37.5t87.5 36.5l-67 -157q-67 -29 -148 -64t-165 -71t-165.5 -71.5t-149.5 -65.5q48 -31 89.5 -61.5t80 -63.5t77 -69.5t80.5 -79.5
q51 -52 87.5 -94t66.5 -80q28 -35 49 -61.5t39 -44t35 -26.5t37 -9h58v-147h-132z" />
    <glyph glyph-name="uni0643.fina" unicode="&#x643;" horiz-adv-x="1295" arabic-form="final" 
d="M1264 0q-14 1 -29 3t-31 7q-32 10 -59 33.5t-38 71.5h-12q-14 -32 -26.5 -58t-23.5 -46h-768q-49 0 -86 19t-61.5 47t-37 60.5t-12.5 59.5q0 66 16 128t58 128l30 -12q-15 -39 -25 -76t-10 -75q0 -71 48 -101.5t127 -30.5h668q29 0 47.5 12.5t28.5 32t13.5 44t3.5 49.5
q0 4 -2.5 32t-7.5 79q-4 42 -9.5 100t-11.5 127t-13 148t-14 164l96 164l57 -862q3 -38 13 -58t24.5 -30t30 -11.5t29.5 -1.5h18v-147h-31zM702 782q-10 -8 -22.5 -20.5t-24.5 -25.5t-20 -23.5t-8 -13.5q0 -8 14 -9.5t34 -3.5q15 -2 30.5 -3t28.5 -3.5t21.5 -7.5t8.5 -13
q0 -17 -4.5 -42t-15.5 -50.5t-28.5 -48.5t-43.5 -36q-5 -3 -31 -9.5t-59 -13.5t-66.5 -13t-53.5 -7l-3 8q10 4 29.5 13t44 20t50 23.5t46 24.5t34 21.5t13.5 15.5q0 9 -19 9t-42 2t-42 11.5t-19 37.5q0 24 10 49.5t25 49t33 44.5t35 37.5t30.5 27.5t18.5 14z" />
    <glyph glyph-name="uni0644" unicode="&#x644;" horiz-adv-x="975" arabic-form="isolated" 
d="M841 842q5 -79 10.5 -160.5t10.5 -158.5t9 -145.5t7.5 -121t5.5 -84.5t2 -37q0 -62 -6.5 -104t-17 -73.5t-23.5 -57.5t-26 -54q-39 -26 -85 -52.5t-99 -48t-112.5 -35t-125.5 -13.5q-91 0 -151 25t-95.5 64.5t-50 88.5t-14.5 96q0 58 11 109t28 96t38 84t41 73l30 -13
q-12 -33 -22 -62t-17 -57.5t-11 -58.5t-4 -66q0 -54 19 -96t53 -71t79.5 -44t98.5 -15q49 0 105 12.5t109.5 32t100 43.5t77.5 47l-92 957q-17 15 -28 32t-11 34l104 135h11q1 -19 4 -34t16.5 -33t42.5 -42.5t82 -62.5z" />
    <glyph glyph-name="uni0644.init" unicode="&#x644;" arabic-form="initial" 
d="M0 0q-11 0 -23.5 3t-24 8.5t-19 14t-7.5 19.5v57q0 12 7.5 20.5t19 14t24 8t23.5 2.5h283l-80 786q-23 23 -31.5 41.5t-8.5 33.5l105 135h10q0 -21 4.5 -40.5t20 -41t44.5 -49t78 -65.5l-103 -137l45 -603l-67 -207h-300z" />
    <glyph glyph-name="uni0644.medi" unicode="&#x644;" arabic-form="medial" 
d="M400 0q-42 0 -72 22.5t-44 64.5h-12l-40 -87h-232q-11 0 -23.5 3t-24 8.5t-19 14t-7.5 19.5v57q0 12 7.5 20.5t19 14t24 8t23.5 2.5h239l-69 799l96 164q3 -49 7.5 -117.5t9.5 -148t10.5 -165.5t11.5 -170t11.5 -161.5t10.5 -140.5q2 -14 5 -24.5t9 -16.5t18 -10t26 -6
t28 -2.5t25 -0.5h7v-147h-45z" />
    <glyph glyph-name="uni0644.fina" unicode="&#x644;" horiz-adv-x="995" arabic-form="final" 
d="M977 0q-31 0 -54.5 15t-31.5 40h-12q-4 -27 -10.5 -57t-16.5 -60q-7 -21 -17.5 -46.5t-21.5 -45.5q-39 -26 -85 -52.5t-99 -48t-112.5 -35t-125.5 -13.5q-91 0 -151 25t-95.5 64.5t-50 88.5t-14.5 96q0 58 11 109t28 95.5t38 83.5t41 73l30 -12q-12 -35 -22.5 -63
t-18 -55.5t-11.5 -57.5t-4 -68q0 -54 19.5 -96t53.5 -71t80 -44t99 -15q49 0 105 12.5t109.5 32t100 43.5t77.5 47l-89 961l96 164q4 -55 9 -131.5t10 -162t10.5 -173.5t10.5 -165.5t9 -138t7 -91.5q3 -36 12.5 -56t23.5 -30t33 -12.5t42 -2.5h5v-147h-18z" />
    <glyph glyph-name="uni0645" unicode="&#x645;" horiz-adv-x="828" arabic-form="isolated" 
d="M668 66q-24 6 -62.5 10.5t-79.5 8t-79 5t-61 1.5q-78 0 -134 -13t-94 -42q13 -61 25.5 -121.5t22.5 -124t17 -132t9 -144.5l-68 -185h-4q-1 65 -9 147t-19 167t-25 166t-27 145q6 40 21 86t37 80q36 54 91.5 85t140.5 31q63 0 114.5 -2.5t88.5 -8.5l4 8q-29 17 -57 46.5
t-53 53.5t-44 33.5t-42 9.5q-15 0 -35 -8t-41 -21.5t-39.5 -30t-30.5 -34.5l-10 4q13 52 42.5 94t63.5 71t66.5 44.5t50.5 15.5q17 0 39 -9t45 -25t45.5 -38.5t40.5 -48.5q13 -18 28 -39t31.5 -41t33 -36.5t32.5 -26.5z" />
    <glyph glyph-name="uni0645.init" unicode="&#x645;" horiz-adv-x="714" arabic-form="initial" 
d="M258 268q14 -7 27.5 -14t27.5 -15q28 -15 55.5 -29t52 -25.5t45.5 -18.5t36 -8q-8 37 -19 76.5t-26 72.5t-35 54.5t-45 21.5q-63 0 -119 -115zM526 -23q-37 8 -74.5 19.5t-89.5 36.5q-45 21 -88 46t-75 48q-9 -17 -17 -34t-24 -42t-38 -38t-46 -13h-74q-11 0 -23.5 3
t-24 8.5t-19 14t-7.5 19.5v57q0 12 7.5 20.5t19 14t24 8t23.5 2.5h70q15 0 28.5 6.5t25 16t20.5 21.5t14 24q12 26 28.5 58t37 65t44.5 64.5t51.5 55.5t57 39t61.5 15q38 0 71.5 -38t53.5 -107q6 -20 10.5 -40t9.5 -40q8 -42 19 -79.5t27 -72.5z" />
    <glyph glyph-name="uni0645.medi" unicode="&#x645;" horiz-adv-x="782" arabic-form="medial" 
d="M581 87q-23 27 -38.5 59.5t-26 66.5t-15.5 66.5t-7 58.5q-30 0 -59.5 -3.5t-55 -13t-44.5 -26.5t-28 -45q25 -25 57 -51t67.5 -49.5t72.5 -42t72 -28.5zM745 0q-23 0 -39.5 2t-30 7.5t-25.5 14.5t-27 23l-68 -121q-53 16 -98 36t-84.5 43.5t-76 50.5t-71.5 57
q-22 -35 -42 -57t-40.5 -34.5t-41.5 -17t-46 -4.5h-55q-10 0 -32 5q-17 5 -29.5 15.5t-12.5 24.5v57q0 12 7.5 20.5t19 14t24 8t23.5 2.5h129q23 0 44.5 14t32.5 37q7 14 16.5 35t22.5 50q38 88 98 139t153 51q26 0 40.5 -19.5t17.5 -43.5q10 -76 32 -134.5t67 -101.5
q13 -11 35 -19t57 -8h37v-147h-37z" />
    <glyph glyph-name="uni0645.fina" unicode="&#x645;" horiz-adv-x="920" arabic-form="final" 
d="M705 128q-12 19 -23 42.5t-20 47.5t-16 46.5t-12 40.5q-6 23 -21.5 33t-37.5 10q-13 0 -32 -3.5t-40 -10t-42 -15t-39 -18.5q25 -27 59.5 -56t72.5 -54.5t76 -44.5t70 -27zM886 0q-40 0 -75.5 19t-67.5 65l-67 -123q-54 18 -105 43t-96 53.5t-82 58.5t-64 58l50 109
q-19 -10 -45 -24.5t-53 -30.5t-51.5 -31.5t-40.5 -27.5q9 -57 18.5 -129t17.5 -151t13 -159.5t5 -153.5l-68 -185h-4q0 52 -4 114.5t-11.5 130t-16.5 137t-19.5 135t-20.5 124.5t-19 105q8 25 20 51t27 50t31.5 44.5t32.5 35.5q18 16 50.5 36t72 40.5t81.5 39.5t79.5 33.5
t66.5 23.5t42 9q28 0 46 -8.5t30 -24t20 -37t17 -48.5q13 -39 28 -76.5t31 -67.5q28 -45 60 -68t74 -23h31v-147h-34z" />
    <glyph glyph-name="uni0646" unicode="&#x646;" horiz-adv-x="1013" arabic-form="isolated" 
d="M805 481q63 -100 93 -194.5t30 -188.5q0 -27 -5 -59.5t-13.5 -65.5t-20.5 -64.5t-26 -56.5q-39 -28 -88.5 -55.5t-107 -49t-122 -35t-133.5 -13.5q-97 0 -161 25.5t-102 66t-53.5 92t-15.5 102.5q0 62 12.5 116.5t32 102.5t44 90.5t47.5 79.5l30 -12q-15 -35 -28.5 -67
t-23.5 -65t-16 -67.5t-6 -72.5q0 -56 23 -100.5t61 -75t87 -46.5t102 -16q52 0 111.5 11t116.5 29t105.5 42t78.5 51q0 36 -8 78.5t-23.5 86t-38.5 86.5t-53 81zM521 552l-135 82l86 115l135 -84z" />
    <glyph glyph-name="uni0646.init" unicode="&#x646;" arabic-form="initial" 
d="M0 0q-11 0 -23.5 3t-24 8.5t-19 14t-7.5 19.5v57q0 12 7.5 20.5t19 14t24 8t23.5 2.5h278q0 31 -9 57.5t-23 49.5t-30 42t-30 34l71 164q19 -27 37.5 -61t33 -69.5t23.5 -71t9 -65.5q0 -29 -5 -59.5t-13.5 -60t-18 -57t-18.5 -50.5h-305zM236 602l-135 82l86 115l135 -84
z" />
    <glyph glyph-name="uni0646.medi" unicode="&#x646;" horiz-adv-x="540" arabic-form="medial" 
d="M415 0q-20 0 -40 7t-36.5 20.5t-28.5 32t-16 41.5h-12l-47 -101h-235q-11 0 -23.5 3t-24 8.5t-19 14t-7.5 19.5v57q0 12 7.5 20.5t19 14t24 8t23.5 2.5h230l40 244l105 69l-35 -211q3 -33 15.5 -53.5t31.5 -31t43 -14t51 -3.5h59v-147h-125zM266 552l-135 82l86 115
l135 -84z" />
    <glyph glyph-name="uni0646.fina" unicode="&#x646;" horiz-adv-x="1047" arabic-form="final" 
d="M928 0q0 -29 -5 -62t-13.5 -66t-20.5 -64t-26 -56q-37 -27 -86 -54.5t-107 -49t-123.5 -35.5t-134.5 -14q-97 0 -161 25.5t-102 66t-53.5 92t-15.5 102.5q0 62 12.5 116.5t32 102.5t44 90.5t47.5 79.5l30 -12q-15 -35 -28.5 -67t-23.5 -65t-16 -67.5t-6 -72.5
q0 -56 23 -100.5t61 -75t87 -46.5t102 -16q52 0 111.5 11t116.5 29t105.5 42t78.5 51q0 36 -8 78.5t-23.5 86t-38.5 86.5t-53 81l71 164q26 -42 46.5 -83t36.5 -81q11 -28 30.5 -49t45.5 -21h83v-147h-119zM544 452l-135 82l86 115l135 -84z" />
    <glyph glyph-name="uni0647.init" unicode="&#x647;" horiz-adv-x="838" arabic-form="initial" 
d="M693 85q0 27 -5 59.5t-17.5 67.5t-33 71.5t-51.5 71.5q3 -17 3 -33q0 -14 -8 -39.5t-22 -53t-32 -53t-39 -40.5q51 -20 102.5 -34.5t102.5 -16.5zM346 168q48 12 90.5 29t70.5 41q0 22 -9 51t-23 55.5t-33 44.5t-38 18q-18 0 -40 -5.5t-44.5 -17.5t-43 -30t-35.5 -42
q0 -21 4 -40t15.5 -36.5t32 -34.5t53.5 -33zM693 -45q-23 0 -66.5 6t-93 17t-99 27.5t-85.5 37.5q-15 -9 -35.5 -16.5t-41.5 -13.5t-40.5 -9.5t-33.5 -3.5h-198q-12 0 -25 3t-24 8.5t-18 13.5t-7 19v63q0 9 7 16.5t18 13t24 8t25 2.5h174q-9 14 -11.5 25t-2.5 31q0 33 14 73
t38.5 80.5t58 77t73.5 61.5l-43 10l27 138q5 26 36 26q9 0 18 -1t23 -9q66 -37 129 -87.5t111.5 -112t78 -132t29.5 -147.5q0 -27 -6 -58t-15 -61.5t-19.5 -58.5t-19.5 -47z" />
    <glyph glyph-name="uni0647.medi.alt2" unicode="&#x647;" horiz-adv-x="604" arabic-form="medial" 
d="M547 0q-24 0 -50 -3t-48.5 -11.5t-37 -23t-14.5 -37.5q0 -64 26 -112.5t66 -95.5l-62 -168h-14q-60 36 -105 82.5t-75 96t-45 98t-15 87.5q0 47 4 82t14 70l-10 7q-25 -20 -45.5 -34t-41 -22.5t-43 -12t-51.5 -3.5q-11 0 -23.5 3t-24 8.5t-19 14t-7.5 19.5v57
q0 12 7.5 20.5t19 14t24 8t23.5 2.5q73 0 128 20.5t94.5 55t66.5 80.5t45 97l51 -18q-17 -75 -37.5 -126.5t-49.5 -91.5q-6 -9 -15.5 -19t-17.5 -17q-17 -35 -26.5 -77.5t-9.5 -81.5q0 -37 12.5 -69t32 -57.5t41.5 -43.5t42 -27l11 5q-8 17 -19 52t-11 80q0 54 16.5 98
t45 75t66.5 48t81 17h57v-147h-57z" />
    <glyph glyph-name="uniFEE9" unicode="&#x647;" horiz-adv-x="634" arabic-form="isolated" 
d="M279 614q-2 -7 -2 -11.5v-9.5q0 -36 33 -55q34 -22 62 -38.5t51 -30.5q34 -21 58 -39t39 -40t22 -51.5t7 -72.5q0 -36 -10 -73q-8 -34 -23.5 -69.5t-32.5 -69.5q-16 -14 -41.5 -27.5t-60.5 -24.5t-78.5 -18t-95.5 -7q-66 0 -96.5 30t-30.5 87q0 46 8.5 91t22.5 87.5
t31.5 81t35.5 72.5q-11 11 -13.5 21t-2.5 24q0 10 10 30.5t24.5 44t31 45.5t28.5 36zM473 188q0 25 -19 49t-47.5 45.5t-61.5 40t-60 33.5q-22 12 -37.5 21t-20.5 14q-7 -10 -20 -30.5t-26 -46.5t-22.5 -54t-9.5 -53q0 -12 4 -24.5t14 -22.5t28 -16.5t47 -6.5q43 0 84.5 4.5
t74 11.5t52.5 16t20 19z" />
    <glyph glyph-name="uni0647.medi" unicode="&#x647;" horiz-adv-x="681" arabic-form="medial" 
d="M421 472q-24 -20 -57 -60.5t-65 -86.5t-57 -89t-33 -68q30 7 72 20.5t80 32t65 41t27 46.5q0 13 -2 36t-6 47.5t-10 46.5t-14 34zM500 -137q0 28 -18 48.5t-46.5 36t-64 25.5t-70.5 15.5t-66.5 8t-51.5 2.5q15 -39 38.5 -73.5t54 -61t67.5 -42t78 -15.5q33 0 56 18t23 38
zM534 0q11 -18 15 -41.5t4 -42.5q0 -36 -11 -80t-32 -82.5t-51.5 -64t-69.5 -25.5q-65 0 -112.5 31.5t-79.5 81t-47.5 108.5t-15.5 115h-134q-11 0 -23.5 3t-24 8.5t-19 14t-7.5 19.5v57q0 12 7.5 20.5t19 14t24 8t23.5 2.5q54 0 93.5 3t74.5 12q7 30 25 71t43 87.5t55 94.5
t62 93t63 83.5t58 64.5q13 -14 24 -40.5t19.5 -56.5t13 -60.5t4.5 -53.5q0 -25 -11.5 -60t-29.5 -75t-40 -82t-44 -81h271v-147h-147z" />
    <glyph glyph-name="uni0647.fina" unicode="&#x6be;" horiz-adv-x="787" arabic-form="final" 
d="M480 323l-18 244q-14 -20 -26 -43.5t-30 -33.5q-9 -6 -39.5 -19.5t-67 -29.5t-71.5 -31t-53 -24l-11 -17q69 -25 138.5 -38t150.5 -24zM658 0q-43 0 -76.5 19.5t-51.5 42.5q-12 15 -19.5 37.5t-12.5 50.5t-8 59t-6 61h-18l-79 -122q-55 8 -106.5 19t-94.5 25
q-32 10 -52.5 19t-32.5 18t-16.5 19t-4.5 22q0 16 13.5 47t32 64t37 62t28.5 40q7 8 23 18.5t39 22.5t51 26t58 28q24 11 47.5 22t46.5 22q0 7 -1 18t-1.5 23t-1.5 22.5t-1 16.5l91 136l14 -208q3 -37 7 -89t8.5 -106t9.5 -104t9 -84q3 -29 13 -47.5t19 -24.5q20 -14 41 -20
t54 -8h70v-147h-129z" />
    <glyph glyph-name="uni0648" unicode="&#x648;" horiz-adv-x="742" arabic-form="isolated" 
d="M582 249q-10 30 -25.5 58.5t-33.5 51t-38 36.5t-38 14t-35 -12.5t-30 -30t-20.5 -35t-7.5 -27.5q9 -24 43.5 -44.5t94.5 -20.5q9 0 21 1t25 2.5t24.5 3t19.5 3.5zM582 190q-9 -17 -20.5 -35.5t-26.5 -33.5t-33.5 -24.5t-42.5 -9.5q-33 0 -65.5 10.5t-59 28.5t-42.5 43.5
t-16 55.5q0 72 19.5 134.5t51 108.5t71 72.5t78.5 26.5q28 0 53.5 -17.5t47 -47t39.5 -68.5t30.5 -82t19 -87.5t6.5 -84.5q0 -61 -13 -124t-38 -122t-59.5 -111t-77.5 -90.5t-93.5 -61t-105.5 -22.5q-33 0 -68.5 6t-76 18.5t-87.5 32.5t-103 48l12 30q32 -10 56 -17
t43.5 -11.5t37.5 -6.5t39 -2q49 0 99.5 15.5t99 42.5t92.5 63.5t79 78t59.5 86.5t33.5 89q-8 38 -19 68h-20z" />
    <glyph glyph-name="uni0648.fina" unicode="&#x648;" horiz-adv-x="860" arabic-form="final" 
d="M589 152q-10 30 -25 60.5t-33 56t-38 41.5t-40 16q-22 0 -40 -12t-30.5 -28.5t-19.5 -33.5t-7 -27q8 -26 34.5 -43t83.5 -25q9 -1 24 -2t31.5 -1.5t32.5 -1t27 -0.5zM682 0q-15 -80 -49 -156t-83 -135t-111 -95t-133 -36q-33 0 -68.5 6t-76 18.5t-88 32.5t-103.5 48
l12 30q32 -10 56 -17t44 -11.5t38 -6.5t39 -2q48 0 98.5 15.5t99 41.5t91.5 60t77 70.5t55.5 73t26.5 67.5h-30.5t-37 1t-39.5 2.5t-38 3.5q-33 4 -64 15.5t-55.5 29.5t-39 43t-14.5 55q0 72 19.5 132.5t50 104t68.5 68t74 24.5q39 0 72 -31t57.5 -79.5t40.5 -108t20 -117.5
h169v-147h-178z" />
    <glyph glyph-name="uni0649" unicode="&#x649;" horiz-adv-x="1085" arabic-form="isolated" 
d="M953 439q-2 28 -23.5 39.5t-54.5 11.5q-30 0 -73.5 -23.5t-84 -59.5t-69 -79t-28.5 -81q0 -15 17 -27t47 -21t72 -16t93 -13q39 -5 67.5 -12t46.5 -21t26.5 -38.5t8.5 -63.5q0 -19 -5.5 -44t-15 -51.5t-21 -53t-23.5 -48.5q-42 -31 -98 -68.5t-123.5 -70.5t-143 -55
t-156.5 -22q-97 0 -161 25.5t-102 66t-53.5 92t-15.5 102.5q0 62 12.5 116.5t32 102.5t44 90.5t47.5 79.5l30 -12q-15 -35 -28 -67.5t-23 -65.5t-15.5 -67t-5.5 -72q0 -56 22.5 -100.5t60 -75t86.5 -46.5t102 -16q68 0 140.5 19t139 49t124 67.5t95.5 73.5q0 8 -9.5 14.5
t-33.5 12.5t-64.5 11t-101.5 10q-38 3 -73.5 10.5t-62.5 20.5t-43.5 31.5t-16.5 43.5q0 53 16.5 111.5t45.5 115t67.5 107.5t82.5 89.5t90.5 61.5t90.5 23q68 0 68 -81q0 -8 -3 -22.5t-8 -32t-11 -36.5t-12 -35h-13z" />
    <glyph glyph-name="uni0649.init" unicode="&#x649;" arabic-form="initial" 
d="M0 0q-11 0 -23.5 3t-24 8.5t-19 14t-7.5 19.5v57q0 12 7.5 20.5t19 14t24 8t23.5 2.5h278q0 31 -9 57.5t-23 49.5t-30 42t-30 34l71 164q19 -27 37.5 -61t33 -69.5t23.5 -71t9 -65.5q0 -29 -5 -59.5t-13.5 -60t-18 -57t-18.5 -50.5h-305z" />
    <glyph glyph-name="uni0649.medi" unicode="&#x649;" horiz-adv-x="540" arabic-form="medial" 
d="M415 0q-20 0 -40 7t-36.5 20.5t-28.5 32t-16 41.5h-12l-47 -101h-235q-11 0 -23.5 3t-24 8.5t-19 14t-7.5 19.5v57q0 12 7.5 20.5t19 14t24 8t23.5 2.5h230l40 244l105 69l-35 -211q3 -33 15.5 -53.5t31.5 -31t43 -14t51 -3.5h59v-147h-125z" />
    <glyph glyph-name="uni0649.fina" unicode="&#x649;" horiz-adv-x="861" arabic-form="final" 
d="M861 80q9 -5 21.5 -14t25 -19t23.5 -19.5t17 -15.5q12 -13 24.5 -30t23.5 -37l-72 -191q-36 -29 -93 -57t-125.5 -50.5t-144.5 -36t-149 -13.5q-97 0 -161 25.5t-102 66t-53.5 92t-15.5 102.5q0 61 12.5 116t32 103.5t43.5 90.5t47 79l30 -12q-15 -35 -28.5 -67.5
t-23 -65t-15.5 -66.5t-6 -73q0 -56 22 -100t59 -74.5t86.5 -47t105.5 -16.5q87 0 164.5 11t140.5 29t109 40.5t71 46.5q-5 21 -33 42.5t-71.5 39.5t-100 29.5t-117.5 11.5q16 43 30.5 77.5t33.5 69.5h189v-67z" />
    <glyph glyph-name="uni064A" unicode="&#x64a;" horiz-adv-x="1085" arabic-form="isolated" 
d="M953 439q-2 28 -23.5 39.5t-54.5 11.5q-30 0 -73.5 -23.5t-84 -59.5t-69 -79t-28.5 -81q0 -15 17 -27t47 -21t72 -16t93 -13q39 -5 67.5 -12t46.5 -21t26.5 -38.5t8.5 -63.5q0 -19 -5.5 -44t-15 -51.5t-21 -53t-23.5 -48.5q-42 -31 -98 -68.5t-123.5 -70.5t-143 -55
t-156.5 -22q-97 0 -161 25.5t-102 66t-53.5 92t-15.5 102.5q0 62 12.5 116.5t32 102.5t44 90.5t47.5 79.5l30 -12q-15 -35 -28 -67.5t-23 -65.5t-15.5 -67t-5.5 -72q0 -56 22.5 -100.5t60 -75t86.5 -46.5t102 -16q68 0 140.5 19t139 49t124 67.5t95.5 73.5q0 8 -9.5 14.5
t-33.5 12.5t-64.5 11t-101.5 10q-38 3 -73.5 10.5t-62.5 20.5t-43.5 31.5t-16.5 43.5q0 53 16.5 111.5t45.5 115t67.5 107.5t82.5 89.5t90.5 61.5t90.5 23q68 0 68 -81q0 -8 -3 -22.5t-8 -32t-11 -36.5t-12 -35h-13zM654 -633l-121 72l-55 -72l-127 75l86 115l120 -74l56 74
l127 -78z" />
    <glyph glyph-name="uni064A.init" unicode="&#x64a;" arabic-form="initial" 
d="M0 0q-11 0 -23.5 3t-24 8.5t-19 14t-7.5 19.5v57q0 12 7.5 20.5t19 14t24 8t23.5 2.5h278q0 31 -9 57.5t-23 49.5t-30 42t-30 34l71 164q19 -27 37.5 -61t33 -69.5t23.5 -71t9 -65.5q0 -29 -5 -59.5t-13.5 -60t-18 -57t-18.5 -50.5h-305zM309 -313l-121 72l-55 -72
l-127 75l86 115l120 -74l56 74l127 -78z" />
    <glyph glyph-name="uni064A.medi" unicode="&#x64a;" horiz-adv-x="540" arabic-form="medial" 
d="M415 0q-20 0 -40 7t-36.5 20.5t-28.5 32t-16 41.5h-12l-47 -101h-235q-11 0 -23.5 3t-24 8.5t-19 14t-7.5 19.5v57q0 12 7.5 20.5t19 14t24 8t23.5 2.5h230l40 244l105 69l-35 -211q3 -33 15.5 -53.5t31.5 -31t43 -14t51 -3.5h59v-147h-125zM379 -283l-121 72l-55 -72
l-127 75l86 115l120 -74l56 74l127 -78z" />
    <glyph glyph-name="uni064A.fina" unicode="&#x64a;" horiz-adv-x="861" arabic-form="final" 
d="M861 80q9 -5 21.5 -14t25 -19t23.5 -19.5t17 -15.5q12 -13 24.5 -30t23.5 -37l-72 -191q-36 -29 -93 -57t-125.5 -50.5t-144.5 -36t-149 -13.5q-97 0 -161 25.5t-102 66t-53.5 92t-15.5 102.5q0 61 12.5 116t32 103.5t43.5 90.5t47 79l30 -12q-15 -35 -28.5 -67.5
t-23 -65t-15.5 -66.5t-6 -73q0 -56 22 -100t59 -74.5t86.5 -47t105.5 -16.5q87 0 164.5 11t140.5 29t109 40.5t71 46.5q-5 21 -33 42.5t-71.5 39.5t-100 29.5t-117.5 11.5q16 43 30.5 77.5t33.5 69.5h189v-67zM654 -633l-121 72l-55 -72l-127 75l86 115l120 -74l56 74
l127 -78z" />
    <glyph glyph-name="uni066E.init" unicode="&#x66e;" 
d="M0 0q-11 0 -23.5 3t-24 8.5t-19 14t-7.5 19.5v57q0 12 7.5 20.5t19 14t24 8t23.5 2.5h278q0 31 -9 57.5t-23 49.5t-30 42t-30 34l71 164q19 -27 37.5 -61t33 -69.5t23.5 -71t9 -65.5q0 -29 -5 -59.5t-13.5 -60t-18 -57t-18.5 -50.5h-305z" />
    <glyph glyph-name="uni066E.medi" unicode="&#x66e;" horiz-adv-x="540" 
d="M415 0q-20 0 -40 7t-36.5 20.5t-28.5 32t-16 41.5h-12l-47 -101h-235q-11 0 -23.5 3t-24 8.5t-19 14t-7.5 19.5v57q0 12 7.5 20.5t19 14t24 8t23.5 2.5h230l40 244l105 69l-35 -211q3 -33 15.5 -53.5t31.5 -31t43 -14t51 -3.5h59v-147h-125z" />
    <glyph glyph-name="uni066E.fina" unicode="&#x66e;" horiz-adv-x="1329" 
d="M1230 0q-20 0 -40 7t-36.5 20.5t-28.5 32t-16 41.5h-12l-47 -101h-754q-56 0 -96.5 19t-67 47t-39.5 60.5t-13 59.5q0 66 16 128t58 128l30 -12q-35 -94 -35 -154q0 -18 8.5 -40t31 -42t61 -33.5t99.5 -13.5h697l39 244l105 69l-35 -211q3 -33 15.5 -53.5t31.5 -31
t43 -14t51 -3.5h33v-147h-99z" />
    <glyph glyph-name="uni0671" unicode="&#x671;" horiz-adv-x="539" arabic-form="isolated" 
d="M279 0l-75 820l96 164q4 -56 9.5 -131t11 -154.5t10.5 -158t9.5 -141t7 -103.5t2.5 -46q0 -50 -6.5 -89.5t-16 -70.5t-20 -53t-18.5 -37h-10zM466 1105q6 4 11 8t5 7q0 6 -4 16.5t-12.5 20t-22.5 16.5t-33 7q-17 0 -49 -22.5t-69 -52.5h174zM191 1040q-35 0 -56 19.5
t-33 45.5q-35 -17 -53 -41q-11 -15 -17.5 -27t-11.5 -24q-5 3 -10.5 6.5t-9.5 5.5q6 19 14.5 38t25.5 42q17 22 35 34.5t39 23.5h22q4 -7 10.5 -16.5t15 -18.5t19.5 -15.5t25 -7.5h11q19 12 37 26l36 28q42 32 79.5 57t70.5 25q14 0 31.5 -9t32.5 -22.5t25 -30.5t10 -32
q0 -13 -6.5 -27.5t-15.5 -29t-20 -27.5t-20 -23h-286z" />
    <glyph glyph-name="uni0671.fina" unicode="&#x671;" horiz-adv-x="453" arabic-form="final" 
d="M277 0q-25 0 -46 11.5t-27 19.5q-15 18 -23 46t-12 70q-16 180 -32 348.5t-27 325.5l96 163l50 -746q2 -38 16.5 -64.5t52.5 -26.5h128v-147h-176zM422 1105q6 4 11 8t5 7q0 6 -4 16.5t-12.5 20t-22.5 16.5t-33 7q-17 0 -49 -22.5t-69 -52.5h174zM147 1040
q-35 0 -56 19.5t-33 45.5q-35 -17 -53 -41q-11 -15 -17.5 -27t-11.5 -24q-5 3 -10.5 6.5t-9.5 5.5q6 19 14.5 38t25.5 42q17 22 35 34.5t39 23.5h22q4 -7 10.5 -16.5t15 -18.5t19.5 -15.5t25 -7.5h11q19 12 37 26l36 28q42 32 79.5 57t70.5 25q14 0 31.5 -9t32.5 -22.5
t25 -30.5t10 -32q0 -13 -6.5 -27.5t-15.5 -29t-20 -27.5t-20 -23h-286z" />
    <glyph glyph-name="uni0672.fina" unicode="&#x672;" horiz-adv-x="453" 
d="M277 0q-25 0 -46 11.5t-27 19.5q-15 18 -23 46t-12 70q-16 180 -32 348.5t-27 325.5l96 163l50 -746q2 -38 16.5 -64.5t52.5 -26.5h128v-147h-176zM333 1111q-34 -5 -66.5 -17t-64.5 -27q-14 -6 -26 -14t-23.5 -14.5t-23.5 -11.5t-26 -5q-26 0 -46 14t-34 33
q-8 -5 -16 -11t-14 -13q-9 -13 -14 -26.5t-11 -29.5l-23 7q2 17 7.5 37t14.5 36q12 24 26 36t30 24l20 4q6 -6 13.5 -13t17 -14t20.5 -11.5t22 -4.5q17 0 27.5 5t21.5 10q-20 11 -33 26t-13 32q0 19 13 45t34 50t47 40.5t53 16.5q21 0 31.5 -11.5t10.5 -27.5q0 -22 -18 -43
q-19 13 -41 18t-42 -3q-15 -7 -25 -19.5t-10 -24.5q0 -17 17 -29.5t39 -17.5q5 -2 11 -2h11q19 0 48 7.5t64 19.5z" />
    <glyph glyph-name="uni0673.fina" unicode="&#x673;" horiz-adv-x="453" 
d="M277 0q-25 0 -46 11.5t-27 19.5q-15 18 -23 46t-12 70q-5 59 -11 127.5t-12 141t-12 146.5t-12 144t-11 133.5t-9 114.5l96 163l58 -879q2 -38 16.5 -64.5t52.5 -26.5h128v-147h-176zM392 -286q-34 -5 -66.5 -17t-64.5 -27q-14 -6 -26 -14t-23.5 -14.5t-23.5 -11.5
t-26 -5q-26 0 -46 14t-34 33q-8 -5 -16 -11t-14 -13q-9 -13 -14 -26.5t-11 -29.5l-23 7q2 17 7.5 37t14.5 36q12 24 26 36t30 24l20 4q6 -6 13.5 -13t17 -14t20.5 -11.5t22 -4.5q17 0 27.5 5t21.5 10q-20 11 -33 26t-13 32q0 19 13 45t34 50t47 40.5t53 16.5
q21 0 31.5 -11.5t10.5 -27.5q0 -22 -18 -43q-19 13 -41 18t-42 -3q-15 -7 -25 -19.5t-10 -24.5q0 -17 17 -29.5t39 -17.5q5 -2 11 -2h11q19 0 48 7.5t64 19.5z" />
    <glyph glyph-name="uni0675.fina" unicode="&#x675;" horiz-adv-x="453" 
d="M277 0q-25 0 -46 11.5t-27 19.5q-15 18 -23 46t-12 70q-16 180 -32 348.5t-27 325.5l96 163l50 -746q2 -38 16.5 -64.5t52.5 -26.5h128v-147h-176zM418 1097q-32 -8 -71 -19.5t-66 -25.5q-20 -10 -38 -28.5t-32 -38.5l-25 11q4 19 17 45t32 44q-29 11 -48 30.5t-19 41.5
t16 51t40 54.5t52 43.5t52 18q25 0 37.5 -13.5t12.5 -31.5q0 -26 -21 -51q-30 24 -67 24q-21 0 -41 -12t-20 -35q0 -13 8.5 -23.5t22 -18t30 -11.5t31.5 -4q23 0 56 9t75 23z" />
    <glyph glyph-name="uni0676.fina" unicode="&#x676;" horiz-adv-x="860" 
d="M589 152q-10 30 -25 60.5t-33 56t-38 41.5t-40 16q-22 0 -40 -12t-30.5 -28.5t-19.5 -33.5t-7 -27q8 -26 34.5 -43t83.5 -25q9 -1 24 -2t31.5 -1.5t32.5 -1t27 -0.5zM682 0q-15 -80 -49 -156t-83 -135t-111 -95t-133 -36q-33 0 -68.5 6t-76 18.5t-88 32.5t-103.5 48
l12 30q32 -10 56 -17t44 -11.5t38 -6.5t39 -2q48 0 98.5 15.5t99 41.5t91.5 60t77 70.5t55.5 73t26.5 67.5h-30.5t-37 1t-39.5 2.5t-38 3.5q-33 4 -64 15.5t-55.5 29.5t-39 43t-14.5 55q0 72 19.5 132.5t50 104t68.5 68t74 24.5q39 0 72 -31t57.5 -79.5t40.5 -108t20 -117.5
h169v-147h-178zM694 635q-32 -8 -71 -19.5t-66 -25.5q-20 -10 -38 -28.5t-32 -38.5l-25 11q4 19 17 45t32 44q-29 11 -48 30.5t-19 41.5t16 51t40 54.5t52 43.5t52 18q25 0 37.5 -13.5t12.5 -31.5q0 -26 -21 -51q-30 24 -67 24q-21 0 -41 -12t-20 -35q0 -13 8.5 -23.5
t22 -18t30 -11.5t31.5 -4q23 0 56 9t75 23z" />
    <glyph glyph-name="uni0677" unicode="&#x677;" horiz-adv-x="753" arabic-form="isolated" 
d="M582 249q-10 30 -25.5 58.5t-33.5 51t-38 36.5t-38 14t-35 -12.5t-30 -30t-20.5 -35t-7.5 -27.5q9 -24 43.5 -44.5t94.5 -20.5q9 0 21 1t25 2.5t24.5 3t19.5 3.5zM582 190q-9 -17 -20.5 -35.5t-26.5 -33.5t-33.5 -24.5t-42.5 -9.5q-33 0 -65.5 10.5t-59 28.5t-42.5 43.5
t-16 55.5q0 72 19.5 134.5t51 108.5t71 72.5t78.5 26.5q28 0 53.5 -17.5t47 -47t39.5 -68.5t30.5 -82t19 -87.5t6.5 -84.5q0 -61 -13 -124t-38 -122t-59.5 -111t-77.5 -90.5t-93.5 -61t-105.5 -22.5q-33 0 -68.5 6t-76 18.5t-87.5 32.5t-103 48l12 30q32 -10 56 -17
t43.5 -11.5t37.5 -6.5t39 -2q49 0 99.5 15.5t99 42.5t92.5 63.5t79 78t59.5 86.5t33.5 89q-8 38 -19 68h-20zM216 634q34 32 58 67.5t31 80.5q-12 -4 -27 -4q-31 0 -54.5 21.5t-23.5 60.5q0 20 8 37t21.5 30t31 20t37.5 7t39.5 -9t34.5 -25t24 -37t9 -46q0 -34 -9 -61.5
t-26 -54.5q-21 -34 -55 -61.5t-69 -47.5zM727 737q-32 -8 -71 -19.5t-66 -25.5q-20 -10 -38 -28.5t-32 -38.5l-25 11q4 19 17 45t32 44q-29 11 -48 30.5t-19 41.5t16 51t40 54.5t52 43.5t52 18q25 0 37.5 -13.5t12.5 -31.5q0 -26 -21 -51q-30 24 -67 24q-21 0 -41 -12
t-20 -35q0 -13 8.5 -23.5t22 -18t30 -11.5t31.5 -4q23 0 56 9t75 23z" />
    <glyph glyph-name="uni0678.init" unicode="&#x678;" 
d="M0 0q-11 0 -23.5 3t-24 8.5t-19 14t-7.5 19.5v57q0 12 7.5 20.5t19 14t24 8t23.5 2.5h278q0 31 -9 57.5t-23 49.5t-30 42t-30 34l71 164q19 -27 37.5 -61t33 -69.5t23.5 -71t9 -65.5q0 -29 -5 -59.5t-13.5 -60t-18 -57t-18.5 -50.5h-305zM406 657q-32 -8 -71 -19.5
t-66 -25.5q-20 -10 -38 -28.5t-32 -38.5l-25 11q4 19 17 45t32 44q-29 11 -48 30.5t-19 41.5t16 51t40 54.5t52 43.5t52 18q25 0 37.5 -13.5t12.5 -31.5q0 -26 -21 -51q-30 24 -67 24q-21 0 -41 -12t-20 -35q0 -13 8.5 -23.5t22 -18t30 -11.5t31.5 -4q23 0 56 9t75 23z" />
    <glyph glyph-name="uni0678.medi" unicode="&#x678;" horiz-adv-x="540" 
d="M415 0q-20 0 -40 7t-36.5 20.5t-28.5 32t-16 41.5h-12l-47 -101h-235q-11 0 -23.5 3t-24 8.5t-19 14t-7.5 19.5v57q0 12 7.5 20.5t19 14t24 8t23.5 2.5h230l40 244l105 69l-35 -211q3 -33 15.5 -53.5t31.5 -31t43 -14t51 -3.5h59v-147h-125zM484 633q-32 -8 -71 -19.5
t-66 -25.5q-20 -10 -38 -28.5t-32 -38.5l-25 11q4 19 17 45t32 44q-29 11 -48 30.5t-19 41.5t16 51t40 54.5t52 43.5t52 18q25 0 37.5 -13.5t12.5 -31.5q0 -26 -21 -51q-30 24 -67 24q-21 0 -41 -12t-20 -35q0 -13 8.5 -23.5t22 -18t30 -11.5t31.5 -4q23 0 56 9t75 23z" />
    <glyph glyph-name="uni0678.fina" unicode="&#x678;" horiz-adv-x="861" 
d="M861 80q9 -5 21.5 -14t25 -19t23.5 -19.5t17 -15.5q12 -13 24.5 -30t23.5 -37l-72 -191q-36 -29 -93 -57t-125.5 -50.5t-144.5 -36t-149 -13.5q-97 0 -161 25.5t-102 66t-53.5 92t-15.5 102.5q0 61 12.5 116t32 103.5t43.5 90.5t47 79l30 -12q-15 -35 -28.5 -67.5
t-23 -65t-15.5 -66.5t-6 -73q0 -56 22 -100t59 -74.5t86.5 -47t105.5 -16.5q87 0 164.5 11t140.5 29t109 40.5t71 46.5q-5 21 -33 42.5t-71.5 39.5t-100 29.5t-117.5 11.5q16 43 30.5 77.5t33.5 69.5h189v-67zM881 392q-32 -8 -71 -19.5t-66 -25.5q-20 -10 -38 -28.5
t-32 -38.5l-25 11q4 19 17 45t32 44q-29 11 -48 30.5t-19 41.5t16 51t40 54.5t52 43.5t52 18q25 0 37.5 -13.5t12.5 -31.5q0 -26 -21 -51q-30 24 -67 24q-21 0 -41 -12t-20 -35q0 -13 8.5 -23.5t22 -18t30 -11.5t31.5 -4q23 0 56 9t75 23z" />
    <glyph glyph-name="uni0679" unicode="&#x679;" horiz-adv-x="1265" arabic-form="isolated" 
d="M296 0q-56 0 -96.5 19t-67 47t-39.5 60.5t-13 59.5q0 66 16 128t58 128l30 -12q-35 -94 -35 -154q0 -18 8.5 -40t31 -42t61 -33.5t99.5 -13.5h755q0 31 -9 57.5t-22.5 49.5t-30 42t-30.5 34l71 164q18 -27 35.5 -60.5t31 -68.5t22 -71t8.5 -67q0 -19 -3 -40t-10 -47.5
t-17.5 -60.5t-25.5 -79h-828zM756 665q6 4 11 8t5 7q0 6 -4 16.5t-12.5 20t-22.5 16.5t-33 7q-17 0 -49 -22.5t-69 -52.5h174zM507 665l30 20l-21 211l45 60h5q1 -15 3 -40.5t4 -57t4 -68t4 -73.5q20 15 39.5 30t38.5 27t36.5 19.5t34.5 7.5q14 0 31.5 -9t32.5 -22.5
t25 -30.5t10 -32q0 -13 -6.5 -27.5t-15.5 -29t-20 -27.5t-20 -23h-284q-14 14 -30 26.5t-30 29.5l3 9h81z" />
    <glyph glyph-name="uni0679.init" unicode="&#x679;" arabic-form="initial" 
d="M0 0q-11 0 -23.5 3t-24 8.5t-19 14t-7.5 19.5v57q0 12 7.5 20.5t19 14t24 8t23.5 2.5h278q0 31 -9 57.5t-23 49.5t-30 42t-30 34l71 164q19 -27 37.5 -61t33 -69.5t23.5 -71t9 -65.5q0 -29 -5 -59.5t-13.5 -60t-18 -57t-18.5 -50.5h-305zM331 665q6 4 11 8t5 7
q0 6 -4 16.5t-12.5 20t-22.5 16.5t-33 7q-17 0 -49 -22.5t-69 -52.5h174zM82 665l30 20l-21 211l45 60h5q1 -15 3 -40.5t4 -57t4 -68t4 -73.5q20 15 39.5 30t38.5 27t36.5 19.5t34.5 7.5q14 0 31.5 -9t32.5 -22.5t25 -30.5t10 -32q0 -13 -6.5 -27.5t-15.5 -29t-20 -27.5
t-20 -23h-284q-14 14 -30 26.5t-30 29.5l3 9h81z" />
    <glyph glyph-name="uni0679.medi" unicode="&#x679;" horiz-adv-x="540" arabic-form="medial" 
d="M415 0q-20 0 -40 7t-36.5 20.5t-28.5 32t-16 41.5h-12l-47 -101h-235q-11 0 -23.5 3t-24 8.5t-19 14t-7.5 19.5v57q0 12 7.5 20.5t19 14t24 8t23.5 2.5h230l40 244l105 69l-35 -211q3 -33 15.5 -53.5t31.5 -31t43 -14t51 -3.5h59v-147h-125zM401 615q6 4 11 8t5 7
q0 6 -4 16.5t-12.5 20t-22.5 16.5t-33 7q-17 0 -49 -22.5t-69 -52.5h174zM152 615l30 20l-21 211l45 60h5q1 -15 3 -40.5t4 -57t4 -68t4 -73.5q20 15 39.5 30t38.5 27t36.5 19.5t34.5 7.5q14 0 31.5 -9t32.5 -22.5t25 -30.5t10 -32q0 -13 -6.5 -27.5t-15.5 -29t-20 -27.5
t-20 -23h-284q-14 14 -30 26.5t-30 29.5l3 9h81z" />
    <glyph glyph-name="uni0679.fina" unicode="&#x679;" horiz-adv-x="1329" arabic-form="final" 
d="M1230 0q-20 0 -40 7t-36.5 20.5t-28.5 32t-16 41.5h-12l-47 -101h-754q-56 0 -96.5 19t-67 47t-39.5 60.5t-13 59.5q0 66 16 128t58 128l30 -12q-35 -94 -35 -154q0 -18 8.5 -40t31 -42t61 -33.5t99.5 -13.5h697l39 244l105 69l-35 -211q3 -33 15.5 -53.5t31.5 -31
t43 -14t51 -3.5h33v-147h-99zM756 665q6 4 11 8t5 7q0 6 -4 16.5t-12.5 20t-22.5 16.5t-33 7q-17 0 -49 -22.5t-69 -52.5h174zM507 665l30 20l-21 211l45 60h5q1 -15 3 -40.5t4 -57t4 -68t4 -73.5q20 15 39.5 30t38.5 27t36.5 19.5t34.5 7.5q14 0 31.5 -9t32.5 -22.5
t25 -30.5t10 -32q0 -13 -6.5 -27.5t-15.5 -29t-20 -27.5t-20 -23h-284q-14 14 -30 26.5t-30 29.5l3 9h81z" />
    <glyph glyph-name="uni067A" unicode="&#x67a;" horiz-adv-x="1265" arabic-form="isolated" 
d="M296 0q-56 0 -96.5 19t-67 47t-39.5 60.5t-13 59.5q0 66 16 128t58 128l30 -12q-35 -94 -35 -154q0 -18 8.5 -40t31 -42t61 -33.5t99.5 -13.5h755q0 31 -9 57.5t-22.5 49.5t-30 42t-30.5 34l71 164q18 -27 35.5 -60.5t31 -68.5t22 -71t8.5 -67q0 -19 -3 -40t-10 -47.5
t-17.5 -60.5t-25.5 -79h-828zM651 600l-127 75l79 105l-88 52l86 115l127 -78l-79 -103l88 -54z" />
    <glyph glyph-name="uni067A.init" unicode="&#x67a;" arabic-form="initial" 
d="M0 0q-11 0 -23.5 3t-24 8.5t-19 14t-7.5 19.5v57q0 12 7.5 20.5t19 14t24 8t23.5 2.5h278q0 31 -9 57.5t-23 49.5t-30 42t-30 34l71 164q19 -27 37.5 -61t33 -69.5t23.5 -71t9 -65.5q0 -29 -5 -59.5t-13.5 -60t-18 -57t-18.5 -50.5h-305zM226 600l-127 75l79 105l-88 52
l86 115l127 -78l-79 -103l88 -54z" />
    <glyph glyph-name="uni067A.medi" unicode="&#x67a;" horiz-adv-x="540" arabic-form="medial" 
d="M415 0q-20 0 -40 7t-36.5 20.5t-28.5 32t-16 41.5h-12l-47 -101h-235q-11 0 -23.5 3t-24 8.5t-19 14t-7.5 19.5v57q0 12 7.5 20.5t19 14t24 8t23.5 2.5h230l40 244l105 69l-35 -211q3 -33 15.5 -53.5t31.5 -31t43 -14t51 -3.5h59v-147h-125zM296 550l-127 75l79 105
l-88 52l86 115l127 -78l-79 -103l88 -54z" />
    <glyph glyph-name="uni067A.fina" unicode="&#x67a;" horiz-adv-x="1329" arabic-form="final" 
d="M1230 0q-20 0 -40 7t-36.5 20.5t-28.5 32t-16 41.5h-12l-47 -101h-754q-56 0 -96.5 19t-67 47t-39.5 60.5t-13 59.5q0 66 16 128t58 128l30 -12q-35 -94 -35 -154q0 -18 8.5 -40t31 -42t61 -33.5t99.5 -13.5h697l39 244l105 69l-35 -211q3 -33 15.5 -53.5t31.5 -31
t43 -14t51 -3.5h33v-147h-99zM651 600l-127 75l79 105l-88 52l86 115l127 -78l-79 -103l88 -54z" />
    <glyph glyph-name="uni067B" unicode="&#x67b;" horiz-adv-x="1265" arabic-form="isolated" 
d="M296 0q-56 0 -96.5 19t-67 47t-39.5 60.5t-13 59.5q0 66 16 128t58 128l30 -12q-35 -94 -35 -154q0 -18 8.5 -40t31 -42t61 -33.5t99.5 -13.5h755q0 31 -9 57.5t-22.5 49.5t-30 42t-30.5 34l71 164q18 -27 35.5 -60.5t31 -68.5t22 -71t8.5 -67q0 -19 -3 -40t-10 -47.5
t-17.5 -60.5t-25.5 -79h-828zM651 -445l-127 75l79 105l-88 52l86 115l127 -78l-79 -103l88 -54z" />
    <glyph glyph-name="uni067B.init" unicode="&#x67b;" arabic-form="initial" 
d="M0 0q-11 0 -23.5 3t-24 8.5t-19 14t-7.5 19.5v57q0 12 7.5 20.5t19 14t24 8t23.5 2.5h278q0 31 -9 57.5t-23 49.5t-30 42t-30 34l71 164q19 -27 37.5 -61t33 -69.5t23.5 -71t9 -65.5q0 -29 -5 -59.5t-13.5 -60t-18 -57t-18.5 -50.5h-305zM226 -445l-127 75l79 105l-88 52
l86 115l127 -78l-79 -103l88 -54z" />
    <glyph glyph-name="uni067B.medi" unicode="&#x67b;" horiz-adv-x="540" arabic-form="medial" 
d="M415 0q-20 0 -40 7t-36.5 20.5t-28.5 32t-16 41.5h-12l-47 -101h-235q-11 0 -23.5 3t-24 8.5t-19 14t-7.5 19.5v57q0 12 7.5 20.5t19 14t24 8t23.5 2.5h230l40 244l105 69l-35 -211q3 -33 15.5 -53.5t31.5 -31t43 -14t51 -3.5h59v-147h-125zM296 -445l-127 75l79 105
l-88 52l86 115l127 -78l-79 -103l88 -54z" />
    <glyph glyph-name="uni067B.fina" unicode="&#x67b;" horiz-adv-x="1329" arabic-form="final" 
d="M1230 0q-20 0 -40 7t-36.5 20.5t-28.5 32t-16 41.5h-12l-47 -101h-754q-56 0 -96.5 19t-67 47t-39.5 60.5t-13 59.5q0 66 16 128t58 128l30 -12q-35 -94 -35 -154q0 -18 8.5 -40t31 -42t61 -33.5t99.5 -13.5h697l39 244l105 69l-35 -211q3 -33 15.5 -53.5t31.5 -31
t43 -14t51 -3.5h33v-147h-99zM651 -445l-127 75l79 105l-88 52l86 115l127 -78l-79 -103l88 -54z" />
    <glyph glyph-name="uni067C.init" unicode="&#x67c;" 
d="M283 -54q0 -27 -5.5 -54.5t-15.5 -44.5q-21 -21 -49.5 -34t-65.5 -13q-13 0 -26 6t-24 17.5t-18 29t-7 40.5q0 14 1.5 29.5t5.5 31.5q3 13 7 24.5t9 21.5h-95q-11 0 -23.5 3t-24 8.5t-19 14t-7.5 19.5v57q0 12 7.5 20.5t19 14t24 8t23.5 2.5h278q0 31 -9 57.5t-23 49.5
t-30 42t-30 34l71 164q19 -27 37.5 -61t33 -69.5t23.5 -71t9 -65.5q0 -29 -5 -59.5t-13.5 -60t-18 -57t-18.5 -50.5h-35q2 -2 3 -5q10 -21 10 -49zM337 614l-121 72l-55 -72l-127 75l86 115l120 -74l56 74l127 -78zM158 -123q58 0 83 28q0 51 -22 71.5t-49 20.5
q-6 0 -15.5 -3.5t-18.5 -12t-16 -22t-7 -32.5q0 -18 10 -34t35 -16z" />
    <glyph glyph-name="uni067C.medi" unicode="&#x67c;" horiz-adv-x="540" 
d="M400 -18q0 -27 -5.5 -54.5t-15.5 -44.5q-21 -21 -49.5 -34t-65.5 -13q-13 0 -26 6t-24 17.5t-18 29t-7 40.5q0 14 1.5 29.5t5.5 31.5q1 2 1.5 5t1.5 5h-199q-11 0 -23.5 3t-24 8.5t-19 14t-7.5 19.5v57q0 12 7.5 20.5t19 14t24 8t23.5 2.5h230l40 244l105 69l-35 -211
q3 -33 15.5 -53.5t31.5 -31t43 -14t51 -3.5h59v-147h-125h-8t-9 1q1 -5 1.5 -9.5t0.5 -9.5zM385 564l-121 72l-55 -72l-127 75l86 115l120 -74l56 74l127 -78zM275 -87q58 0 83 28q0 51 -22 71.5t-49 20.5q-6 0 -15.5 -3.5t-18.5 -12t-16 -22t-7 -32.5q0 -18 10 -34t35 -16z
" />
    <glyph glyph-name="uni067C.fina" unicode="&#x67c;" horiz-adv-x="1329" 
d="M728 -54q0 -27 -5.5 -54.5t-15.5 -44.5q-21 -21 -49.5 -34t-65.5 -13q-13 0 -26 6t-24 17.5t-18 29t-7 40.5q0 14 1.5 29.5t5.5 31.5q3 13 7 24.5t9 21.5h-244q-56 0 -96.5 19t-67 47t-39.5 60.5t-13 59.5q0 66 16 128t58 128l30 -12q-35 -94 -35 -154q0 -18 8.5 -40
t31 -42t61 -33.5t99.5 -13.5h697l39 244l105 69l-35 -211q3 -33 15.5 -53.5t31.5 -31t43 -14t51 -3.5h33v-147h-99q-20 0 -40 7t-36.5 20.5t-28.5 32t-16 41.5h-12l-47 -101h-335q2 -2 3 -5q10 -21 10 -49zM734 564l-121 72l-55 -72l-127 75l86 115l120 -74l56 74l127 -78z
M603 -123q58 0 83 28q0 51 -22 71.5t-49 20.5q-6 0 -15.5 -3.5t-18.5 -12t-16 -22t-7 -32.5q0 -18 10 -34t35 -16z" />
    <glyph glyph-name="uni067D.init" unicode="&#x67d;" 
d="M0 0q-11 0 -23.5 3t-24 8.5t-19 14t-7.5 19.5v57q0 12 7.5 20.5t19 14t24 8t23.5 2.5h278q0 31 -9 57.5t-23 49.5t-30 42t-30 34l71 164q19 -27 37.5 -61t33 -69.5t23.5 -71t9 -65.5q0 -29 -5 -59.5t-13.5 -60t-18 -57t-18.5 -50.5h-305zM240 589l-130 79l83 111l130 -81
zM309 764l-121 72l-55 -72l-127 75l86 115l120 -74l56 74l127 -78z" />
    <glyph glyph-name="uni067D.medi" unicode="&#x67d;" horiz-adv-x="540" 
d="M415 0q-20 0 -40 7t-36.5 20.5t-28.5 32t-16 41.5h-12l-47 -101h-235q-11 0 -23.5 3t-24 8.5t-19 14t-7.5 19.5v57q0 12 7.5 20.5t19 14t24 8t23.5 2.5h230l40 244l105 69l-35 -211q3 -33 15.5 -53.5t31.5 -31t43 -14t51 -3.5h59v-147h-125zM310 539l-130 79l83 111
l130 -81zM379 714l-121 72l-55 -72l-127 75l86 115l120 -74l56 74l127 -78z" />
    <glyph glyph-name="uni067D.fina" unicode="&#x67d;" horiz-adv-x="1329" 
d="M1230 0q-20 0 -40 7t-36.5 20.5t-28.5 32t-16 41.5h-12l-47 -101h-754q-56 0 -96.5 19t-67 47t-39.5 60.5t-13 59.5q0 66 16 128t58 128l30 -12q-35 -94 -35 -154q0 -18 8.5 -40t31 -42t61 -33.5t99.5 -13.5h697l39 244l105 69l-35 -211q3 -33 15.5 -53.5t31.5 -31
t43 -14t51 -3.5h33v-147h-99zM665 439l-130 79l83 111l130 -81zM734 614l-121 72l-55 -72l-127 75l86 115l120 -74l56 74l127 -78z" />
    <glyph glyph-name="uni067E" unicode="&#x67e;" horiz-adv-x="1265" arabic-form="isolated" 
d="M296 0q-56 0 -96.5 19t-67 47t-39.5 60.5t-13 59.5q0 66 16 128t58 128l30 -12q-35 -94 -35 -154q0 -18 8.5 -40t31 -42t61 -33.5t99.5 -13.5h755q0 31 -9 57.5t-22.5 49.5t-30 42t-30.5 34l71 164q18 -27 35.5 -60.5t31 -68.5t22 -71t8.5 -67q0 -19 -3 -40t-10 -47.5
t-17.5 -60.5t-25.5 -79h-828zM665 -458l-130 79l83 111l130 -81zM734 -283l-121 72l-55 -72l-127 75l86 115l120 -74l56 74l127 -78z" />
    <glyph glyph-name="uni067E.init" unicode="&#x67e;" arabic-form="initial" 
d="M0 0q-11 0 -23.5 3t-24 8.5t-19 14t-7.5 19.5v57q0 12 7.5 20.5t19 14t24 8t23.5 2.5h278q0 31 -9 57.5t-23 49.5t-30 42t-30 34l71 164q19 -27 37.5 -61t33 -69.5t23.5 -71t9 -65.5q0 -29 -5 -59.5t-13.5 -60t-18 -57t-18.5 -50.5h-305zM240 -458l-130 79l83 111
l130 -81zM309 -283l-121 72l-55 -72l-127 75l86 115l120 -74l56 74l127 -78z" />
    <glyph glyph-name="uni067E.medi" unicode="&#x67e;" horiz-adv-x="540" arabic-form="medial" 
d="M415 0q-20 0 -40 7t-36.5 20.5t-28.5 32t-16 41.5h-12l-47 -101h-235q-11 0 -23.5 3t-24 8.5t-19 14t-7.5 19.5v57q0 12 7.5 20.5t19 14t24 8t23.5 2.5h230l40 244l105 69l-35 -211q3 -33 15.5 -53.5t31.5 -31t43 -14t51 -3.5h59v-147h-125zM312 -458l-130 79l83 111
l130 -81zM381 -283l-121 72l-55 -72l-127 75l86 115l120 -74l56 74l127 -78z" />
    <glyph glyph-name="uni067E.fina" unicode="&#x67e;" horiz-adv-x="1329" arabic-form="final" 
d="M1230 0q-20 0 -40 7t-36.5 20.5t-28.5 32t-16 41.5h-12l-47 -101h-754q-56 0 -96.5 19t-67 47t-39.5 60.5t-13 59.5q0 66 16 128t58 128l30 -12q-35 -94 -35 -154q0 -18 8.5 -40t31 -42t61 -33.5t99.5 -13.5h697l39 244l105 69l-35 -211q3 -33 15.5 -53.5t31.5 -31
t43 -14t51 -3.5h33v-147h-99zM665 -458l-130 79l83 111l130 -81zM734 -283l-121 72l-55 -72l-127 75l86 115l120 -74l56 74l127 -78z" />
    <glyph glyph-name="uni067F" unicode="&#x67f;" horiz-adv-x="1265" arabic-form="isolated" 
d="M296 0q-56 0 -96.5 19t-67 47t-39.5 60.5t-13 59.5q0 66 16 128t58 128l30 -12q-35 -94 -35 -154q0 -18 8.5 -40t31 -42t61 -33.5t99.5 -13.5h755q0 31 -9 57.5t-22.5 49.5t-30 42t-30.5 34l71 164q18 -27 35.5 -60.5t31 -68.5t22 -71t8.5 -67q0 -19 -3 -40t-10 -47.5
t-17.5 -60.5t-25.5 -79h-828zM542 733l96 -59l60 80l-96 56zM734 564l-121 72l-55 -72l-127 75l85 113l-94 55l86 115l121 -74l55 74l127 -78l-85 -111l94 -57z" />
    <glyph glyph-name="uni067F.init" unicode="&#x67f;" arabic-form="initial" 
d="M0 0q-11 0 -23.5 3t-24 8.5t-19 14t-7.5 19.5v57q0 12 7.5 20.5t19 14t24 8t23.5 2.5h278q0 31 -9 57.5t-23 49.5t-30 42t-30 34l71 164q19 -27 37.5 -61t33 -69.5t23.5 -71t9 -65.5q0 -29 -5 -59.5t-13.5 -60t-18 -57t-18.5 -50.5h-305zM117 783l96 -59l60 80l-96 56z
M309 614l-121 72l-55 -72l-127 75l85 113l-94 55l86 115l121 -74l55 74l127 -78l-85 -111l94 -57z" />
    <glyph glyph-name="uni067F.medi" unicode="&#x67f;" horiz-adv-x="540" arabic-form="medial" 
d="M415 0q-20 0 -40 7t-36.5 20.5t-28.5 32t-16 41.5h-12l-47 -101h-235q-11 0 -23.5 3t-24 8.5t-19 14t-7.5 19.5v57q0 12 7.5 20.5t19 14t24 8t23.5 2.5h230l40 244l105 69l-35 -211q3 -33 15.5 -53.5t31.5 -31t43 -14t51 -3.5h59v-147h-125zM187 733l96 -59l60 80l-96 56
zM379 564l-121 72l-55 -72l-127 75l85 113l-94 55l86 115l121 -74l55 74l127 -78l-85 -111l94 -57z" />
    <glyph glyph-name="uni067F.fina" unicode="&#x67f;" horiz-adv-x="1329" arabic-form="final" 
d="M1230 0q-20 0 -40 7t-36.5 20.5t-28.5 32t-16 41.5h-12l-47 -101h-754q-56 0 -96.5 19t-67 47t-39.5 60.5t-13 59.5q0 66 16 128t58 128l30 -12q-35 -94 -35 -154q0 -18 8.5 -40t31 -42t61 -33.5t99.5 -13.5h697l39 244l105 69l-35 -211q3 -33 15.5 -53.5t31.5 -31
t43 -14t51 -3.5h33v-147h-99zM542 733l96 -59l60 80l-96 56zM734 564l-121 72l-55 -72l-127 75l85 113l-94 55l86 115l121 -74l55 74l127 -78l-85 -111l94 -57z" />
    <glyph glyph-name="uni0680" unicode="&#x680;" horiz-adv-x="1265" arabic-form="isolated" 
d="M296 0q-56 0 -96.5 19t-67 47t-39.5 60.5t-13 59.5q0 66 16 128t58 128l30 -12q-35 -94 -35 -154q0 -18 8.5 -40t31 -42t61 -33.5t99.5 -13.5h755q0 31 -9 57.5t-22.5 49.5t-30 42t-30.5 34l71 164q18 -27 35.5 -60.5t31 -68.5t22 -71t8.5 -67q0 -19 -3 -40t-10 -47.5
t-17.5 -60.5t-25.5 -79h-828zM542 -314l96 -59l60 80l-96 56zM734 -483l-121 72l-55 -72l-127 75l85 113l-94 55l86 115l121 -74l55 74l127 -78l-85 -111l94 -57z" />
    <glyph glyph-name="uni0680.init" unicode="&#x680;" arabic-form="initial" 
d="M0 0q-11 0 -23.5 3t-24 8.5t-19 14t-7.5 19.5v57q0 12 7.5 20.5t19 14t24 8t23.5 2.5h278q0 31 -9 57.5t-23 49.5t-30 42t-30 34l71 164q19 -27 37.5 -61t33 -69.5t23.5 -71t9 -65.5q0 -29 -5 -59.5t-13.5 -60t-18 -57t-18.5 -50.5h-305zM117 -314l96 -59l60 80l-96 56z
M309 -483l-121 72l-55 -72l-127 75l85 113l-94 55l86 115l121 -74l55 74l127 -78l-85 -111l94 -57z" />
    <glyph glyph-name="uni0680.medi" unicode="&#x680;" horiz-adv-x="540" arabic-form="medial" 
d="M415 0q-20 0 -40 7t-36.5 20.5t-28.5 32t-16 41.5h-12l-47 -101h-235q-11 0 -23.5 3t-24 8.5t-19 14t-7.5 19.5v57q0 12 7.5 20.5t19 14t24 8t23.5 2.5h230l40 244l105 69l-35 -211q3 -33 15.5 -53.5t31.5 -31t43 -14t51 -3.5h59v-147h-125zM187 -294l96 -59l60 80
l-96 56zM379 -463l-121 72l-55 -72l-127 75l85 113l-94 55l86 115l121 -74l55 74l127 -78l-85 -111l94 -57z" />
    <glyph glyph-name="uni0680.fina" unicode="&#x680;" horiz-adv-x="1329" arabic-form="final" 
d="M1230 0q-20 0 -40 7t-36.5 20.5t-28.5 32t-16 41.5h-12l-47 -101h-754q-56 0 -96.5 19t-67 47t-39.5 60.5t-13 59.5q0 66 16 128t58 128l30 -12q-35 -94 -35 -154q0 -18 8.5 -40t31 -42t61 -33.5t99.5 -13.5h697l39 244l105 69l-35 -211q3 -33 15.5 -53.5t31.5 -31
t43 -14t51 -3.5h33v-147h-99zM542 -314l96 -59l60 80l-96 56zM734 -483l-121 72l-55 -72l-127 75l85 113l-94 55l86 115l121 -74l55 74l127 -78l-85 -111l94 -57z" />
    <glyph glyph-name="uni0681.init" unicode="&#x681;" horiz-adv-x="1055" 
d="M895 173q-44 2 -81 12t-75 10q-28 0 -56 -8t-55 -20t-52.5 -27t-48.5 -29q-36 -22 -74 -42t-84.5 -35.5t-104.5 -24.5t-133 -9h-131q-11 0 -23.5 3t-24 8.5t-19 14t-7.5 19.5v57q0 12 7.5 20.5t19 14t24 8t23.5 2.5h171q84 0 149 13.5t117 32t93 39t76 34.5
q-47 18 -91 37.5t-86.5 36t-83.5 27.5t-82 11q-21 0 -35.5 -6.5t-25.5 -16.5t-19 -21.5t-16 -21.5l-29 16q20 50 39 87.5t41 62.5t49 37.5t62 12.5q26 0 56.5 -7.5t65 -19.5t72 -28t76.5 -34q46 -21 94.5 -42t95.5 -38t93 -27.5t88 -10.5zM561 757q-32 -8 -71 -19.5
t-66 -25.5q-20 -10 -38 -28.5t-32 -38.5l-25 11q4 19 17 45t32 44q-29 11 -48 30.5t-19 41.5t16 51t40 54.5t52 43.5t52 18q25 0 37.5 -13.5t12.5 -31.5q0 -26 -21 -51q-30 24 -67 24q-21 0 -41 -12t-20 -35q0 -13 8.5 -23.5t22 -18t30 -11.5t31.5 -4q23 0 56 9t75 23z" />
    <glyph glyph-name="uni0681.medi" unicode="&#x681;" horiz-adv-x="1063" 
d="M799 0q-67 0 -106 9.5t-59.5 30t-26 53t-5.5 79.5v33q-35 -35 -85.5 -71.5t-111 -66t-129 -48.5t-138.5 -19h-138q-11 0 -23.5 3t-24 8.5t-19 14t-7.5 19.5v57q0 12 7.5 20.5t19 14t24 8t23.5 2.5h195q61 0 120 15.5t114 39t105.5 52t95.5 55.5l-68 19q-41 11 -78.5 22
t-74 20t-73 15t-73.5 6q-20 0 -35 -8.5t-26 -21t-19.5 -26t-15.5 -23.5l-29 16q20 51 39.5 91t41 67t48.5 41t62 14q45 0 95.5 -12.5t113.5 -32.5q45 -14 95 -28.5t104.5 -26.5t113.5 -19.5t122 -7.5l-66 -148q-70 0 -123 10q-45 0 -74 -9t-55 -24q0 -35 12 -54.5t35 -28.5
t56 -11t74 -2h231v-147h-264zM561 757q-32 -8 -71 -19.5t-66 -25.5q-20 -10 -38 -28.5t-32 -38.5l-25 11q4 19 17 45t32 44q-29 11 -48 30.5t-19 41.5t16 51t40 54.5t52 43.5t52 18q25 0 37.5 -13.5t12.5 -31.5q0 -26 -21 -51q-30 24 -67 24q-21 0 -41 -12t-20 -35
q0 -13 8.5 -23.5t22 -18t30 -11.5t31.5 -4q23 0 56 9t75 23z" />
    <glyph glyph-name="uni0681.fina" unicode="&#x681;" horiz-adv-x="927" 
d="M742 0q-59 0 -98 4.5t-62 21t-33 48t-10 86.5q0 14 1.5 31t4.5 35t6 35t6 32q-89 -30 -160.5 -76.5t-121.5 -108t-76.5 -137.5t-26.5 -166q0 -64 30 -109t85.5 -75.5t132.5 -48.5t170.5 -27t201.5 -11.5t224 -2.5l7 -33q-53 -20 -111 -40t-114.5 -36t-107.5 -26t-90 -10
q-118 0 -199 17t-134.5 45.5t-83 66.5t-43 80t-16.5 85.5t-3 83.5q0 96 21.5 170.5t51 130t61 93t52.5 58.5q33 33 80 68.5t95 61.5q-72 8 -140 14.5t-137 6.5q-35 0 -57.5 -10t-38.5 -31l-29 16q17 47 36 80t42.5 54t52.5 30.5t66 9.5t93 -6q72 -8 187 -16.5t281 -8.5
l-66 -149q-83 -7 -157 -27q-5 -17 -9 -38t-4 -35q0 -32 15 -49.5t40.5 -26.5t58.5 -11t69 -2h142v-147h-185zM561 757q-32 -8 -71 -19.5t-66 -25.5q-20 -10 -38 -28.5t-32 -38.5l-25 11q4 19 17 45t32 44q-29 11 -48 30.5t-19 41.5t16 51t40 54.5t52 43.5t52 18
q25 0 37.5 -13.5t12.5 -31.5q0 -26 -21 -51q-30 24 -67 24q-21 0 -41 -12t-20 -35q0 -13 8.5 -23.5t22 -18t30 -11.5t31.5 -4q23 0 56 9t75 23z" />
    <glyph glyph-name="uni0682.init" unicode="&#x682;" horiz-adv-x="1055" 
d="M895 173q-44 2 -81 12t-75 10q-28 0 -56 -8t-55 -20t-52.5 -27t-48.5 -29q-36 -22 -74 -42t-84.5 -35.5t-104.5 -24.5t-133 -9h-131q-11 0 -23.5 3t-24 8.5t-19 14t-7.5 19.5v57q0 12 7.5 20.5t19 14t24 8t23.5 2.5h171q84 0 149 13.5t117 32t93 39t76 34.5
q-47 18 -91 37.5t-86.5 36t-83.5 27.5t-82 11q-21 0 -35.5 -6.5t-25.5 -16.5t-19 -21.5t-16 -21.5l-29 16q20 50 39 87.5t41 62.5t49 37.5t62 12.5q26 0 56.5 -7.5t65 -19.5t72 -28t76.5 -34q46 -21 94.5 -42t95.5 -38t93 -27.5t88 -10.5zM471 650l-127 75l79 105l-88 52
l86 115l127 -78l-79 -103l88 -54z" />
    <glyph glyph-name="uni0682.medi" unicode="&#x682;" horiz-adv-x="1063" 
d="M799 0q-67 0 -106 9.5t-59.5 30t-26 53t-5.5 79.5v33q-35 -35 -85.5 -71.5t-111 -66t-129 -48.5t-138.5 -19h-138q-11 0 -23.5 3t-24 8.5t-19 14t-7.5 19.5v57q0 12 7.5 20.5t19 14t24 8t23.5 2.5h195q61 0 120 15.5t114 39t105.5 52t95.5 55.5l-68 19q-41 11 -78.5 22
t-74 20t-73 15t-73.5 6q-20 0 -35 -8.5t-26 -21t-19.5 -26t-15.5 -23.5l-29 16q20 51 39.5 91t41 67t48.5 41t62 14q45 0 95.5 -12.5t113.5 -32.5q45 -14 95 -28.5t104.5 -26.5t113.5 -19.5t122 -7.5l-66 -148q-70 0 -123 10q-45 0 -74 -9t-55 -24q0 -35 12 -54.5t35 -28.5
t56 -11t74 -2h231v-147h-264zM471 650l-127 75l79 105l-88 52l86 115l127 -78l-79 -103l88 -54z" />
    <glyph glyph-name="uni0682.fina" unicode="&#x682;" horiz-adv-x="927" 
d="M742 0q-59 0 -98 4.5t-62 21t-33 48t-10 86.5q0 14 1.5 31t4.5 35t6 35t6 32q-89 -30 -160.5 -76.5t-121.5 -108t-76.5 -137.5t-26.5 -166q0 -64 30 -109t85.5 -75.5t132.5 -48.5t170.5 -27t201.5 -11.5t224 -2.5l7 -33q-53 -20 -111 -40t-114.5 -36t-107.5 -26t-90 -10
q-118 0 -199 17t-134.5 45.5t-83 66.5t-43 80t-16.5 85.5t-3 83.5q0 96 21.5 170.5t51 130t61 93t52.5 58.5q33 33 80 68.5t95 61.5q-72 8 -140 14.5t-137 6.5q-35 0 -57.5 -10t-38.5 -31l-29 16q17 47 36 80t42.5 54t52.5 30.5t66 9.5t93 -6q72 -8 187 -16.5t281 -8.5
l-66 -149q-83 -7 -157 -27q-5 -17 -9 -38t-4 -35q0 -32 15 -49.5t40.5 -26.5t58.5 -11t69 -2h142v-147h-185zM471 650l-127 75l79 105l-88 52l86 115l127 -78l-79 -103l88 -54z" />
    <glyph glyph-name="uni0683" unicode="&#x683;" horiz-adv-x="1028" arabic-form="isolated" 
d="M1023 -502q-53 -20 -111 -40t-114.5 -36t-107.5 -26t-90 -10q-118 0 -199 17t-134.5 45.5t-83 66.5t-43 80t-16.5 85.5t-3 83.5q0 96 21.5 170.5t51 130t61 93t52.5 58.5q33 33 80.5 68.5t95.5 61.5q-72 8 -140.5 14.5t-137.5 6.5q-35 0 -57.5 -18t-38.5 -39l-29 16
q17 47 36 83.5t42.5 61t54 37.5t69.5 13q19 0 45 -2.5t54 -5.5q72 -8 184 -18t278 -10l-66 -149q-21 -2 -43 -5t-48 -7.5t-57.5 -12t-71.5 -18.5q-89 -30 -160.5 -76.5t-121.5 -108t-76.5 -137.5t-26.5 -166q0 -64 30 -109t85.5 -75.5t132.5 -48.5t170.5 -27t201.5 -11.5
t224 -2.5zM700 -223l-121 72l-55 -72l-127 75l86 115l120 -74l56 74l127 -78z" />
    <glyph glyph-name="uni0683.init" unicode="&#x683;" horiz-adv-x="1055" arabic-form="initial" 
d="M895 173q-44 2 -81 12t-75 10q-28 0 -56 -8t-55 -20t-52.5 -27t-48.5 -29q-36 -22 -74 -42t-84.5 -35.5t-104.5 -24.5t-133 -9h-131q-11 0 -23.5 3t-24 8.5t-19 14t-7.5 19.5v57q0 12 7.5 20.5t19 14t24 8t23.5 2.5h171q84 0 149 13.5t117 32t93 39t76 34.5
q-47 18 -91 37.5t-86.5 36t-83.5 27.5t-82 11q-21 0 -35.5 -6.5t-25.5 -16.5t-19 -21.5t-16 -21.5l-29 16q20 50 39 87.5t41 62.5t49 37.5t62 12.5q26 0 56.5 -7.5t65 -19.5t72 -28t76.5 -34q46 -21 94.5 -42t95.5 -38t93 -27.5t88 -10.5zM554 -283l-121 72l-55 -72l-127 75
l86 115l120 -74l56 74l127 -78z" />
    <glyph glyph-name="uni0683.medi" unicode="&#x683;" horiz-adv-x="1063" arabic-form="medial" 
d="M799 0q-67 0 -106 9.5t-59.5 30t-26 53t-5.5 79.5v33q-35 -35 -85.5 -71.5t-111 -66t-129 -48.5t-138.5 -19h-138q-11 0 -23.5 3t-24 8.5t-19 14t-7.5 19.5v57q0 12 7.5 20.5t19 14t24 8t23.5 2.5h195q61 0 120 15.5t114 39t105.5 52t95.5 55.5l-68 19q-41 11 -78.5 22
t-74 20t-73 15t-73.5 6q-20 0 -35 -8.5t-26 -21t-19.5 -26t-15.5 -23.5l-29 16q20 51 39.5 91t41 67t48.5 41t62 14q45 0 95.5 -12.5t113.5 -32.5q45 -14 95 -28.5t104.5 -26.5t113.5 -19.5t122 -7.5l-66 -148q-70 0 -123 10q-45 0 -74 -9t-55 -24q0 -35 12 -54.5t35 -28.5
t56 -11t74 -2h231v-147h-264zM554 -283l-121 72l-55 -72l-127 75l86 115l120 -74l56 74l127 -78z" />
    <glyph glyph-name="uni0683.fina" unicode="&#x683;" horiz-adv-x="927" arabic-form="final" 
d="M742 0q-59 0 -98 4.5t-62 21t-33 48t-10 86.5q0 14 1.5 31t4.5 35t6 35t6 32q-89 -30 -160.5 -76.5t-121.5 -108t-76.5 -137.5t-26.5 -166q0 -64 30 -109t85.5 -75.5t132.5 -48.5t170.5 -27t201.5 -11.5t224 -2.5l7 -33q-53 -20 -111 -40t-114.5 -36t-107.5 -26t-90 -10
q-118 0 -199 17t-134.5 45.5t-83 66.5t-43 80t-16.5 85.5t-3 83.5q0 96 21.5 170.5t51 130t61 93t52.5 58.5q33 33 80 68.5t95 61.5q-72 8 -140 14.5t-137 6.5q-35 0 -57.5 -10t-38.5 -31l-29 16q17 47 36 80t42.5 54t52.5 30.5t66 9.5t93 -6q72 -8 187 -16.5t281 -8.5
l-66 -149q-83 -7 -157 -27q-5 -17 -9 -38t-4 -35q0 -32 15 -49.5t40.5 -26.5t58.5 -11t69 -2h142v-147h-185zM652 -284l-121 72l-55 -72l-127 75l86 115l120 -74l56 74l127 -78z" />
    <glyph glyph-name="uni0684" unicode="&#x684;" horiz-adv-x="1028" arabic-form="isolated" 
d="M1023 -502q-53 -20 -111 -40t-114.5 -36t-107.5 -26t-90 -10q-118 0 -199 17t-134.5 45.5t-83 66.5t-43 80t-16.5 85.5t-3 83.5q0 96 21.5 170.5t51 130t61 93t52.5 58.5q33 33 80.5 68.5t95.5 61.5q-72 8 -140.5 14.5t-137.5 6.5q-35 0 -57.5 -18t-38.5 -39l-29 16
q17 47 36 83.5t42.5 61t54 37.5t69.5 13q19 0 45 -2.5t54 -5.5q72 -8 184 -18t278 -10l-66 -149q-21 -2 -43 -5t-48 -7.5t-57.5 -12t-71.5 -18.5q-89 -30 -160.5 -76.5t-121.5 -108t-76.5 -137.5t-26.5 -166q0 -64 30 -109t85.5 -75.5t132.5 -48.5t170.5 -27t201.5 -11.5
t224 -2.5zM605 -297l-127 75l79 105l-88 52l86 115l127 -78l-79 -103l88 -54z" />
    <glyph glyph-name="uni0684.init" unicode="&#x684;" horiz-adv-x="1055" arabic-form="initial" 
d="M895 173q-44 2 -81 12t-75 10q-28 0 -56 -8t-55 -20t-52.5 -27t-48.5 -29q-36 -22 -74 -42t-84.5 -35.5t-104.5 -24.5t-133 -9h-131q-11 0 -23.5 3t-24 8.5t-19 14t-7.5 19.5v57q0 12 7.5 20.5t19 14t24 8t23.5 2.5h171q84 0 149 13.5t117 32t93 39t76 34.5
q-47 18 -91 37.5t-86.5 36t-83.5 27.5t-82 11q-21 0 -35.5 -6.5t-25.5 -16.5t-19 -21.5t-16 -21.5l-29 16q20 50 39 87.5t41 62.5t49 37.5t62 12.5q26 0 56.5 -7.5t65 -19.5t72 -28t76.5 -34q46 -21 94.5 -42t95.5 -38t93 -27.5t88 -10.5zM471 -445l-127 75l79 105l-88 52
l86 115l127 -78l-79 -103l88 -54z" />
    <glyph glyph-name="uni0684.medi" unicode="&#x684;" horiz-adv-x="1063" arabic-form="medial" 
d="M799 0q-67 0 -106 9.5t-59.5 30t-26 53t-5.5 79.5v33q-35 -35 -85.5 -71.5t-111 -66t-129 -48.5t-138.5 -19h-138q-11 0 -23.5 3t-24 8.5t-19 14t-7.5 19.5v57q0 12 7.5 20.5t19 14t24 8t23.5 2.5h195q61 0 120 15.5t114 39t105.5 52t95.5 55.5l-68 19q-41 11 -78.5 22
t-74 20t-73 15t-73.5 6q-20 0 -35 -8.5t-26 -21t-19.5 -26t-15.5 -23.5l-29 16q20 51 39.5 91t41 67t48.5 41t62 14q45 0 95.5 -12.5t113.5 -32.5q45 -14 95 -28.5t104.5 -26.5t113.5 -19.5t122 -7.5l-66 -148q-70 0 -123 10q-45 0 -74 -9t-55 -24q0 -35 12 -54.5t35 -28.5
t56 -11t74 -2h231v-147h-264zM471 -445l-127 75l79 105l-88 52l86 115l127 -78l-79 -103l88 -54z" />
    <glyph glyph-name="uni0684.fina" unicode="&#x684;" horiz-adv-x="927" arabic-form="final" 
d="M742 0q-59 0 -98 4.5t-62 21t-33 48t-10 86.5q0 14 1.5 31t4.5 35t6 35t6 32q-89 -30 -160.5 -76.5t-121.5 -108t-76.5 -137.5t-26.5 -166q0 -64 30 -109t85.5 -75.5t132.5 -48.5t170.5 -27t201.5 -11.5t224 -2.5l7 -33q-53 -20 -111 -40t-114.5 -36t-107.5 -26t-90 -10
q-118 0 -199 17t-134.5 45.5t-83 66.5t-43 80t-16.5 85.5t-3 83.5q0 96 21.5 170.5t51 130t61 93t52.5 58.5q33 33 80 68.5t95 61.5q-72 8 -140 14.5t-137 6.5q-35 0 -57.5 -10t-38.5 -31l-29 16q17 47 36 80t42.5 54t52.5 30.5t66 9.5t93 -6q72 -8 187 -16.5t281 -8.5
l-66 -149q-83 -7 -157 -27q-5 -17 -9 -38t-4 -35q0 -32 15 -49.5t40.5 -26.5t58.5 -11t69 -2h142v-147h-185zM514 -345l-103 60l64 86l-72 42l70 93l104 -63l-65 -84l71 -43z" />
    <glyph glyph-name="uni0685.init" unicode="&#x685;" horiz-adv-x="1055" 
d="M895 173q-44 2 -81 12t-75 10q-28 0 -56 -8t-55 -20t-52.5 -27t-48.5 -29q-36 -22 -74 -42t-84.5 -35.5t-104.5 -24.5t-133 -9h-131q-11 0 -23.5 3t-24 8.5t-19 14t-7.5 19.5v57q0 12 7.5 20.5t19 14t24 8t23.5 2.5h171q84 0 149 13.5t117 32t93 39t76 34.5
q-47 18 -91 37.5t-86.5 36t-83.5 27.5t-82 11q-21 0 -35.5 -6.5t-25.5 -16.5t-19 -21.5t-16 -21.5l-29 16q20 50 39 87.5t41 62.5t49 37.5t62 12.5q26 0 56.5 -7.5t65 -19.5t72 -28t76.5 -34q46 -21 94.5 -42t95.5 -38t93 -27.5t88 -10.5zM446 858l-130 79l83 111l130 -81z
M554 684l-121 72l-55 -72l-127 75l86 115l120 -74l56 74l127 -78z" />
    <glyph glyph-name="uni0685.medi" unicode="&#x685;" horiz-adv-x="1063" 
d="M799 0q-67 0 -106 9.5t-59.5 30t-26 53t-5.5 79.5v33q-35 -35 -85.5 -71.5t-111 -66t-129 -48.5t-138.5 -19h-138q-11 0 -23.5 3t-24 8.5t-19 14t-7.5 19.5v57q0 12 7.5 20.5t19 14t24 8t23.5 2.5h195q61 0 120 15.5t114 39t105.5 52t95.5 55.5l-68 19q-41 11 -78.5 22
t-74 20t-73 15t-73.5 6q-20 0 -35 -8.5t-26 -21t-19.5 -26t-15.5 -23.5l-29 16q20 51 39.5 91t41 67t48.5 41t62 14q45 0 95.5 -12.5t113.5 -32.5q45 -14 95 -28.5t104.5 -26.5t113.5 -19.5t122 -7.5l-66 -148q-70 0 -123 10q-45 0 -74 -9t-55 -24q0 -35 12 -54.5t35 -28.5
t56 -11t74 -2h231v-147h-264zM446 858l-130 79l83 111l130 -81zM554 684l-121 72l-55 -72l-127 75l86 115l120 -74l56 74l127 -78z" />
    <glyph glyph-name="uni0685.fina" unicode="&#x685;" horiz-adv-x="927" 
d="M742 0q-59 0 -98 4.5t-62 21t-33 48t-10 86.5q0 14 1.5 31t4.5 35t6 35t6 32q-89 -30 -160.5 -76.5t-121.5 -108t-76.5 -137.5t-26.5 -166q0 -64 30 -109t85.5 -75.5t132.5 -48.5t170.5 -27t201.5 -11.5t224 -2.5l7 -33q-53 -20 -111 -40t-114.5 -36t-107.5 -26t-90 -10
q-118 0 -199 17t-134.5 45.5t-83 66.5t-43 80t-16.5 85.5t-3 83.5q0 96 21.5 170.5t51 130t61 93t52.5 58.5q33 33 80 68.5t95 61.5q-72 8 -140 14.5t-137 6.5q-35 0 -57.5 -10t-38.5 -31l-29 16q17 47 36 80t42.5 54t52.5 30.5t66 9.5t93 -6q72 -8 187 -16.5t281 -8.5
l-66 -149q-83 -7 -157 -27q-5 -17 -9 -38t-4 -35q0 -32 15 -49.5t40.5 -26.5t58.5 -11t69 -2h142v-147h-185zM446 858l-130 79l83 111l130 -81zM554 684l-121 72l-55 -72l-127 75l86 115l120 -74l56 74l127 -78z" />
    <glyph glyph-name="uni0686" unicode="&#x686;" horiz-adv-x="1028" arabic-form="isolated" 
d="M1023 -502q-53 -20 -111 -40t-114.5 -36t-107.5 -26t-90 -10q-118 0 -199 17t-134.5 45.5t-83 66.5t-43 80t-16.5 85.5t-3 83.5q0 96 21.5 170.5t51 130t61 93t52.5 58.5q33 33 80.5 68.5t95.5 61.5q-72 8 -140.5 14.5t-137.5 6.5q-35 0 -57.5 -18t-38.5 -39l-29 16
q17 47 36 83.5t42.5 61t54 37.5t69.5 13q19 0 45 -2.5t54 -5.5q72 -8 184 -18t278 -10l-66 -149q-21 -2 -43 -5t-48 -7.5t-57.5 -12t-71.5 -18.5q-89 -30 -160.5 -76.5t-121.5 -108t-76.5 -137.5t-26.5 -166q0 -64 30 -109t85.5 -75.5t132.5 -48.5t170.5 -27t201.5 -11.5
t224 -2.5zM624 -306l-130 79l83 111l130 -81zM693 -131l-121 72l-55 -72l-127 75l86 115l120 -74l56 74l127 -78z" />
    <glyph glyph-name="uni0686.init" unicode="&#x686;" horiz-adv-x="1055" arabic-form="initial" 
d="M895 173q-44 2 -81 12t-75 10q-28 0 -56 -8t-55 -20t-52.5 -27t-48.5 -29q-36 -22 -74 -42t-84.5 -35.5t-104.5 -24.5t-133 -9h-131q-11 0 -23.5 3t-24 8.5t-19 14t-7.5 19.5v57q0 12 7.5 20.5t19 14t24 8t23.5 2.5h171q84 0 149 13.5t117 32t93 39t76 34.5
q-47 18 -91 37.5t-86.5 36t-83.5 27.5t-82 11q-21 0 -35.5 -6.5t-25.5 -16.5t-19 -21.5t-16 -21.5l-29 16q20 50 39 87.5t41 62.5t49 37.5t62 12.5q26 0 56.5 -7.5t65 -19.5t72 -28t76.5 -34q46 -21 94.5 -42t95.5 -38t93 -27.5t88 -10.5zM485 -458l-130 79l83 111l130 -81z
M554 -283l-121 72l-55 -72l-127 75l86 115l120 -74l56 74l127 -78z" />
    <glyph glyph-name="uni0686.medi" unicode="&#x686;" horiz-adv-x="1063" arabic-form="medial" 
d="M799 0q-67 0 -106 9.5t-59.5 30t-26 53t-5.5 79.5v33q-35 -35 -85.5 -71.5t-111 -66t-129 -48.5t-138.5 -19h-138q-11 0 -23.5 3t-24 8.5t-19 14t-7.5 19.5v57q0 12 7.5 20.5t19 14t24 8t23.5 2.5h195q61 0 120 15.5t114 39t105.5 52t95.5 55.5l-68 19q-41 11 -78.5 22
t-74 20t-73 15t-73.5 6q-20 0 -35 -8.5t-26 -21t-19.5 -26t-15.5 -23.5l-29 16q20 51 39.5 91t41 67t48.5 41t62 14q45 0 95.5 -12.5t113.5 -32.5q45 -14 95 -28.5t104.5 -26.5t113.5 -19.5t122 -7.5l-66 -148q-70 0 -123 10q-45 0 -74 -9t-55 -24q0 -35 12 -54.5t35 -28.5
t56 -11t74 -2h231v-147h-264zM485 -458l-130 79l83 111l130 -81zM554 -283l-121 72l-55 -72l-127 75l86 115l120 -74l56 74l127 -78z" />
    <glyph glyph-name="uni0686.fina" unicode="&#x686;" horiz-adv-x="927" arabic-form="final" 
d="M742 0q-59 0 -98 4.5t-62 21t-33 48t-10 86.5q0 14 1.5 31t4.5 35t6 35t6 32q-89 -30 -160.5 -76.5t-121.5 -108t-76.5 -137.5t-26.5 -166q0 -64 30 -109t85.5 -75.5t132.5 -48.5t170.5 -27t201.5 -11.5t224 -2.5l7 -33q-53 -20 -111 -40t-114.5 -36t-107.5 -26t-90 -10
q-118 0 -199 17t-134.5 45.5t-83 66.5t-43 80t-16.5 85.5t-3 83.5q0 96 21.5 170.5t51 130t61 93t52.5 58.5q33 33 80 68.5t95 61.5q-72 8 -140 14.5t-137 6.5q-35 0 -57.5 -10t-38.5 -31l-29 16q17 47 36 80t42.5 54t52.5 30.5t66 9.5t93 -6q72 -8 187 -16.5t281 -8.5
l-66 -149q-83 -7 -157 -27q-5 -17 -9 -38t-4 -35q0 -32 15 -49.5t40.5 -26.5t58.5 -11t69 -2h142v-147h-185zM601 -257l-68 -89l-105 64l67 90zM589 -205l-98 58l-45 -58l-102 61l69 94l98 -61l45 61l104 -64z" />
    <glyph glyph-name="uni0687" unicode="&#x687;" horiz-adv-x="1028" arabic-form="isolated" 
d="M1023 -502q-53 -20 -111 -40t-114.5 -36t-107.5 -26t-90 -10q-118 0 -199 17t-134.5 45.5t-83 66.5t-43 80t-16.5 85.5t-3 83.5q0 96 21.5 170.5t51 130t61 93t52.5 58.5q33 33 80.5 68.5t95.5 61.5q-72 8 -140.5 14.5t-137.5 6.5q-35 0 -57.5 -18t-38.5 -39l-29 16
q17 47 36 83.5t42.5 61t54 37.5t69.5 13q19 0 45 -2.5t54 -5.5q72 -8 184 -18t278 -10l-66 -149q-21 -2 -43 -5t-48 -7.5t-57.5 -12t-71.5 -18.5q-89 -30 -160.5 -76.5t-121.5 -108t-76.5 -137.5t-26.5 -166q0 -64 30 -109t85.5 -75.5t132.5 -48.5t170.5 -27t201.5 -11.5
t224 -2.5zM512 -133l96 -59l60 80l-96 56zM704 -302l-121 72l-55 -72l-127 75l85 113l-94 55l86 115l121 -74l55 74l127 -78l-85 -111l94 -57z" />
    <glyph glyph-name="uni0687.init" unicode="&#x687;" horiz-adv-x="1055" arabic-form="initial" 
d="M895 173q-44 2 -81 12t-75 10q-28 0 -56 -8t-55 -20t-52.5 -27t-48.5 -29q-36 -22 -74 -42t-84.5 -35.5t-104.5 -24.5t-133 -9h-131q-11 0 -23.5 3t-24 8.5t-19 14t-7.5 19.5v57q0 12 7.5 20.5t19 14t24 8t23.5 2.5h171q84 0 149 13.5t117 32t93 39t76 34.5
q-47 18 -91 37.5t-86.5 36t-83.5 27.5t-82 11q-21 0 -35.5 -6.5t-25.5 -16.5t-19 -21.5t-16 -21.5l-29 16q20 50 39 87.5t41 62.5t49 37.5t62 12.5q26 0 56.5 -7.5t65 -19.5t72 -28t76.5 -34q46 -21 94.5 -42t95.5 -38t93 -27.5t88 -10.5zM362 -294l96 -59l60 80l-96 56z
M554 -463l-121 72l-55 -72l-127 75l85 113l-94 55l86 115l121 -74l55 74l127 -78l-85 -111l94 -57z" />
    <glyph glyph-name="uni0687.medi" unicode="&#x687;" horiz-adv-x="1063" arabic-form="medial" 
d="M799 0q-67 0 -106 9.5t-59.5 30t-26 53t-5.5 79.5v33q-35 -35 -85.5 -71.5t-111 -66t-129 -48.5t-138.5 -19h-138q-11 0 -23.5 3t-24 8.5t-19 14t-7.5 19.5v57q0 12 7.5 20.5t19 14t24 8t23.5 2.5h195q61 0 120 15.5t114 39t105.5 52t95.5 55.5l-68 19q-41 11 -78.5 22
t-74 20t-73 15t-73.5 6q-20 0 -35 -8.5t-26 -21t-19.5 -26t-15.5 -23.5l-29 16q20 51 39.5 91t41 67t48.5 41t62 14q45 0 95.5 -12.5t113.5 -32.5q45 -14 95 -28.5t104.5 -26.5t113.5 -19.5t122 -7.5l-66 -148q-70 0 -123 10q-45 0 -74 -9t-55 -24q0 -35 12 -54.5t35 -28.5
t56 -11t74 -2h231v-147h-264zM362 -294l96 -59l60 80l-96 56zM554 -463l-121 72l-55 -72l-127 75l85 113l-94 55l86 115l121 -74l55 74l127 -78l-85 -111l94 -57z" />
    <glyph glyph-name="uni0687.fina" unicode="&#x687;" horiz-adv-x="927" arabic-form="final" 
d="M742 0q-59 0 -98 4.5t-62 21t-33 48t-10 86.5q0 14 1.5 31t4.5 35t6 35t6 32q-89 -30 -160.5 -76.5t-121.5 -108t-76.5 -137.5t-26.5 -166q0 -64 30 -109t85.5 -75.5t132.5 -48.5t170.5 -27t201.5 -11.5t224 -2.5l7 -33q-53 -20 -111 -40t-114.5 -36t-107.5 -26t-90 -10
q-118 0 -199 17t-134.5 45.5t-83 66.5t-43 80t-16.5 85.5t-3 83.5q0 96 21.5 170.5t51 130t61 93t52.5 58.5q33 33 80 68.5t95 61.5q-72 8 -140 14.5t-137 6.5q-35 0 -57.5 -10t-38.5 -31l-29 16q17 47 36 80t42.5 54t52.5 30.5t66 9.5t93 -6q72 -8 187 -16.5t281 -8.5
l-66 -149q-83 -7 -157 -27q-5 -17 -9 -38t-4 -35q0 -32 15 -49.5t40.5 -26.5t58.5 -11t69 -2h142v-147h-185zM439 -205l75 -47l48 62l-76 45zM662 -252l-69 -91l-98 59l-45 -59l-103 62l68 91l-76 45l71 93l97 -59l44 59l104 -62l-70 -90z" />
    <glyph glyph-name="uni0688" unicode="&#x688;" horiz-adv-x="725" arabic-form="isolated" 
d="M340 630q3 14 14.5 22t25.5 8q17 0 37 -14q57 -44 98.5 -97t69.5 -108.5t41.5 -109.5t13.5 -100q0 -32 -5.5 -61.5t-13.5 -55.5t-17.5 -48t-17.5 -38q-16 -8 -51 -17.5t-81.5 -18t-100.5 -14t-107 -5.5q-47 0 -78.5 3t-51 12.5t-28 27t-8.5 47.5q0 13 2.5 31t7 38
t10 40.5t11.5 38.5l31 -9q0 -25 6 -39.5t21 -22t39.5 -9.5t62.5 -2q45 0 99.5 5.5t102.5 13.5t80.5 15.5t32.5 12.5q0 30 -13.5 65.5t-35.5 70.5t-50.5 67.5t-59 57.5t-60.5 40t-54 15zM502 870q6 4 11 8t5 7q0 6 -4 16.5t-12.5 20t-22.5 16.5t-33 7q-17 0 -49 -22.5
t-69 -52.5h174zM253 870l30 20l-21 211l45 60h5q1 -15 3 -40.5t4 -57t4 -68t4 -73.5q20 15 39.5 30t38.5 27t36.5 19.5t34.5 7.5q14 0 31.5 -9t32.5 -22.5t25 -30.5t10 -32q0 -13 -6.5 -27.5t-15.5 -29t-20 -27.5t-20 -23h-284q-14 14 -30 26.5t-30 29.5l3 9h81z" />
    <glyph glyph-name="uni0688.fina" unicode="&#x688;" horiz-adv-x="874" arabic-form="final" 
d="M734 0q-25 0 -43.5 11.5t-24.5 19.5q-16 19 -26.5 55t-15.5 78h-20q-11 -43 -25 -79t-25 -59q-16 -8 -46 -17t-70.5 -17t-89.5 -13.5t-102 -5.5q-47 0 -78.5 4t-51 14t-28 27t-8.5 44q0 24 5 52t11.5 56t14.5 53.5t14 44.5l33 -9v-73q0 -25 25 -41t88 -16q44 0 88.5 4
t84.5 10.5t72 15t52 17.5q11 26 19 55.5t11 64.5l-59 297l76 143q24 -139 43 -273.5t49 -271.5q9 -20 25 -32t42 -12h100v-147h-140zM724 896q6 4 11 8t5 7q0 6 -4 16.5t-12.5 20t-22.5 16.5t-33 7q-17 0 -49 -22.5t-69 -52.5h174zM475 896l30 20l-21 211l45 60h5
q1 -15 3 -40.5t4 -57t4 -68t4 -73.5q20 15 39.5 30t38.5 27t36.5 19.5t34.5 7.5q14 0 31.5 -9t32.5 -22.5t25 -30.5t10 -32q0 -13 -6.5 -27.5t-15.5 -29t-20 -27.5t-20 -23h-284q-14 14 -30 26.5t-30 29.5l3 9h81z" />
    <glyph glyph-name="uni0689.fina" unicode="&#x689;" horiz-adv-x="874" 
d="M444 -77q0 -27 -5.5 -54.5t-15.5 -44.5q-21 -21 -49.5 -34t-65.5 -13q-13 0 -26 6t-24 17.5t-18 29t-7 40.5q0 14 1.5 29.5t5.5 31.5q2 11 5.5 21t8.5 21h-8q-47 0 -78.5 4t-51 14t-28 27t-8.5 44q0 24 5 52t11.5 56t14.5 53.5t14 44.5l33 -9v-73q0 -25 25 -41t88 -16
q44 0 88.5 4t84.5 10.5t72 15t52 17.5q11 26 19 55.5t11 64.5l-59 297l76 143q24 -139 43 -273.5t49 -271.5q9 -20 25 -32t42 -12h100v-147h-140q-25 0 -43.5 11.5t-24.5 19.5q-16 19 -26.5 55t-15.5 78h-20q-11 -43 -25 -79t-25 -59q-17 -8 -46 -17t-71 -17q-3 -1 -6 -1
t-6 -1l9 -18q10 -21 10 -49zM319 -146q58 0 83 28q0 51 -22 71.5t-49 20.5q-6 0 -15.5 -3.5t-18.5 -12t-16 -22t-7 -32.5q0 -18 10 -34t35 -16z" />
    <glyph glyph-name="uni068A.fina" unicode="&#x68a;" horiz-adv-x="874" 
d="M734 0q-25 0 -43.5 11.5t-24.5 19.5q-16 19 -26.5 55t-15.5 78h-20q-11 -43 -25 -79t-25 -59q-16 -8 -46 -17t-70.5 -17t-89.5 -13.5t-102 -5.5q-47 0 -78.5 4t-51 14t-28 27t-8.5 44q0 24 5 52t11.5 56t14.5 53.5t14 44.5l33 -9v-73q0 -25 25 -41t88 -16q44 0 88.5 4
t84.5 10.5t72 15t52 17.5q11 26 19 55.5t11 64.5l-59 297l76 143q24 -139 43 -273.5t49 -271.5q9 -20 25 -32t42 -12h100v-147h-140zM391 -295l-135 82l86 115l135 -84z" />
    <glyph glyph-name="uni068B.fina" unicode="&#x68b;" horiz-adv-x="874" 
d="M734 0q-25 0 -43.5 11.5t-24.5 19.5q-16 19 -26.5 55t-15.5 78h-20q-11 -43 -25 -79t-25 -59q-16 -8 -46 -17t-70.5 -17t-89.5 -13.5t-102 -5.5q-47 0 -78.5 4t-51 14t-28 27t-8.5 44q0 24 5 52t11.5 56t14.5 53.5t14 44.5l33 -9v-73q0 -25 25 -41t88 -16q44 0 88.5 4
t84.5 10.5t72 15t52 17.5q11 26 19 55.5t11 64.5l-59 297l76 143q24 -139 43 -273.5t49 -271.5q9 -20 25 -32t42 -12h100v-147h-140zM391 -295l-135 82l86 115l135 -84zM724 896q6 4 11 8t5 7q0 6 -4 16.5t-12.5 20t-22.5 16.5t-33 7q-17 0 -49 -22.5t-69 -52.5h174z
M475 896l30 20l-21 211l45 60h5q1 -15 3 -40.5t4 -57t4 -68t4 -73.5q20 15 39.5 30t38.5 27t36.5 19.5t34.5 7.5q14 0 31.5 -9t32.5 -22.5t25 -30.5t10 -32q0 -13 -6.5 -27.5t-15.5 -29t-20 -27.5t-20 -23h-284q-14 14 -30 26.5t-30 29.5l3 9h81z" />
    <glyph glyph-name="uni068C" unicode="&#x68c;" horiz-adv-x="725" arabic-form="isolated" 
d="M340 630q3 14 14.5 22t25.5 8q17 0 37 -14q57 -44 98.5 -97t69.5 -108.5t41.5 -109.5t13.5 -100q0 -32 -5.5 -61.5t-13.5 -55.5t-17.5 -48t-17.5 -38q-16 -8 -51 -17.5t-81.5 -18t-100.5 -14t-107 -5.5q-47 0 -78.5 3t-51 12.5t-28 27t-8.5 47.5q0 13 2.5 31t7 38
t10 40.5t11.5 38.5l31 -9q0 -25 6 -39.5t21 -22t39.5 -9.5t62.5 -2q45 0 99.5 5.5t102.5 13.5t80.5 15.5t32.5 12.5q0 30 -13.5 65.5t-35.5 70.5t-50.5 67.5t-59 57.5t-60.5 40t-54 15zM459 814l-121 72l-55 -72l-127 75l86 115l120 -74l56 74l127 -78z" />
    <glyph glyph-name="uni068C.fina" unicode="&#x68c;" horiz-adv-x="874" arabic-form="final" 
d="M734 0q-25 0 -43.5 11.5t-24.5 19.5q-16 19 -26.5 55t-15.5 78h-20q-11 -43 -25 -79t-25 -59q-16 -8 -46 -17t-70.5 -17t-89.5 -13.5t-102 -5.5q-47 0 -78.5 4t-51 14t-28 27t-8.5 44q0 24 5 52t11.5 56t14.5 53.5t14 44.5l33 -9v-73q0 -25 25 -41t88 -16q44 0 88.5 4
t84.5 10.5t72 15t52 17.5q11 26 19 55.5t11 64.5l-59 297l76 143q24 -139 43 -273.5t49 -271.5q9 -20 25 -32t42 -12h100v-147h-140zM654 864l-121 72l-55 -72l-127 75l86 115l120 -74l56 74l127 -78z" />
    <glyph glyph-name="uni068D" unicode="&#x68d;" horiz-adv-x="725" arabic-form="isolated" 
d="M340 630q3 14 14.5 22t25.5 8q17 0 37 -14q57 -44 98.5 -97t69.5 -108.5t41.5 -109.5t13.5 -100q0 -32 -5.5 -61.5t-13.5 -55.5t-17.5 -48t-17.5 -38q-16 -8 -51 -17.5t-81.5 -18t-100.5 -14t-107 -5.5q-47 0 -78.5 3t-51 12.5t-28 27t-8.5 47.5q0 13 2.5 31t7 38
t10 40.5t11.5 38.5l31 -9q0 -25 6 -39.5t21 -22t39.5 -9.5t62.5 -2q45 0 99.5 5.5t102.5 13.5t80.5 15.5t32.5 12.5q0 30 -13.5 65.5t-35.5 70.5t-50.5 67.5t-59 57.5t-60.5 40t-54 15zM459 -283l-121 72l-55 -72l-127 75l86 115l120 -74l56 74l127 -78z" />
    <glyph glyph-name="uni068D.fina" unicode="&#x68d;" horiz-adv-x="874" arabic-form="final" 
d="M734 0q-25 0 -43.5 11.5t-24.5 19.5q-16 19 -26.5 55t-15.5 78h-20q-11 -43 -25 -79t-25 -59q-16 -8 -46 -17t-70.5 -17t-89.5 -13.5t-102 -5.5q-47 0 -78.5 4t-51 14t-28 27t-8.5 44q0 24 5 52t11.5 56t14.5 53.5t14 44.5l33 -9v-73q0 -25 25 -41t88 -16q44 0 88.5 4
t84.5 10.5t72 15t52 17.5q11 26 19 55.5t11 64.5l-59 297l76 143q24 -139 43 -273.5t49 -271.5q9 -20 25 -32t42 -12h100v-147h-140zM464 -283l-121 72l-55 -72l-127 75l86 115l120 -74l56 74l127 -78z" />
    <glyph glyph-name="uni068E" unicode="&#x68e;" horiz-adv-x="725" arabic-form="isolated" 
d="M340 630q3 14 14.5 22t25.5 8q17 0 37 -14q57 -44 98.5 -97t69.5 -108.5t41.5 -109.5t13.5 -100q0 -32 -5.5 -61.5t-13.5 -55.5t-17.5 -48t-17.5 -38q-16 -8 -51 -17.5t-81.5 -18t-100.5 -14t-107 -5.5q-47 0 -78.5 3t-51 12.5t-28 27t-8.5 47.5q0 13 2.5 31t7 38
t10 40.5t11.5 38.5l31 -9q0 -25 6 -39.5t21 -22t39.5 -9.5t62.5 -2q45 0 99.5 5.5t102.5 13.5t80.5 15.5t32.5 12.5q0 30 -13.5 65.5t-35.5 70.5t-50.5 67.5t-59 57.5t-60.5 40t-54 15zM351 988l-130 79l83 111l130 -81zM459 814l-121 72l-55 -72l-127 75l86 115l120 -74
l56 74l127 -78z" />
    <glyph glyph-name="uni068E.fina" unicode="&#x68e;" horiz-adv-x="874" arabic-form="final" 
d="M734 0q-25 0 -43.5 11.5t-24.5 19.5q-16 19 -26.5 55t-15.5 78h-20q-11 -43 -25 -79t-25 -59q-16 -8 -46 -17t-70.5 -17t-89.5 -13.5t-102 -5.5q-47 0 -78.5 4t-51 14t-28 27t-8.5 44q0 24 5 52t11.5 56t14.5 53.5t14 44.5l33 -9v-73q0 -25 25 -41t88 -16q44 0 88.5 4
t84.5 10.5t72 15t52 17.5q11 26 19 55.5t11 64.5l-59 297l76 143q24 -139 43 -273.5t49 -271.5q9 -20 25 -32t42 -12h100v-147h-140zM546 1038l-130 79l83 111l130 -81zM654 864l-121 72l-55 -72l-127 75l86 115l120 -74l56 74l127 -78z" />
    <glyph glyph-name="uni068F.fina" unicode="&#x68f;" horiz-adv-x="874" 
d="M734 0q-25 0 -43.5 11.5t-24.5 19.5q-16 19 -26.5 55t-15.5 78h-20q-11 -43 -25 -79t-25 -59q-16 -8 -46 -17t-70.5 -17t-89.5 -13.5t-102 -5.5q-47 0 -78.5 4t-51 14t-28 27t-8.5 44q0 24 5 52t11.5 56t14.5 53.5t14 44.5l33 -9v-73q0 -25 25 -41t88 -16q44 0 88.5 4
t84.5 10.5t72 15t52 17.5q11 26 19 55.5t11 64.5l-59 297l76 143q24 -139 43 -273.5t49 -271.5q9 -20 25 -32t42 -12h100v-147h-140zM585 839l-130 79l83 111l130 -81zM654 1014l-121 72l-55 -72l-127 75l86 115l120 -74l56 74l127 -78z" />
    <glyph glyph-name="uni0690.fina" unicode="&#x690;" horiz-adv-x="874" 
d="M734 0q-25 0 -43.5 11.5t-24.5 19.5q-16 19 -26.5 55t-15.5 78h-20q-11 -43 -25 -79t-25 -59q-16 -8 -46 -17t-70.5 -17t-89.5 -13.5t-102 -5.5q-47 0 -78.5 4t-51 14t-28 27t-8.5 44q0 24 5 52t11.5 56t14.5 53.5t14 44.5l33 -9v-73q0 -25 25 -41t88 -16q44 0 88.5 4
t84.5 10.5t72 15t52 17.5q11 26 19 55.5t11 64.5l-59 297l76 143q24 -139 43 -273.5t49 -271.5q9 -20 25 -32t42 -12h100v-147h-140zM462 1033l96 -59l60 80l-96 56zM654 864l-121 72l-55 -72l-127 75l85 113l-94 55l86 115l121 -74l55 74l127 -78l-85 -111l94 -57z" />
    <glyph glyph-name="uni06EE.fina" unicode="&#x6ee;" horiz-adv-x="874" 
d="M734 0q-25 0 -43.5 11.5t-24.5 19.5q-16 19 -26.5 55t-15.5 78h-20q-11 -43 -25 -79t-25 -59q-16 -8 -46 -17t-70.5 -17t-89.5 -13.5t-102 -5.5q-47 0 -78.5 4t-51 14t-28 27t-8.5 44q0 24 5 52t11.5 56t14.5 53.5t14 44.5l33 -9v-73q0 -25 25 -41t88 -16q44 0 88.5 4
t84.5 10.5t72 15t52 17.5q11 26 19 55.5t11 64.5l-59 297l76 143q24 -139 43 -273.5t49 -271.5q9 -20 25 -32t42 -12h100v-147h-140zM675 797l-124 190l-4 -1l-100 -184q-4 3 -12.5 9.5t-18 13.5t-17.5 13.5t-11 9.5l126 244l73 9l153 -250z" />
    <glyph glyph-name="uni0691" unicode="&#x691;" horiz-adv-x="695" arabic-form="isolated" 
d="M477 485q31 -30 61 -67t54 -82.5t38.5 -100t14.5 -119.5q0 -52 -15 -106.5t-40.5 -106t-60.5 -97.5t-74.5 -80.5t-82.5 -54.5t-85 -20q-63 0 -138 24.5t-179 80.5l12 30q30 -10 52 -17t40.5 -11.5t36 -6.5t37.5 -2q49 0 101 20t100 52.5t91 72t75 79t50.5 74.5t18.5 57
q0 19 -16.5 47.5t-42 59.5t-57 60t-62.5 50zM596 715q6 4 11 8t5 7q0 6 -4 16.5t-12.5 20t-22.5 16.5t-33 7q-17 0 -49 -22.5t-69 -52.5h174zM347 715l30 20l-21 211l45 60h5q1 -15 3 -40.5t4 -57t4 -68t4 -73.5q20 15 39.5 30t38.5 27t36.5 19.5t34.5 7.5q14 0 31.5 -9
t32.5 -22.5t25 -30.5t10 -32q0 -13 -6.5 -27.5t-15.5 -29t-20 -27.5t-20 -23h-284q-14 14 -30 26.5t-30 29.5l3 9h81z" />
    <glyph glyph-name="uni0691.fina" unicode="&#x691;" horiz-adv-x="821" arabic-form="final" 
d="M763 0q-28 0 -56.5 7.5t-48.5 30.5l-15 -8q-2 -51 -17.5 -104.5t-41.5 -103.5t-60 -94.5t-73 -77.5t-81 -52.5t-83 -19.5q-63 0 -137.5 24.5t-179.5 80.5l12 30q31 -10 53.5 -17t41.5 -11.5t35.5 -6.5t35.5 -2q49 0 101.5 18.5t101.5 48t93 66.5t77 74.5t52 71t19 55.5
q0 9 -5.5 22.5t-15 30t-21.5 34t-25 35.5q-21 28 -40 56l-38 56l61 143q12 -18 22.5 -36t23.5 -37q19 -29 41.5 -58.5t49 -53.5t56.5 -39.5t63 -15.5h57v-147h-58zM624 615q6 4 11 8t5 7q0 6 -4 16.5t-12.5 20t-22.5 16.5t-33 7q-17 0 -49 -22.5t-69 -52.5h174zM375 615
l30 20l-21 211l45 60h5q1 -15 3 -40.5t4 -57t4 -68t4 -73.5q20 15 39.5 30t38.5 27t36.5 19.5t34.5 7.5q14 0 31.5 -9t32.5 -22.5t25 -30.5t10 -32q0 -13 -6.5 -27.5t-15.5 -29t-20 -27.5t-20 -23h-284q-14 14 -30 26.5t-30 29.5l3 9h81z" />
    <glyph glyph-name="uni0692.fina" unicode="&#x692;" horiz-adv-x="821" 
d="M763 0q-28 0 -56.5 7.5t-48.5 30.5l-15 -8q-2 -51 -17.5 -104.5t-41.5 -103.5t-60 -94.5t-73 -77.5t-81 -52.5t-83 -19.5q-63 0 -137.5 24.5t-179.5 80.5l12 30q31 -10 53.5 -17t41.5 -11.5t35.5 -6.5t35.5 -2q49 0 101.5 18.5t101.5 48t93 66.5t77 74.5t52 71t19 55.5
q0 9 -5.5 22.5t-15 30t-21.5 34t-25 35.5q-21 28 -40 56l-38 56l61 143q12 -18 22.5 -36t23.5 -37q19 -29 41.5 -58.5t49 -53.5t56.5 -39.5t63 -15.5h57v-147h-58zM533 559l-73 -9l-153 250l65 54l124 -190l4 1l100 184l59 -46z" />
    <glyph glyph-name="uni0693.fina" unicode="&#x693;" horiz-adv-x="821" 
d="M763 0q-28 0 -56.5 7.5t-48.5 30.5l-15 -8q-2 -51 -17.5 -104t-41.5 -104q-8 -14 -16.5 -28.5t-17.5 -28.5q4 -1 8 -3l8 -4q12 -8 24 -20.5t21 -28t15 -33.5t6 -37q0 -27 -5.5 -54.5t-15.5 -44.5q-21 -21 -49.5 -34t-65.5 -13q-13 0 -26 6t-24 17.5t-18 29t-7 40.5
q0 21 3 44q-13 -10 -26.5 -17.5t-27.5 -14.5q-45 -20 -83 -20q-63 0 -137.5 24.5t-179.5 80.5l12 30q31 -10 53.5 -17t41.5 -11.5t35.5 -6.5t35.5 -2q49 0 101.5 18.5t101.5 48t93 66.5t77 74.5t52 71t19 55.5q0 9 -5.5 22.5t-15 30t-21.5 34t-25 35.5q-11 14 -20.5 28
t-19.5 28l-38 56l61 143q12 -18 22.5 -36t23.5 -37q19 -29 41.5 -58.5t49 -53.5t56.5 -39.5t63 -15.5h57v-147h-58zM507 -430q58 0 83 28q0 51 -22 71.5t-49 20.5q-6 0 -15.5 -3.5t-18.5 -12t-16 -22t-7 -32.5q0 -18 10 -34t35 -16z" />
    <glyph glyph-name="uni0694.fina" unicode="&#x694;" horiz-adv-x="821" 
d="M763 0q-28 0 -56.5 7.5t-48.5 30.5l-15 -8q-2 -51 -17.5 -104.5t-41.5 -103.5t-60 -94.5t-73 -77.5t-81 -52.5t-83 -19.5q-63 0 -137.5 24.5t-179.5 80.5l12 30q31 -10 53.5 -17t41.5 -11.5t35.5 -6.5t35.5 -2q49 0 101.5 18.5t101.5 48t93 66.5t77 74.5t52 71t19 55.5
q0 9 -5.5 22.5t-15 30t-21.5 34t-25 35.5q-21 28 -40 56l-38 56l61 143q12 -18 22.5 -36t23.5 -37q19 -29 41.5 -58.5t49 -53.5t56.5 -39.5t63 -15.5h57v-147h-58zM331 -695l-135 82l86 115l135 -84z" />
    <glyph glyph-name="uni0695.fina" unicode="&#x695;" horiz-adv-x="821" 
d="M763 0q-28 0 -56.5 7.5t-48.5 30.5l-15 -8q-2 -51 -17.5 -104.5t-41.5 -103.5t-60 -94.5t-73 -77.5t-81 -52.5t-83 -19.5q-63 0 -137.5 24.5t-179.5 80.5l12 30q31 -10 53.5 -17t41.5 -11.5t35.5 -6.5t35.5 -2q49 0 101.5 18.5t101.5 48t93 66.5t77 74.5t52 71t19 55.5
q0 9 -5.5 22.5t-15 30t-21.5 34t-25 35.5q-21 28 -40 56l-38 56l61 143q12 -18 22.5 -36t23.5 -37q19 -29 41.5 -58.5t49 -53.5t56.5 -39.5t63 -15.5h57v-147h-58zM335 -788l-73 -9l-153 250l65 54l124 -190l4 1l100 184l59 -46z" />
    <glyph glyph-name="uni0696.fina" unicode="&#x696;" horiz-adv-x="821" 
d="M763 0q-28 0 -56.5 7.5t-48.5 30.5l-15 -8q-2 -51 -17.5 -104.5t-41.5 -103.5t-60 -94.5t-73 -77.5t-81 -52.5t-83 -19.5q-63 0 -137.5 24.5t-179.5 80.5l12 30q31 -10 53.5 -17t41.5 -11.5t35.5 -6.5t35.5 -2q49 0 101.5 18.5t101.5 48t93 66.5t77 74.5t52 71t19 55.5
q0 9 -5.5 22.5t-15 30t-21.5 34t-25 35.5q-21 28 -40 56l-38 56l61 143q12 -18 22.5 -36t23.5 -37q19 -29 41.5 -58.5t49 -53.5t56.5 -39.5t63 -15.5h57v-147h-58zM281 -98l-135 82l86 115l135 -84zM591 -575l-135 82l86 115l135 -84z" />
    <glyph glyph-name="uni0697.fina" unicode="&#x697;" horiz-adv-x="821" 
d="M763 0q-28 0 -56.5 7.5t-48.5 30.5l-15 -8q-2 -51 -17.5 -104.5t-41.5 -103.5t-60 -94.5t-73 -77.5t-81 -52.5t-83 -19.5q-63 0 -137.5 24.5t-179.5 80.5l12 30q31 -10 53.5 -17t41.5 -11.5t35.5 -6.5t35.5 -2q49 0 101.5 18.5t101.5 48t93 66.5t77 74.5t52 71t19 55.5
q0 9 -5.5 22.5t-15 30t-21.5 34t-25 35.5q-21 28 -40 56l-38 56l61 143q12 -18 22.5 -36t23.5 -37q19 -29 41.5 -58.5t49 -53.5t56.5 -39.5t63 -15.5h57v-147h-58zM602 534l-121 72l-55 -72l-127 75l86 115l120 -74l56 74l127 -78z" />
    <glyph glyph-name="uni06EF.fina" unicode="&#x6ef;" horiz-adv-x="821" 
d="M763 0q-28 0 -56.5 7.5t-48.5 30.5l-15 -8q-2 -51 -17.5 -104.5t-41.5 -103.5t-60 -94.5t-73 -77.5t-81 -52.5t-83 -19.5q-63 0 -137.5 24.5t-179.5 80.5l12 30q31 -10 53.5 -17t41.5 -11.5t35.5 -6.5t35.5 -2q49 0 101.5 18.5t101.5 48t93 66.5t77 74.5t52 71t19 55.5
q0 9 -5.5 22.5t-15 30t-21.5 34t-25 35.5q-21 28 -40 56l-38 56l61 143q12 -18 22.5 -36t23.5 -37q19 -29 41.5 -58.5t49 -53.5t56.5 -39.5t63 -15.5h57v-147h-58zM623 477l-124 190l-4 -1l-100 -184q-4 3 -12.5 9.5t-18 13.5t-17.5 13.5t-11 9.5l126 244l73 9l153 -250z
" />
    <glyph glyph-name="uni0698" unicode="&#x698;" horiz-adv-x="695" arabic-form="isolated" 
d="M477 485q31 -30 61 -67t54 -82.5t38.5 -100t14.5 -119.5q0 -52 -15 -106.5t-40.5 -106t-60.5 -97.5t-74.5 -80.5t-82.5 -54.5t-85 -20q-63 0 -138 24.5t-179 80.5l12 30q30 -10 52 -17t40.5 -11.5t36 -6.5t37.5 -2q49 0 101 20t100 52.5t91 72t75 79t50.5 74.5t18.5 57
q0 19 -16.5 47.5t-42 59.5t-57 60t-62.5 50zM466 808l-130 79l83 111l130 -81zM574 634l-121 72l-55 -72l-127 75l86 115l120 -74l56 74l127 -78z" />
    <glyph glyph-name="uni0698.fina" unicode="&#x698;" horiz-adv-x="821" arabic-form="final" 
d="M763 0q-28 0 -56.5 7.5t-48.5 30.5l-15 -8q-2 -51 -17.5 -104.5t-41.5 -103.5t-60 -94.5t-73 -77.5t-81 -52.5t-83 -19.5q-63 0 -137.5 24.5t-179.5 80.5l12 30q31 -10 53.5 -17t41.5 -11.5t35.5 -6.5t35.5 -2q49 0 101.5 18.5t101.5 48t93 66.5t77 74.5t52 71t19 55.5
q0 9 -5.5 22.5t-15 30t-21.5 34t-25 35.5q-21 28 -40 56l-38 56l61 143q12 -18 22.5 -36t23.5 -37q19 -29 41.5 -58.5t49 -53.5t56.5 -39.5t63 -15.5h57v-147h-58zM494 708l-130 79l83 111l130 -81zM602 534l-121 72l-55 -72l-127 75l86 115l120 -74l56 74l127 -78z" />
    <glyph glyph-name="uni0699.fina" unicode="&#x699;" horiz-adv-x="821" 
d="M763 0q-28 0 -56.5 7.5t-48.5 30.5l-15 -8q-2 -51 -17.5 -104.5t-41.5 -103.5t-60 -94.5t-73 -77.5t-81 -52.5t-83 -19.5q-63 0 -137.5 24.5t-179.5 80.5l12 30q31 -10 53.5 -17t41.5 -11.5t35.5 -6.5t35.5 -2q49 0 101.5 18.5t101.5 48t93 66.5t77 74.5t52 71t19 55.5
q0 9 -5.5 22.5t-15 30t-21.5 34t-25 35.5q-21 28 -40 56l-38 56l61 143q12 -18 22.5 -36t23.5 -37q19 -29 41.5 -58.5t49 -53.5t56.5 -39.5t63 -15.5h57v-147h-58zM410 704l96 -59l60 80l-96 56zM602 535l-121 72l-55 -72l-127 75l85 113l-94 55l86 115l121 -74l55 74
l127 -78l-85 -111l94 -57z" />
    <glyph glyph-name="uni069A.init" unicode="&#x69a;" horiz-adv-x="1174" 
d="M1029 439q6 -13 16 -37t20 -53.5t17 -61.5t7 -61q0 -40 -8.5 -80.5t-34.5 -85.5q-22 -38 -37 -56.5t-40 -18.5q-8 0 -25 7t-38.5 18t-46 25t-46.5 28.5t-40.5 28t-27.5 22.5q-24 -23 -63 -38.5t-84 -25.5t-90.5 -14.5t-81.5 -4.5q-38 0 -53 14.5t-15 38.5h-7
q-18 -20 -55.5 -35.5t-85.5 -26.5t-103 -16.5t-107 -5.5q-11 0 -23.5 3t-24 8.5t-19 14t-7.5 19.5v57q0 12 7.5 20.5t19 14t24 8t23.5 2.5q17 0 33 0.5t33 1.5q56 3 109 12t96.5 23.5t75.5 33t47 40.5q29 43 51.5 84t42.5 93l51 -18q-14 -52 -35 -103t-41 -84
q-6 -11 -12.5 -21.5t-6.5 -12.5q0 -15 55 -15q27 0 57 3t59 9.5t55.5 16t45.5 22.5q18 12 33.5 36.5t29 53.5t24 59.5t18.5 53.5l51 -15q-4 -21 -10 -46t-13 -49.5t-15 -48t-16 -42.5q10 -13 38.5 -34t61 -41t61 -34.5t37.5 -14.5q5 0 8 4q4 4 4 12q0 6 -1 26t-7 48
t-19.5 60t-37.5 61zM781 602l-135 82l86 115l135 -84zM781 -295l-135 82l86 115l135 -84z" />
    <glyph glyph-name="uni069A.medi" unicode="&#x69a;" horiz-adv-x="1224" 
d="M1131 0q-36 0 -72 25t-52 71h-10q-5 -16 -10.5 -33.5t-11 -33t-10 -28t-8.5 -19.5q-19 -33 -35.5 -42.5t-37.5 -9.5q-11 0 -28.5 21t-35.5 50.5t-35 62.5t-28 57q-23 -28 -62.5 -46.5t-86 -30t-94.5 -16.5t-87 -5q-29 0 -48.5 15.5t-19.5 45.5h-4q-19 -19 -56.5 -34.5
t-86 -26.5t-103.5 -17t-109 -6q-11 0 -23.5 3t-24 8.5t-19 14t-7.5 19.5v57q0 12 8 20.5t19 14t24 8t23 2.5q14 0 29 0.5t29 1.5q57 3 110.5 12.5t98 23.5t77.5 33t50 41q27 37 51 80.5t44 95.5l51 -18q-14 -51 -33.5 -98t-42.5 -89q-6 -11 -12.5 -21.5t-6.5 -12.5
q0 -15 55 -15q26 0 56 2t59 6.5t55 13t45 21.5q18 12 34 37.5t29.5 56.5t24.5 62t19 55l51 -15q-7 -35 -18.5 -78t-24.5 -80q7 -19 19 -45.5t24.5 -51t23 -41.5t15.5 -17q6 0 10.5 4.5t7.5 11.5t5.5 14.5t4.5 12.5q9 25 20 59.5t21.5 72t20.5 74t17 64.5l53 -12
q-5 -37 -16 -85.5t-23 -96.5q10 -27 24 -42.5t32.5 -23.5t41 -10.5t48.5 -2.5h45v-147h-93zM781 608l-135 82l86 115l135 -84zM781 -295l-135 82l86 115l135 -84z" />
    <glyph glyph-name="uni069A.fina" unicode="&#x69a;" horiz-adv-x="1635" 
d="M1544 0q-35 0 -70 24t-57 72h-10q-5 -17 -10.5 -34t-10.5 -32.5t-10 -28t-9 -19.5q-18 -33 -34.5 -42.5t-37.5 -9.5q-11 0 -28.5 21t-35.5 50.5t-35 62.5t-28 57q-20 -23 -50 -39.5t-65.5 -27.5t-74.5 -18t-77 -11q1 -7 1 -13.5v-13.5q0 -25 -5 -57t-13.5 -65.5
t-20.5 -66t-26 -57.5q-38 -29 -89 -55.5t-109 -46.5t-121 -32t-124 -12q-92 0 -152.5 22.5t-96.5 58.5t-50.5 80.5t-14.5 88.5q0 52 9 98t24.5 88t36 80.5t43.5 75.5l30 -12q-27 -69 -41 -122.5t-14 -107.5q0 -48 22 -85t58.5 -61.5t83 -37.5t95.5 -13q46 0 104 9.5
t114.5 26.5t106 40t79.5 50q0 36 -8 78.5t-23.5 86t-38.5 86.5t-53 81l71 164q32 -51 55.5 -99.5t38.5 -97.5q13 -3 38 -3q26 0 56 2t59 6.5t55 13t45 21.5q18 12 34 37.5t29.5 56.5t24.5 62t19 55l51 -15q-7 -35 -18.5 -78t-24.5 -80q7 -19 19 -45.5t24.5 -51t23 -41.5
t15.5 -17q7 0 10.5 4.5t6.5 11.5q4 8 7.5 18t8.5 23q9 26 19 59.5t20 68.5t19 68.5t16 59.5l53 -12q-5 -37 -16 -85.5t-23 -96.5q10 -27 24.5 -42.5t33.5 -23.5t41.5 -10.5t48.5 -2.5h43v-147h-91zM1191 602l-135 82l86 115l135 -84zM1191 -295l-135 82l86 115l135 -84z" />
    <glyph glyph-name="uni069B.init" unicode="&#x69b;" horiz-adv-x="1174" 
d="M1029 439q6 -13 16 -37t20 -53.5t17 -61.5t7 -61q0 -40 -8.5 -80.5t-34.5 -85.5q-22 -38 -37 -56.5t-40 -18.5q-8 0 -25 7t-38.5 18t-46 25t-46.5 28.5t-40.5 28t-27.5 22.5q-24 -23 -63 -38.5t-84 -25.5t-90.5 -14.5t-81.5 -4.5q-38 0 -53 14.5t-15 38.5h-7
q-18 -20 -55.5 -35.5t-85.5 -26.5t-103 -16.5t-107 -5.5q-11 0 -23.5 3t-24 8.5t-19 14t-7.5 19.5v57q0 12 7.5 20.5t19 14t24 8t23.5 2.5q17 0 33 0.5t33 1.5q56 3 109 12t96.5 23.5t75.5 33t47 40.5q29 43 51.5 84t42.5 93l51 -18q-14 -52 -35 -103t-41 -84
q-6 -11 -12.5 -21.5t-6.5 -12.5q0 -15 55 -15q27 0 57 3t59 9.5t55.5 16t45.5 22.5q18 12 33.5 36.5t29 53.5t24 59.5t18.5 53.5l51 -15q-4 -21 -10 -46t-13 -49.5t-15 -48t-16 -42.5q10 -13 38.5 -34t61 -41t61 -34.5t37.5 -14.5q5 0 8 4q4 4 4 12q0 6 -1 26t-7 48
t-19.5 60t-37.5 61zM785 -458l-130 79l83 111l130 -81zM854 -283l-121 72l-55 -72l-127 75l86 115l120 -74l56 74l127 -78z" />
    <glyph glyph-name="uni069B.medi" unicode="&#x69b;" horiz-adv-x="1224" 
d="M1131 0q-36 0 -72 25t-52 71h-10q-5 -16 -10.5 -33.5t-11 -33t-10 -28t-8.5 -19.5q-19 -33 -35.5 -42.5t-37.5 -9.5q-11 0 -28.5 21t-35.5 50.5t-35 62.5t-28 57q-23 -28 -62.5 -46.5t-86 -30t-94.5 -16.5t-87 -5q-29 0 -48.5 15.5t-19.5 45.5h-4q-19 -19 -56.5 -34.5
t-86 -26.5t-103.5 -17t-109 -6q-11 0 -23.5 3t-24 8.5t-19 14t-7.5 19.5v57q0 12 8 20.5t19 14t24 8t23 2.5q14 0 29 0.5t29 1.5q57 3 110.5 12.5t98 23.5t77.5 33t50 41q27 37 51 80.5t44 95.5l51 -18q-14 -51 -33.5 -98t-42.5 -89q-6 -11 -12.5 -21.5t-6.5 -12.5
q0 -15 55 -15q26 0 56 2t59 6.5t55 13t45 21.5q18 12 34 37.5t29.5 56.5t24.5 62t19 55l51 -15q-7 -35 -18.5 -78t-24.5 -80q7 -19 19 -45.5t24.5 -51t23 -41.5t15.5 -17q6 0 10.5 4.5t7.5 11.5t5.5 14.5t4.5 12.5q9 25 20 59.5t21.5 72t20.5 74t17 64.5l53 -12
q-5 -37 -16 -85.5t-23 -96.5q10 -27 24 -42.5t32.5 -23.5t41 -10.5t48.5 -2.5h45v-147h-93zM785 -458l-130 79l83 111l130 -81zM854 -283l-121 72l-55 -72l-127 75l86 115l120 -74l56 74l127 -78z" />
    <glyph glyph-name="uni069B.fina" unicode="&#x69b;" horiz-adv-x="1635" 
d="M1544 0q-35 0 -70 24t-57 72h-10q-5 -17 -10.5 -34t-10.5 -32.5t-10 -28t-9 -19.5q-18 -33 -34.5 -42.5t-37.5 -9.5q-11 0 -28.5 21t-35.5 50.5t-35 62.5t-28 57q-20 -23 -50 -39.5t-65.5 -27.5t-74.5 -18t-77 -11q1 -7 1 -13.5v-13.5q0 -25 -5 -57t-13.5 -65.5
t-20.5 -66t-26 -57.5q-38 -29 -89 -55.5t-109 -46.5t-121 -32t-124 -12q-92 0 -152.5 22.5t-96.5 58.5t-50.5 80.5t-14.5 88.5q0 52 9 98t24.5 88t36 80.5t43.5 75.5l30 -12q-27 -69 -41 -122.5t-14 -107.5q0 -48 22 -85t58.5 -61.5t83 -37.5t95.5 -13q46 0 104 9.5
t114.5 26.5t106 40t79.5 50q0 36 -8 78.5t-23.5 86t-38.5 86.5t-53 81l71 164q32 -51 55.5 -99.5t38.5 -97.5q13 -3 38 -3q26 0 56 2t59 6.5t55 13t45 21.5q18 12 34 37.5t29.5 56.5t24.5 62t19 55l51 -15q-7 -35 -18.5 -78t-24.5 -80q7 -19 19 -45.5t24.5 -51t23 -41.5
t15.5 -17q7 0 10.5 4.5t6.5 11.5q4 8 7.5 18t8.5 23q9 26 19 59.5t20 68.5t19 68.5t16 59.5l53 -12q-5 -37 -16 -85.5t-23 -96.5q10 -27 24.5 -42.5t33.5 -23.5t41.5 -10.5t48.5 -2.5h43v-147h-91zM1195 -458l-130 79l83 111l130 -81zM1264 -283l-121 72l-55 -72l-127 75
l86 115l120 -74l56 74l127 -78z" />
    <glyph glyph-name="uni069C.init" unicode="&#x69c;" horiz-adv-x="1174" 
d="M1029 439q6 -13 16 -37t20 -53.5t17 -61.5t7 -61q0 -40 -8.5 -80.5t-34.5 -85.5q-22 -38 -37 -56.5t-40 -18.5q-8 0 -25 7t-38.5 18t-46 25t-46.5 28.5t-40.5 28t-27.5 22.5q-24 -23 -63 -38.5t-84 -25.5t-90.5 -14.5t-81.5 -4.5q-38 0 -53 14.5t-15 38.5h-7
q-18 -20 -55.5 -35.5t-85.5 -26.5t-103 -16.5t-107 -5.5q-11 0 -23.5 3t-24 8.5t-19 14t-7.5 19.5v57q0 12 7.5 20.5t19 14t24 8t23.5 2.5q17 0 33 0.5t33 1.5q56 3 109 12t96.5 23.5t75.5 33t47 40.5q29 43 51.5 84t42.5 93l51 -18q-14 -52 -35 -103t-41 -84
q-6 -11 -12.5 -21.5t-6.5 -12.5q0 -15 55 -15q27 0 57 3t59 9.5t55.5 16t45.5 22.5q18 12 33.5 36.5t29 53.5t24 59.5t18.5 53.5l51 -15q-4 -21 -10 -46t-13 -49.5t-15 -48t-16 -42.5q10 -13 38.5 -34t61 -41t61 -34.5t37.5 -14.5q5 0 8 4q4 4 4 12q0 6 -1 26t-7 48
t-19.5 60t-37.5 61zM746 788l-130 79l83 111l130 -81zM854 614l-121 72l-55 -72l-127 75l86 115l120 -74l56 74l127 -78zM785 -458l-130 79l83 111l130 -81zM854 -283l-121 72l-55 -72l-127 75l86 115l120 -74l56 74l127 -78z" />
    <glyph glyph-name="uni069C.medi" unicode="&#x69c;" horiz-adv-x="1224" 
d="M1131 0q-36 0 -72 25t-52 71h-10q-5 -16 -10.5 -33.5t-11 -33t-10 -28t-8.5 -19.5q-19 -33 -35.5 -42.5t-37.5 -9.5q-11 0 -28.5 21t-35.5 50.5t-35 62.5t-28 57q-23 -28 -62.5 -46.5t-86 -30t-94.5 -16.5t-87 -5q-29 0 -48.5 15.5t-19.5 45.5h-4q-19 -19 -56.5 -34.5
t-86 -26.5t-103.5 -17t-109 -6q-11 0 -23.5 3t-24 8.5t-19 14t-7.5 19.5v57q0 12 8 20.5t19 14t24 8t23 2.5q14 0 29 0.5t29 1.5q57 3 110.5 12.5t98 23.5t77.5 33t50 41q27 37 51 80.5t44 95.5l51 -18q-14 -51 -33.5 -98t-42.5 -89q-6 -11 -12.5 -21.5t-6.5 -12.5
q0 -15 55 -15q26 0 56 2t59 6.5t55 13t45 21.5q18 12 34 37.5t29.5 56.5t24.5 62t19 55l51 -15q-7 -35 -18.5 -78t-24.5 -80q7 -19 19 -45.5t24.5 -51t23 -41.5t15.5 -17q6 0 10.5 4.5t7.5 11.5t5.5 14.5t4.5 12.5q9 25 20 59.5t21.5 72t20.5 74t17 64.5l53 -12
q-5 -37 -16 -85.5t-23 -96.5q10 -27 24 -42.5t32.5 -23.5t41 -10.5t48.5 -2.5h45v-147h-93zM746 788l-130 79l83 111l130 -81zM854 614l-121 72l-55 -72l-127 75l86 115l120 -74l56 74l127 -78zM785 -458l-130 79l83 111l130 -81zM854 -283l-121 72l-55 -72l-127 75l86 115
l120 -74l56 74l127 -78z" />
    <glyph glyph-name="uni069C.fina" unicode="&#x69c;" horiz-adv-x="1635" 
d="M1544 0q-35 0 -70 24t-57 72h-10q-5 -17 -10.5 -34t-10.5 -32.5t-10 -28t-9 -19.5q-18 -33 -34.5 -42.5t-37.5 -9.5q-11 0 -28.5 21t-35.5 50.5t-35 62.5t-28 57q-20 -23 -50 -39.5t-65.5 -27.5t-74.5 -18t-77 -11q1 -7 1 -13.5v-13.5q0 -25 -5 -57t-13.5 -65.5
t-20.5 -66t-26 -57.5q-38 -29 -89 -55.5t-109 -46.5t-121 -32t-124 -12q-92 0 -152.5 22.5t-96.5 58.5t-50.5 80.5t-14.5 88.5q0 52 9 98t24.5 88t36 80.5t43.5 75.5l30 -12q-27 -69 -41 -122.5t-14 -107.5q0 -48 22 -85t58.5 -61.5t83 -37.5t95.5 -13q46 0 104 9.5
t114.5 26.5t106 40t79.5 50q0 36 -8 78.5t-23.5 86t-38.5 86.5t-53 81l71 164q32 -51 55.5 -99.5t38.5 -97.5q13 -3 38 -3q26 0 56 2t59 6.5t55 13t45 21.5q18 12 34 37.5t29.5 56.5t24.5 62t19 55l51 -15q-7 -35 -18.5 -78t-24.5 -80q7 -19 19 -45.5t24.5 -51t23 -41.5
t15.5 -17q7 0 10.5 4.5t6.5 11.5q4 8 7.5 18t8.5 23q9 26 19 59.5t20 68.5t19 68.5t16 59.5l53 -12q-5 -37 -16 -85.5t-23 -96.5q10 -27 24.5 -42.5t33.5 -23.5t41.5 -10.5t48.5 -2.5h43v-147h-91zM1195 -458l-130 79l83 111l130 -81zM1264 -283l-121 72l-55 -72l-127 75
l86 115l120 -74l56 74l127 -78zM1156 788l-130 79l83 111l130 -81zM1264 614l-121 72l-55 -72l-127 75l86 115l120 -74l56 74l127 -78z" />
    <glyph glyph-name="uni069D.init" unicode="&#x69d;" horiz-adv-x="1380" 
d="M1168 147q11 7 21 15t10 14q0 13 -18 41.5t-49 57.5t-72.5 51t-89.5 22q-41 0 -91 -19.5t-101 -49.5t-99.5 -65.5t-85.5 -66.5h575zM434 0q-42 -42 -67 -90t-47 -105l-51 18q14 48 33 94t39 83h-104q-29 0 -44.5 13t-20.5 26q-17 -9 -32.5 -16t-35 -12.5t-44.5 -8
t-60 -2.5q-11 0 -23.5 3t-24 8.5t-19 14t-7.5 19.5v57q5 24 25 33.5t49 11.5q51 0 97 8t84.5 22.5t68.5 35t48 46.5q24 35 41.5 74t28.5 67l51 -18q-8 -35 -23.5 -79t-33.5 -76q-14 -26 -27 -44.5t-28 -35.5h149q61 51 137 109.5t157 109t162 84t150 33.5q19 0 43.5 -10
t50.5 -26t51 -37.5t44.5 -45t31.5 -46.5t12 -44q0 -34 -12.5 -71.5t-31 -74t-40 -70t-39.5 -58.5h-738zM904 -283l-121 72l-55 -72l-127 75l86 115l120 -74l56 74l127 -78z" />
    <glyph glyph-name="uni069D.medi" unicode="&#x69d;" horiz-adv-x="1461" 
d="M1168 147q11 7 21 15t10 14q0 13 -18 41.5t-49 57.5t-72.5 51t-89.5 22q-41 0 -91 -19.5t-101 -49.5t-99.5 -65.5t-85.5 -66.5h575zM434 0q-42 -42 -67 -90t-47 -105l-51 18q14 48 33 94t39 83h-104q-29 0 -44.5 13t-20.5 26q-17 -9 -32.5 -16t-35 -12.5t-44.5 -8
t-60 -2.5q-11 0 -23.5 3t-24 8.5t-19 14t-7.5 19.5v57q5 24 25 33.5t49 11.5q51 0 97 8t84.5 22.5t68.5 35t48 46.5q24 35 41.5 74t28.5 67l51 -18q-4 -17 -10 -37.5t-13.5 -41.5t-16 -40.5t-17.5 -35.5q-14 -26 -27 -44.5t-28 -35.5h149q61 51 137 109.5t157 109t162 84
t150 33.5q19 0 43.5 -10t50.5 -26t51 -37.5t44.5 -45t31.5 -46.5t12 -44q0 -29 -9.5 -62t-24.5 -65h200v-147h-1027zM904 -283l-121 72l-55 -72l-127 75l86 115l120 -74l56 74l127 -78z" />
    <glyph glyph-name="uni069D.fina" unicode="&#x69d;" horiz-adv-x="1943" 
d="M1650 147q11 7 21 15t10 14q0 13 -18 41.5t-49 57.5t-72.5 51t-89.5 22q-41 0 -91 -20t-101.5 -50.5t-99.5 -65.5t-85 -65h575zM902 0v-6q0 -28 -5.5 -60t-14.5 -64t-21 -63t-25 -57q-41 -28 -92 -54t-108 -46t-118.5 -32t-123.5 -12q-92 0 -152.5 22.5t-96.5 58.5
t-50.5 80.5t-14.5 88.5q0 52 9 98t24.5 88t36 80.5t43.5 75.5l30 -12q-27 -69 -41 -122.5t-14 -107.5q0 -48 22 -85t58.5 -61.5t83 -37.5t95.5 -13q46 0 104 9.5t114.5 26.5t106 40t79.5 50q0 36 -8 78.5t-23.5 86t-38.5 86.5t-53 81l71 164q48 -73 76 -149q6 -15 13 -30
t16.5 -27t21 -19.5t25.5 -8.5h7q41 34 89 72t99.5 75t106 71.5t108.5 60.5t105.5 41.5t97.5 15.5q19 0 43.5 -10t50.5 -26t51 -37.5t44.5 -45t31.5 -46.5t12 -44q0 -30 -10 -62.5t-25 -64.5h201v-147h-1041zM1374 -283l-121 72l-55 -72l-127 75l86 115l120 -74l56 74
l127 -78z" />
    <glyph glyph-name="uni069E.init" unicode="&#x69e;" horiz-adv-x="1380" 
d="M1168 147q11 7 21 15t10 14q0 13 -18 41.5t-49 57.5t-72.5 51t-89.5 22q-41 0 -91 -19.5t-101 -49.5t-99.5 -65.5t-85.5 -66.5h575zM434 0q-42 -42 -67 -90t-47 -105l-51 18q14 48 33 94t39 83h-104q-29 0 -44.5 13t-20.5 26q-17 -9 -32.5 -16t-35 -12.5t-44.5 -8
t-60 -2.5q-11 0 -23.5 3t-24 8.5t-19 14t-7.5 19.5v57q5 24 25 33.5t49 11.5q51 0 97 8t84.5 22.5t68.5 35t48 46.5q24 35 41.5 74t28.5 67l51 -18q-8 -35 -23.5 -79t-33.5 -76q-14 -26 -27 -44.5t-28 -35.5h149q61 51 137 109.5t157 109t162 84t150 33.5q19 0 43.5 -10
t50.5 -26t51 -37.5t44.5 -45t31.5 -46.5t12 -44q0 -34 -12.5 -71.5t-31 -74t-40 -70t-39.5 -58.5h-738zM796 788l-130 79l83 111l130 -81zM904 614l-121 72l-55 -72l-127 75l86 115l120 -74l56 74l127 -78z" />
    <glyph glyph-name="uni069E.medi" unicode="&#x69e;" horiz-adv-x="1461" 
d="M1168 147q11 7 21 15t10 14q0 13 -18 41.5t-49 57.5t-72.5 51t-89.5 22q-41 0 -91 -19.5t-101 -49.5t-99.5 -65.5t-85.5 -66.5h575zM434 0q-42 -42 -67 -90t-47 -105l-51 18q14 48 33 94t39 83h-104q-29 0 -44.5 13t-20.5 26q-17 -9 -32.5 -16t-35 -12.5t-44.5 -8
t-60 -2.5q-11 0 -23.5 3t-24 8.5t-19 14t-7.5 19.5v57q5 24 25 33.5t49 11.5q51 0 97 8t84.5 22.5t68.5 35t48 46.5q24 35 41.5 74t28.5 67l51 -18q-4 -17 -10 -37.5t-13.5 -41.5t-16 -40.5t-17.5 -35.5q-14 -26 -27 -44.5t-28 -35.5h149q61 51 137 109.5t157 109t162 84
t150 33.5q19 0 43.5 -10t50.5 -26t51 -37.5t44.5 -45t31.5 -46.5t12 -44q0 -29 -9.5 -62t-24.5 -65h200v-147h-1027zM796 788l-130 79l83 111l130 -81zM904 614l-121 72l-55 -72l-127 75l86 115l120 -74l56 74l127 -78z" />
    <glyph glyph-name="uni069E.fina" unicode="&#x69e;" horiz-adv-x="1943" 
d="M1650 147q11 7 21 15t10 14q0 13 -18 41.5t-49 57.5t-72.5 51t-89.5 22q-41 0 -91 -20t-101.5 -50.5t-99.5 -65.5t-85 -65h575zM902 0v-6q0 -28 -5.5 -60t-14.5 -64t-21 -63t-25 -57q-41 -28 -92 -54t-108 -46t-118.5 -32t-123.5 -12q-92 0 -152.5 22.5t-96.5 58.5
t-50.5 80.5t-14.5 88.5q0 52 9 98t24.5 88t36 80.5t43.5 75.5l30 -12q-27 -69 -41 -122.5t-14 -107.5q0 -48 22 -85t58.5 -61.5t83 -37.5t95.5 -13q46 0 104 9.5t114.5 26.5t106 40t79.5 50q0 36 -8 78.5t-23.5 86t-38.5 86.5t-53 81l71 164q48 -73 76 -149q6 -15 13 -30
t16.5 -27t21 -19.5t25.5 -8.5h7q41 34 89 72t99.5 75t106 71.5t108.5 60.5t105.5 41.5t97.5 15.5q19 0 43.5 -10t50.5 -26t51 -37.5t44.5 -45t31.5 -46.5t12 -44q0 -30 -10 -62.5t-25 -64.5h201v-147h-1041zM1266 788l-130 79l83 111l130 -81zM1374 614l-121 72l-55 -72
l-127 75l86 115l120 -74l56 74l127 -78z" />
    <glyph glyph-name="uni069F.medi" unicode="&#x69f;" horiz-adv-x="1089" 
d="M796 147q11 7 21 15t10 14q0 13 -18 41.5t-49 57.5t-72.5 51t-89.5 22q-41 0 -91 -20t-101.5 -50.5t-99.5 -65.5t-85 -65h575zM0 0q-9 0 -21.5 2.5t-24 8t-20 14t-8.5 20.5v57q0 12 8.5 21t20 14t24 7.5t21.5 2.5h84l59 40v83l-63 672q-23 24 -31 38.5t-8 27.5l104 135
h10q1 -20 5 -35.5t18.5 -33.5t43 -42.5t79.5 -60.5l-104 -129l24 -508q-1 -25 -3.5 -49.5t-7.5 -48.5q57 42 119 86t124.5 79.5t122.5 58.5t114 23q19 0 43.5 -10t50.5 -26t51 -37.5t44.5 -45t31.5 -46.5t12 -44q0 -30 -9.5 -62t-25.5 -65h201v-147h-1089zM596 788l-130 79
l83 111l130 -81zM704 614l-121 72l-55 -72l-127 75l86 115l120 -74l56 74l127 -78z" />
    <glyph glyph-name="uni069F.fina" unicode="&#x69f;" horiz-adv-x="1442" 
d="M1149 147q11 7 21 15t10 14q0 13 -18 41.5t-49 57.5t-72.5 51t-89.5 22q-41 0 -91 -20t-101.5 -50.5t-99.5 -65.5t-85 -65h575zM324 0q-35 0 -74.5 12.5t-77.5 30t-72.5 37.5t-59.5 35l9 32h388l59 40v83l-63 672q-23 24 -31 38.5t-8 27.5l104 135h10q1 -20 5 -35.5
t18.5 -33.5t43 -42.5t79.5 -60.5l-104 -129l24 -508q-1 -25 -3.5 -49.5t-7.5 -48.5q57 42 119 86t124.5 79.5t122.5 58.5t114 23q19 0 43.5 -10t50.5 -26t51 -37.5t44.5 -45t31.5 -46.5t12 -44q0 -30 -10 -62.5t-25 -64.5h201v-147h-1118zM946 788l-130 79l83 111l130 -81z
M1054 614l-121 72l-55 -72l-127 75l86 115l120 -74l56 74l127 -78z" />
    <glyph glyph-name="uni06A0.init" unicode="&#x6a0;" horiz-adv-x="878" 
d="M748 78q-30 -6 -79 -14t-107.5 -16.5t-122.5 -17t-123 -16.5q-35 -5 -77 -7.5t-85 -4t-83 -2t-71 -0.5q-11 0 -23.5 3t-24 8.5t-19 14t-7.5 19.5v57q0 12 7.5 20.5t19 14t24 8t23.5 2.5q30 0 64.5 0.5t67 2t60.5 4t46 6.5q-9 13 -19 29.5t-18.5 35.5t-14.5 39.5t-6 41.5
q0 43 24 95t63 97.5t87.5 76t96.5 30.5q41 0 75.5 -16t62.5 -39.5t49.5 -51.5t36.5 -52l-16 -11q-29 25 -62 38t-71 13q-25 0 -58 -4.5t-68 -13.5t-68 -23.5t-58 -35.5q10 -42 35.5 -80.5t57 -68.5t64.5 -49.5t57 -24.5q5 0 28 2.5t56 6.5t71 9t72.5 9t61 7.5t36.5 4.5z
M396 858l-130 79l83 111l130 -81zM504 684l-121 72l-55 -72l-127 75l86 115l120 -74l56 74l127 -78z" />
    <glyph glyph-name="uni06A0.medi" unicode="&#x6a0;" horiz-adv-x="795" 
d="M653 0q-42 0 -75 2.5t-60.5 13t-52 31t-49.5 55.5q-29 -23 -67.5 -41.5t-83.5 -32t-93 -21t-96 -7.5h-76q-11 0 -23.5 3t-24 8.5t-19 14t-7.5 19.5v57q0 12 8 21t19.5 14t24.5 7.5t22 2.5h107q30 0 64 5.5t67 15t62 22.5t50 29q-9 11 -21.5 27t-28.5 31t-34.5 25.5
t-40.5 10.5q-21 0 -47 -10l-22 10l84 193q23 14 52.5 24.5t74.5 10.5q29 0 72.5 -16.5t84.5 -44t70 -62t29 -70.5q0 -21 -6 -45t-18 -46.5t-31 -41.5t-44 -31q10 -14 31 -21.5t46 -11t49.5 -4t41.5 -0.5h103v-147h-142zM376 858l-130 79l83 111l130 -81zM484 684l-121 72
l-55 -72l-127 75l86 115l120 -74l56 74l127 -78z" />
    <glyph glyph-name="uni06A0.fina" unicode="&#x6a0;" horiz-adv-x="792" 
d="M631 0q-37 0 -69.5 2t-62 12t-55.5 30.5t-50 57.5l-18 31q-52 -36 -96.5 -77.5t-77.5 -88.5t-51.5 -100t-18.5 -111q0 -90 49 -140.5t143 -75t230.5 -30.5t310.5 -6l7 -33q-37 -15 -87 -34.5t-101.5 -36.5t-100 -29t-83.5 -12q-89 0 -154.5 15.5t-112.5 41.5t-76.5 61
t-46.5 75t-23.5 81.5t-6.5 81.5q0 96 22 171.5t52 132.5t62 95.5t53 59.5q11 12 24 25t29 27q-9 12 -21 27t-27 28.5t-33 22.5t-38 9q-21 0 -47 -10l-22 10q8 22 18 48t21 51.5t22.5 49.5t22.5 44q23 14 52.5 24.5t74.5 10.5q29 0 72.5 -16.5t84.5 -44t70 -62t29 -70.5
q0 -21 -6 -45t-18 -46.5t-31 -41.5t-44 -31q10 -14 31 -21.5t46 -11t49.5 -4t41.5 -0.5h122v-147h-161zM376 858l-130 79l83 111l130 -81zM484 684l-121 72l-55 -72l-127 75l86 115l120 -74l56 74l127 -78z" />
    <glyph glyph-name="uni06A1.init" unicode="&#x6a1;" horiz-adv-x="708" 
d="M502 399q-10 30 -27 58t-37 50t-41.5 35t-39.5 13q-22 0 -40.5 -12t-33 -29t-23.5 -36.5t-12 -34.5q10 -13 28.5 -23.5t42.5 -18t51 -12t54 -4.5q20 0 42 4.5t36 9.5zM0 0q-11 0 -23.5 3t-24 8.5t-19 14t-7.5 19.5v57q0 12 7.5 20.5t19 14t24 8t23.5 2.5h533
q3 17 4.5 37.5t1.5 34.5q0 31 -6 67t-14 60h-20q-9 -14 -22 -30t-29 -30t-33.5 -23t-36.5 -9q-33 0 -69.5 5.5t-67.5 18t-51 32.5t-20 50q0 67 23 131t59 113t80 79t86 30t79.5 -37t65.5 -93t44 -123.5t16 -127.5q0 -23 -3 -48.5t-10.5 -63t-21 -90.5t-34.5 -130h-554z" />
    <glyph glyph-name="uni06A1.medi" unicode="&#x6a1;" horiz-adv-x="769" 
d="M397 394q-19 0 -41 -5t-44 -15.5t-42.5 -28t-35.5 -42.5q0 -12 2 -27t12 -34t32 -41t64 -49q19 5 43 13.5t47 18t43 21t32 22.5q0 24 -10.5 53t-26.5 54.5t-36 42.5t-39 17zM0 0q-11 0 -23.5 3t-24 8.5t-19 14t-7.5 19.5v57q0 12 7.5 20.5t19 14t24 8t23.5 2.5h174
q-7 12 -10.5 24.5t-3.5 32.5q0 30 11.5 67t32.5 75t50 73.5t63.5 63t73.5 44.5t80 17q25 0 48.5 -19t42 -50t30 -70t11.5 -78q0 -11 -4 -28t-12.5 -37.5t-20 -42t-26.5 -40.5q-9 -11 -16.5 -18t-17.5 -14h263v-147h-769z" />
    <glyph glyph-name="uni06A1.fina" unicode="&#x6a1;" horiz-adv-x="1597" 
d="M1225 394q-19 0 -41 -5t-44 -15.5t-42.5 -28t-35.5 -42.5q1 -13 4 -29.5t14 -36t32.5 -41t59.5 -44.5q19 5 43 13.5t47 18t43 21t32 22.5q0 24 -10.5 53t-26.5 54.5t-36 42.5t-39 17zM296 0q-56 0 -96.5 19t-67 47t-39.5 60.5t-13 59.5q0 66 16 128t58 128l30 -12
q-35 -94 -35 -154q0 -18 8.5 -40t31 -42t61.5 -33.5t100 -13.5h652q-8 13 -11 25t-3 32q0 30 11.5 67t32.5 75t50 73.5t63.5 63t73.5 44.5t80 17q25 0 48.5 -19t42 -50t30 -70t11.5 -78q0 -11 -4 -28t-12.5 -37.5t-20 -42t-26.5 -40.5q-9 -11 -16.5 -18t-17.5 -14h263v-147
h-1301z" />
    <glyph glyph-name="uni06A2.init" unicode="&#x6a2;" horiz-adv-x="708" 
d="M502 399q-10 30 -27 58t-37 50t-41.5 35t-39.5 13q-22 0 -40.5 -12t-33 -29t-23.5 -36.5t-12 -34.5q10 -13 28.5 -23.5t42.5 -18t51 -12t54 -4.5q20 0 42 4.5t36 9.5zM0 0q-11 0 -23.5 3t-24 8.5t-19 14t-7.5 19.5v57q0 12 7.5 20.5t19 14t24 8t23.5 2.5h533
q3 17 4.5 37.5t1.5 34.5q0 31 -6 67t-14 60h-20q-9 -14 -22 -30t-29 -30t-33.5 -23t-36.5 -9q-33 0 -69.5 5.5t-67.5 18t-51 32.5t-20 50q0 67 23 131t59 113t80 79t86 30t79.5 -37t65.5 -93t44 -123.5t16 -127.5q0 -23 -3 -48.5t-10.5 -63t-21 -90.5t-34.5 -130h-554z
M372 -316l-135 82l86 115l135 -84z" />
    <glyph glyph-name="uni06A2.medi" unicode="&#x6a2;" horiz-adv-x="769" 
d="M397 394q-19 0 -41 -5t-44 -15.5t-42.5 -28t-35.5 -42.5q0 -12 2 -27t12 -34t32 -41t64 -49q19 5 43 13.5t47 18t43 21t32 22.5q0 24 -10.5 53t-26.5 54.5t-36 42.5t-39 17zM0 0q-11 0 -23.5 3t-24 8.5t-19 14t-7.5 19.5v57q0 12 7.5 20.5t19 14t24 8t23.5 2.5h174
q-7 12 -10.5 24.5t-3.5 32.5q0 30 11.5 67t32.5 75t50 73.5t63.5 63t73.5 44.5t80 17q25 0 48.5 -19t42 -50t30 -70t11.5 -78q0 -11 -4 -28t-12.5 -37.5t-20 -42t-26.5 -40.5q-9 -11 -16.5 -18t-17.5 -14h263v-147h-769zM380 -316l-135 82l86 115l135 -84z" />
    <glyph glyph-name="uni06A2.fina" unicode="&#x6a2;" horiz-adv-x="1597" 
d="M1225 394q-19 0 -41 -5t-44 -15.5t-42.5 -28t-35.5 -42.5q1 -13 4 -29.5t14 -36t32.5 -41t59.5 -44.5q19 5 43 13.5t47 18t43 21t32 22.5q0 24 -10.5 53t-26.5 54.5t-36 42.5t-39 17zM296 0q-56 0 -96.5 19t-67 47t-39.5 60.5t-13 59.5q0 66 16 128t58 128l30 -12
q-35 -94 -35 -154q0 -18 8.5 -40t31 -42t61.5 -33.5t100 -13.5h652q-8 13 -11 25t-3 32q0 30 11.5 67t32.5 75t50 73.5t63.5 63t73.5 44.5t80 17q25 0 48.5 -19t42 -50t30 -70t11.5 -78q0 -11 -4 -28t-12.5 -37.5t-20 -42t-26.5 -40.5q-9 -11 -16.5 -18t-17.5 -14h263v-147
h-1301zM1185 -316l-135 82l86 115l135 -84z" />
    <glyph glyph-name="uni06A3.init" unicode="&#x6a3;" horiz-adv-x="708" 
d="M502 399q-10 30 -27 58t-37 50t-41.5 35t-39.5 13q-22 0 -40.5 -12t-33 -29t-23.5 -36.5t-12 -34.5q10 -13 28.5 -23.5t42.5 -18t51 -12t54 -4.5q20 0 42 4.5t36 9.5zM0 0q-11 0 -23.5 3t-24 8.5t-19 14t-7.5 19.5v57q0 12 7.5 20.5t19 14t24 8t23.5 2.5h533
q3 17 4.5 37.5t1.5 34.5q0 31 -6 67t-14 60h-20q-9 -14 -22 -30t-29 -30t-33.5 -23t-36.5 -9q-33 0 -69.5 5.5t-67.5 18t-51 32.5t-20 50q0 67 23 131t59 113t80 79t86 30t79.5 -37t65.5 -93t44 -123.5t16 -127.5q0 -23 -3 -48.5t-10.5 -63t-21 -90.5t-34.5 -130h-554z
M418 845l-135 82l86 115l135 -84zM384 -316l-135 82l86 115l135 -84z" />
    <glyph glyph-name="uni06A3.medi" unicode="&#x6a3;" horiz-adv-x="769" 
d="M397 394q-19 0 -41 -5t-44 -15.5t-42.5 -28t-35.5 -42.5q0 -12 2 -27t12 -34t32 -41t64 -49q19 5 43 13.5t47 18t43 21t32 22.5q0 24 -10.5 53t-26.5 54.5t-36 42.5t-39 17zM0 0q-11 0 -23.5 3t-24 8.5t-19 14t-7.5 19.5v57q0 12 7.5 20.5t19 14t24 8t23.5 2.5h174
q-7 12 -10.5 24.5t-3.5 32.5q0 30 11.5 67t32.5 75t50 73.5t63.5 63t73.5 44.5t80 17q25 0 48.5 -19t42 -50t30 -70t11.5 -78q0 -11 -4 -28t-12.5 -37.5t-20 -42t-26.5 -40.5q-9 -11 -16.5 -18t-17.5 -14h263v-147h-769zM452 700l-135 82l86 115l135 -84zM406 -316l-135 82
l86 115l135 -84z" />
    <glyph glyph-name="uni06A3.fina" unicode="&#x6a3;" horiz-adv-x="1597" 
d="M1225 394q-19 0 -41 -5t-44 -15.5t-42.5 -28t-35.5 -42.5q1 -13 4 -29.5t14 -36t32.5 -41t59.5 -44.5q19 5 43 13.5t47 18t43 21t32 22.5q0 24 -10.5 53t-26.5 54.5t-36 42.5t-39 17zM296 0q-56 0 -96.5 19t-67 47t-39.5 60.5t-13 59.5q0 66 16 128t58 128l30 -12
q-35 -94 -35 -154q0 -18 8.5 -40t31 -42t61.5 -33.5t100 -13.5h652q-8 13 -11 25t-3 32q0 30 11.5 67t32.5 75t50 73.5t63.5 63t73.5 44.5t80 17q25 0 48.5 -19t42 -50t30 -70t11.5 -78q0 -11 -4 -28t-12.5 -37.5t-20 -42t-26.5 -40.5q-9 -11 -16.5 -18t-17.5 -14h263v-147
h-1301zM1269 696l-135 82l86 115l135 -84zM794 -316l-135 82l86 115l135 -84z" />
    <glyph glyph-name="uni06A4" unicode="&#x6a4;" horiz-adv-x="1418" arabic-form="isolated" 
d="M1066 555q-20 0 -39 -14t-33.5 -33t-23.5 -38.5t-9 -29.5q18 -22 66 -38.5t108 -16.5q8 0 19 1t22 3t21 4.5t15 5.5q-10 30 -26.5 58t-36.5 50t-41.5 35t-41.5 13zM296 0q-56 0 -96.5 19t-67 47t-39.5 60.5t-13 59.5q0 66 16 128t58 128l30 -12q-35 -94 -35 -154
q0 -18 8.5 -40t31 -42t61 -33.5t99.5 -13.5h894q3 17 4.5 37.5t1.5 34.5q0 31 -6 67t-14 60h-15q-10 -14 -22.5 -30t-28 -29.5t-33 -23t-37.5 -9.5q-33 0 -70 6t-68 18.5t-51.5 33t-20.5 50.5q0 63 22.5 125.5t57.5 113t78.5 81.5t85.5 31q30 0 57 -17t50 -46t41 -67
t31 -80.5t20 -86.5t7 -84q0 -23 -3 -48.5t-10.5 -63t-21 -90.5t-34.5 -130h-968zM1076 988l-130 79l83 111l130 -81zM1184 814l-121 72l-55 -72l-127 75l86 115l120 -74l56 74l127 -78z" />
    <glyph glyph-name="uni06A4.init" unicode="&#x6a4;" horiz-adv-x="708" arabic-form="initial" 
d="M502 399q-10 30 -27 58t-37 50t-41.5 35t-39.5 13q-22 0 -40.5 -12t-33 -29t-23.5 -36.5t-12 -34.5q10 -13 28.5 -23.5t42.5 -18t51 -12t54 -4.5q20 0 42 4.5t36 9.5zM0 0q-11 0 -23.5 3t-24 8.5t-19 14t-7.5 19.5v57q0 12 7.5 20.5t19 14t24 8t23.5 2.5h533
q3 17 4.5 37.5t1.5 34.5q0 31 -6 67t-14 60h-20q-9 -14 -22 -30t-29 -30t-33.5 -23t-36.5 -9q-33 0 -69.5 5.5t-67.5 18t-51 32.5t-20 50q0 67 23 131t59 113t80 79t86 30t79.5 -37t65.5 -93t44 -123.5t16 -127.5q0 -23 -3 -48.5t-10.5 -63t-21 -90.5t-34.5 -130h-554z
M346 988l-130 79l83 111l130 -81zM454 814l-121 72l-55 -72l-127 75l86 115l120 -74l56 74l127 -78z" />
    <glyph glyph-name="uni06A4.medi" unicode="&#x6a4;" horiz-adv-x="769" arabic-form="medial" 
d="M397 394q-19 0 -41 -5t-44 -15.5t-42.5 -28t-35.5 -42.5q0 -12 2 -27t12 -34t32 -41t64 -49q19 5 43 13.5t47 18t43 21t32 22.5q0 24 -10.5 53t-26.5 54.5t-36 42.5t-39 17zM0 0q-11 0 -23.5 3t-24 8.5t-19 14t-7.5 19.5v57q0 12 7.5 20.5t19 14t24 8t23.5 2.5h174
q-7 12 -10.5 24.5t-3.5 32.5q0 30 11.5 67t32.5 75t50 73.5t63.5 63t73.5 44.5t80 17q25 0 48.5 -19t42 -50t30 -70t11.5 -78q0 -11 -4 -28t-12.5 -37.5t-20 -42t-26.5 -40.5q-9 -11 -16.5 -18t-17.5 -14h263v-147h-769zM396 858l-130 79l83 111l130 -81zM504 684l-121 72
l-55 -72l-127 75l86 115l120 -74l56 74l127 -78z" />
    <glyph glyph-name="uni06A4.fina" unicode="&#x6a4;" horiz-adv-x="1597" arabic-form="final" 
d="M1225 394q-19 0 -41 -5t-44 -15.5t-42.5 -28t-35.5 -42.5q1 -13 4 -29.5t14 -36t32.5 -41t59.5 -44.5q19 5 43 13.5t47 18t43 21t32 22.5q0 24 -10.5 53t-26.5 54.5t-36 42.5t-39 17zM296 0q-56 0 -96.5 19t-67 47t-39.5 60.5t-13 59.5q0 66 16 128t58 128l30 -12
q-35 -94 -35 -154q0 -18 8.5 -40t31 -42t61.5 -33.5t100 -13.5h652q-8 13 -11 25t-3 32q0 30 11.5 67t32.5 75t50 73.5t63.5 63t73.5 44.5t80 17q25 0 48.5 -19t42 -50t30 -70t11.5 -78q0 -11 -4 -28t-12.5 -37.5t-20 -42t-26.5 -40.5q-9 -11 -16.5 -18t-17.5 -14h263v-147
h-1301zM1236 858l-130 79l83 111l130 -81zM1344 684l-121 72l-55 -72l-127 75l86 115l120 -74l56 74l127 -78z" />
    <glyph glyph-name="uni06A5.init" unicode="&#x6a5;" horiz-adv-x="708" 
d="M502 399q-10 30 -27 58t-37 50t-41.5 35t-39.5 13q-22 0 -40.5 -12t-33 -29t-23.5 -36.5t-12 -34.5q10 -13 28.5 -23.5t42.5 -18t51 -12t54 -4.5q20 0 42 4.5t36 9.5zM0 0q-11 0 -23.5 3t-24 8.5t-19 14t-7.5 19.5v57q0 12 7.5 20.5t19 14t24 8t23.5 2.5h533
q3 17 4.5 37.5t1.5 34.5q0 31 -6 67t-14 60h-20q-9 -14 -22 -30t-29 -30t-33.5 -23t-36.5 -9q-33 0 -69.5 5.5t-67.5 18t-51 32.5t-20 50q0 67 23 131t59 113t80 79t86 30t79.5 -37t65.5 -93t44 -123.5t16 -127.5q0 -23 -3 -48.5t-10.5 -63t-21 -90.5t-34.5 -130h-554z
M385 -458l-130 79l83 111l130 -81zM454 -283l-121 72l-55 -72l-127 75l86 115l120 -74l56 74l127 -78z" />
    <glyph glyph-name="uni06A5.medi" unicode="&#x6a5;" horiz-adv-x="769" 
d="M397 394q-19 0 -41 -5t-44 -15.5t-42.5 -28t-35.5 -42.5q0 -12 2 -27t12 -34t32 -41t64 -49q19 5 43 13.5t47 18t43 21t32 22.5q0 24 -10.5 53t-26.5 54.5t-36 42.5t-39 17zM0 0q-11 0 -23.5 3t-24 8.5t-19 14t-7.5 19.5v57q0 12 7.5 20.5t19 14t24 8t23.5 2.5h174
q-7 12 -10.5 24.5t-3.5 32.5q0 30 11.5 67t32.5 75t50 73.5t63.5 63t73.5 44.5t80 17q25 0 48.5 -19t42 -50t30 -70t11.5 -78q0 -11 -4 -28t-12.5 -37.5t-20 -42t-26.5 -40.5q-9 -11 -16.5 -18t-17.5 -14h263v-147h-769zM435 -458l-130 79l83 111l130 -81zM504 -283l-121 72
l-55 -72l-127 75l86 115l120 -74l56 74l127 -78z" />
    <glyph glyph-name="uni06A5.fina" unicode="&#x6a5;" horiz-adv-x="1597" 
d="M1225 394q-19 0 -41 -5t-44 -15.5t-42.5 -28t-35.5 -42.5q1 -13 4 -29.5t14 -36t32.5 -41t59.5 -44.5q19 5 43 13.5t47 18t43 21t32 22.5q0 24 -10.5 53t-26.5 54.5t-36 42.5t-39 17zM296 0q-56 0 -96.5 19t-67 47t-39.5 60.5t-13 59.5q0 66 16 128t58 128l30 -12
q-35 -94 -35 -154q0 -18 8.5 -40t31 -42t61.5 -33.5t100 -13.5h652q-8 13 -11 25t-3 32q0 30 11.5 67t32.5 75t50 73.5t63.5 63t73.5 44.5t80 17q25 0 48.5 -19t42 -50t30 -70t11.5 -78q0 -11 -4 -28t-12.5 -37.5t-20 -42t-26.5 -40.5q-9 -11 -16.5 -18t-17.5 -14h263v-147
h-1301zM1275 -458l-130 79l83 111l130 -81zM1344 -283l-121 72l-55 -72l-127 75l86 115l120 -74l56 74l127 -78z" />
    <glyph glyph-name="uni06A6" unicode="&#x6a6;" horiz-adv-x="1418" arabic-form="isolated" 
d="M1066 555q-20 0 -39 -14t-33.5 -33t-23.5 -38.5t-9 -29.5q18 -22 66 -38.5t108 -16.5q8 0 19 1t22 3t21 4.5t15 5.5q-10 30 -26.5 58t-36.5 50t-41.5 35t-41.5 13zM296 0q-56 0 -96.5 19t-67 47t-39.5 60.5t-13 59.5q0 66 16 128t58 128l30 -12q-35 -94 -35 -154
q0 -18 8.5 -40t31 -42t61 -33.5t99.5 -13.5h894q3 17 4.5 37.5t1.5 34.5q0 31 -6 67t-14 60h-15q-10 -14 -22.5 -30t-28 -29.5t-33 -23t-37.5 -9.5q-33 0 -70 6t-68 18.5t-51.5 33t-20.5 50.5q0 63 22.5 125.5t57.5 113t78.5 81.5t85.5 31q30 0 57 -17t50 -46t41 -67
t31 -80.5t20 -86.5t7 -84q0 -23 -3 -48.5t-10.5 -63t-21 -90.5t-34.5 -130h-968zM992 983l96 -59l60 80l-96 56zM1184 814l-121 72l-55 -72l-127 75l85 113l-94 55l86 115l121 -74l55 74l127 -78l-85 -111l94 -57z" />
    <glyph glyph-name="uni06A6.init" unicode="&#x6a6;" horiz-adv-x="708" arabic-form="initial" 
d="M502 399q-10 30 -27 58t-37 50t-41.5 35t-39.5 13q-22 0 -40.5 -12t-33 -29t-23.5 -36.5t-12 -34.5q10 -13 28.5 -23.5t42.5 -18t51 -12t54 -4.5q20 0 42 4.5t36 9.5zM0 0q-11 0 -23.5 3t-24 8.5t-19 14t-7.5 19.5v57q0 12 7.5 20.5t19 14t24 8t23.5 2.5h533
q3 17 4.5 37.5t1.5 34.5q0 31 -6 67t-14 60h-20q-9 -14 -22 -30t-29 -30t-33.5 -23t-36.5 -9q-33 0 -69.5 5.5t-67.5 18t-51 32.5t-20 50q0 67 23 131t59 113t80 79t86 30t79.5 -37t65.5 -93t44 -123.5t16 -127.5q0 -23 -3 -48.5t-10.5 -63t-21 -90.5t-34.5 -130h-554z
M262 983l96 -59l60 80l-96 56zM454 814l-121 72l-55 -72l-127 75l85 113l-94 55l86 115l121 -74l55 74l127 -78l-85 -111l94 -57z" />
    <glyph glyph-name="uni06A6.medi" unicode="&#x6a6;" horiz-adv-x="769" arabic-form="medial" 
d="M397 394q-19 0 -41 -5t-44 -15.5t-42.5 -28t-35.5 -42.5q0 -12 2 -27t12 -34t32 -41t64 -49q19 5 43 13.5t47 18t43 21t32 22.5q0 24 -10.5 53t-26.5 54.5t-36 42.5t-39 17zM0 0q-11 0 -23.5 3t-24 8.5t-19 14t-7.5 19.5v57q0 12 7.5 20.5t19 14t24 8t23.5 2.5h174
q-7 12 -10.5 24.5t-3.5 32.5q0 30 11.5 67t32.5 75t50 73.5t63.5 63t73.5 44.5t80 17q25 0 48.5 -19t42 -50t30 -70t11.5 -78q0 -11 -4 -28t-12.5 -37.5t-20 -42t-26.5 -40.5q-9 -11 -16.5 -18t-17.5 -14h263v-147h-769zM312 853l96 -59l60 80l-96 56zM504 684l-121 72
l-55 -72l-127 75l85 113l-94 55l86 115l121 -74l55 74l127 -78l-85 -111l94 -57z" />
    <glyph glyph-name="uni06A6.fina" unicode="&#x6a6;" horiz-adv-x="1597" arabic-form="final" 
d="M1225 394q-19 0 -41 -5t-44 -15.5t-42.5 -28t-35.5 -42.5q1 -13 4 -29.5t14 -36t32.5 -41t59.5 -44.5q19 5 43 13.5t47 18t43 21t32 22.5q0 24 -10.5 53t-26.5 54.5t-36 42.5t-39 17zM296 0q-56 0 -96.5 19t-67 47t-39.5 60.5t-13 59.5q0 66 16 128t58 128l30 -12
q-35 -94 -35 -154q0 -18 8.5 -40t31 -42t61.5 -33.5t100 -13.5h652q-8 13 -11 25t-3 32q0 30 11.5 67t32.5 75t50 73.5t63.5 63t73.5 44.5t80 17q25 0 48.5 -19t42 -50t30 -70t11.5 -78q0 -11 -4 -28t-12.5 -37.5t-20 -42t-26.5 -40.5q-9 -11 -16.5 -18t-17.5 -14h263v-147
h-1301zM1152 853l96 -59l60 80l-96 56zM1344 684l-121 72l-55 -72l-127 75l85 113l-94 55l86 115l121 -74l55 74l127 -78l-85 -111l94 -57z" />
    <glyph glyph-name="uni066F.init" unicode="&#x66f;" horiz-adv-x="708" 
d="M502 399q-10 30 -27 58t-37 50t-41.5 35t-39.5 13q-22 0 -40.5 -12t-33 -29t-23.5 -36.5t-12 -34.5q10 -13 28.5 -23.5t42.5 -18t51 -12t54 -4.5q20 0 42 4.5t36 9.5zM0 0q-11 0 -23.5 3t-24 8.5t-19 14t-7.5 19.5v57q0 12 7.5 20.5t19 14t24 8t23.5 2.5h533
q3 17 4.5 37.5t1.5 34.5q0 31 -6 67t-14 60h-20q-9 -14 -22 -30t-29 -30t-33.5 -23t-36.5 -9q-33 0 -69.5 5.5t-67.5 18t-51 32.5t-20 50q0 67 23 131t59 113t80 79t86 30t79.5 -37t65.5 -93t44 -123.5t16 -127.5q0 -23 -3 -48.5t-10.5 -63t-21 -90.5t-34.5 -130h-554z" />
    <glyph glyph-name="uni066F.medi" unicode="&#x66f;" horiz-adv-x="769" 
d="M397 394q-19 0 -41 -5t-44 -15.5t-42.5 -28t-35.5 -42.5q0 -12 2 -27t12 -34t32 -41t64 -49q19 5 43 13.5t47 18t43 21t32 22.5q0 24 -10.5 53t-26.5 54.5t-36 42.5t-39 17zM0 0q-11 0 -23.5 3t-24 8.5t-19 14t-7.5 19.5v57q0 12 7.5 20.5t19 14t24 8t23.5 2.5h174
q-7 12 -10.5 24.5t-3.5 32.5q0 30 11.5 67t32.5 75t50 73.5t63.5 63t73.5 44.5t80 17q25 0 48.5 -19t42 -50t30 -70t11.5 -78q0 -11 -4 -28t-12.5 -37.5t-20 -42t-26.5 -40.5q-9 -11 -16.5 -18t-17.5 -14h263v-147h-769z" />
    <glyph glyph-name="uni066F.fina" unicode="&#x66f;" horiz-adv-x="1065" 
d="M620 225q7 -24 40.5 -43t93.5 -27q9 -1 25.5 -1.5t35 -1t35.5 -0.5h28q-10 30 -28 59.5t-40.5 53.5t-46.5 39t-46 15q-19 0 -35.5 -10.5t-29 -25.5t-21 -31t-11.5 -27zM976 0q-8 -63 -28 -122.5t-46 -119.5q-38 -30 -85 -62.5t-107 -59.5t-135.5 -44.5t-170.5 -17.5
q-94 0 -156.5 23.5t-99.5 62t-52.5 88t-15.5 100.5q0 61 12.5 116t32 103.5t43.5 91t47 79.5l30 -12q-15 -35 -28.5 -68t-23 -65.5t-15.5 -67t-6 -72.5q0 -56 22.5 -98.5t60 -71t84.5 -42.5t97 -14q73 0 142 16t128 40t106.5 53t77.5 55q1 9 3 24t4 31t3.5 31t1.5 25h-34.5
t-43.5 1l-46 2t-41 3q-97 11 -142 43.5t-45 98.5q0 72 19.5 132.5t50 105t67.5 69t72 24.5q39 0 76.5 -31t68 -79t51.5 -107.5t26 -116.5h84v-147h-89z" />
    <glyph glyph-name="uni06A7.fina" unicode="&#x6a7;" horiz-adv-x="1065" 
d="M620 225q7 -24 40.5 -43t93.5 -27q9 -1 25.5 -1.5t35 -1t35.5 -0.5h28q-10 30 -28 59.5t-40.5 53.5t-46.5 39t-46 15q-19 0 -35.5 -10.5t-29 -25.5t-21 -31t-11.5 -27zM976 0q-8 -63 -28 -122.5t-46 -119.5q-38 -30 -85 -62.5t-107 -59.5t-135.5 -44.5t-170.5 -17.5
q-94 0 -156.5 23.5t-99.5 62t-52.5 88t-15.5 100.5q0 61 12.5 116t32 103.5t43.5 91t47 79.5l30 -12q-15 -35 -28.5 -68t-23 -65.5t-15.5 -67t-6 -72.5q0 -56 22.5 -98.5t60 -71t84.5 -42.5t97 -14q73 0 142 16t128 40t106.5 53t77.5 55q1 9 3 24t4 31t3.5 31t1.5 25h-34.5
t-43.5 1l-46 2t-41 3q-97 11 -142 43.5t-45 98.5q0 72 19.5 132.5t50 105t67.5 69t72 24.5q39 0 76.5 -31t68 -79t51.5 -107.5t26 -116.5h84v-147h-89zM751 703l-135 82l86 115l135 -84z" />
    <glyph glyph-name="uni06A8.fina" unicode="&#x6a8;" horiz-adv-x="1065" 
d="M620 225q7 -24 40.5 -43t93.5 -27q9 -1 25.5 -1.5t35 -1t35.5 -0.5h28q-10 30 -28 59.5t-40.5 53.5t-46.5 39t-46 15q-19 0 -35.5 -10.5t-29 -25.5t-21 -31t-11.5 -27zM976 0q-8 -63 -28 -122.5t-46 -119.5q-38 -30 -85 -62.5t-107 -59.5t-135.5 -44.5t-170.5 -17.5
q-94 0 -156.5 23.5t-99.5 62t-52.5 88t-15.5 100.5q0 61 12.5 116t32 103.5t43.5 91t47 79.5l30 -12q-15 -35 -28.5 -68t-23 -65.5t-15.5 -67t-6 -72.5q0 -56 22.5 -98.5t60 -71t84.5 -42.5t97 -14q73 0 142 16t128 40t106.5 53t77.5 55q1 9 3 24t4 31t3.5 31t1.5 25h-34.5
t-43.5 1l-46 2t-41 3q-97 11 -142 43.5t-45 98.5q0 72 19.5 132.5t50 105t67.5 69t72 24.5q39 0 76.5 -31t68 -79t51.5 -107.5t26 -116.5h84v-147h-89zM716 788l-130 79l83 111l130 -81zM824 614l-121 72l-55 -72l-127 75l86 115l120 -74l56 74l127 -78z" />
    <glyph glyph-name="uni06A9" unicode="&#x6a9;" horiz-adv-x="1345" arabic-form="isolated" 
d="M1308 1008q-68 -29 -148 -63t-162.5 -69t-162.5 -70t-148 -65q48 -33 111 -80t125.5 -99.5t117 -106t86.5 -99.5q26 -38 40 -71t14 -76q0 -24 -6 -51t-14.5 -54t-18 -53.5t-17.5 -50.5h-831q-55 0 -95 19t-66.5 47t-39.5 60.5t-13 59.5q0 66 16 128t58 128l30 -12
q-35 -94 -35 -154q0 -18 8.5 -40t31 -42t60 -33.5t96.5 -13.5h760q-5 40 -39 84.5t-83.5 90.5t-108.5 90.5t-113 83.5l-6 -50l-115 58q-70 34 -70 121q0 42 19 95t59 116q9 14 54.5 38.5t116 56.5t159 69.5t183.5 76.5q54 23 108 44.5t106 43.5z" />
    <glyph glyph-name="uni06A9.init" unicode="&#x6a9;" horiz-adv-x="786" arabic-form="initial" 
d="M754 1008q-68 -29 -148 -62.5t-162.5 -69t-162.5 -70t-148 -65.5q48 -33 111 -80t125.5 -99.5t117 -106t86.5 -99.5q26 -38 40 -71t14 -76q0 -24 -6 -51t-14.5 -54t-18 -53.5t-17.5 -50.5h-571q-11 0 -23.5 3t-24 8.5t-19 14t-7.5 19.5v57q0 12 7.5 20.5t19 14t24 8
t23.5 2.5h551q-6 39 -40 84t-83.5 90.5t-108 90.5t-112.5 84l-6 -50l-115 58q-70 34 -70 121q0 42 19 95t59 116q8 13 44 33.5t93.5 47.5t132.5 58.5t161 67.5l296 122z" />
    <glyph glyph-name="uni06A9.medi" unicode="&#x6a9;" horiz-adv-x="843" arabic-form="medial" 
d="M711 0q-21 0 -37.5 9t-31 25.5t-28 39t-29.5 50.5q-11 19 -22.5 40t-24.5 41l-11 -4q-2 -25 -6 -47.5t-12 -46.5t-20.5 -50t-30.5 -57h-458q-11 0 -23.5 3t-24 8.5t-19 14t-7.5 19.5v57q0 12 7.5 20.5t19 14t24 8t23.5 2.5h464q0 39 -17 84t-48 90.5t-75.5 90.5t-98.5 84
l-6 -50l-111 56q-18 9 -31.5 18.5t-23 23t-14.5 33t-5 48.5q0 85 78 211q8 13 58 39t126.5 60.5t171.5 74.5t194 81q45 19 89.5 37.5t87.5 36.5l-67 -157q-67 -29 -148 -64t-165 -71t-165.5 -71.5t-149.5 -65.5q48 -31 89.5 -61.5t80 -63.5t77 -69.5t80.5 -79.5
q51 -52 87.5 -94t66.5 -80q28 -35 49 -61.5t39 -44t35 -26.5t37 -9h58v-147h-132z" />
    <glyph glyph-name="uni06A9.fina" unicode="&#x6a9;" horiz-adv-x="1428" arabic-form="final" 
d="M1297 0q-28 0 -48.5 16t-39 43.5t-38.5 65t-47 80.5l-11 -4q-2 -25 -6 -47.5t-12 -46.5t-20.5 -50t-30.5 -57h-767q-49 0 -86 19t-61.5 47t-37 60.5t-12.5 59.5q0 66 16 128t58 128l30 -12q-35 -94 -35 -154q0 -18 6 -40t25 -42t53.5 -33.5t90.5 -13.5h726q0 39 -17 84
t-48 90.5t-75.5 90.5t-98.5 84l-6 -50l-115 58q-34 17 -52 46.5t-18 74.5q0 85 78 211q6 10 40.5 29.5t89 45t125 56t149 63.5t161.5 67.5t162 67.5q-5 -14 -12.5 -33.5t-16.5 -40.5t-19 -43t-19 -40q-67 -29 -147.5 -63.5t-164 -70.5t-165 -71.5t-149.5 -65.5
q45 -31 90.5 -65t88.5 -69t81.5 -69.5t69.5 -66.5q75 -78 122.5 -138t79.5 -100.5t55.5 -61t51.5 -20.5h57v-147h-131z" />
    <glyph glyph-name="uni06AA.init" unicode="&#x6aa;" horiz-adv-x="1647" 
d="M1510 43q-164 -16 -326 -25t-315.5 -13t-295 -4.5t-265.5 -0.5h-308q-32 0 -53 15t-21 32v55q0 15 20 30t54 15q90 0 208.5 0.5t252 1.5t275 3.5t277 7t258.5 11.5t219 17q0 27 -20 47t-53.5 32.5t-77 18.5t-90.5 6q-55 0 -107.5 -3t-106.5 -5q-27 -1 -62.5 -2t-72.5 -2
t-73 -1.5t-64 -0.5q-82 0 -157.5 1.5t-147.5 8.5t-142 20.5t-142 36.5q10 33 18.5 61.5t18 56.5t21 58.5t27.5 68.5q4 9 51.5 39.5t126.5 77t183 106.5t221 128l-61 -164l-508 -301q97 -35 212 -44t241 -9q57 0 112 1.5t113 3.5q88 3 175.5 6t184.5 3q52 0 99 -12.5
t82.5 -34t56 -51.5t20.5 -65q0 -18 -6 -48t-15 -63.5t-19 -65.5t-18 -54z" />
    <glyph glyph-name="uni06AA.medi" unicode="&#x6aa;" horiz-adv-x="1695" 
d="M1695 0q-50 0 -94 1t-78.5 5.5t-58 15t-33.5 30.5l-3 9q-165 -18 -315 -30t-288 -18.5t-265 -9.5t-247 -3h-313q-8 0 -20.5 2.5t-24.5 8t-20.5 14.5t-8.5 23v57q0 10 7.5 17.5t19 13t24 8.5t23.5 3q114 0 238.5 1.5t253 5t257.5 8.5t251.5 12t236.5 16t211 20
q0 27 -20 47t-53 32.5t-76.5 18.5t-90.5 6q-55 0 -108.5 -3t-108.5 -6q-27 -2 -48 -2.5t-40.5 -1.5t-40.5 -1h-49q-82 0 -165 2t-164 8.5t-158.5 20t-148.5 36.5q10 33 18.5 61.5t18 56.5t21 58.5t27.5 68.5q4 9 51.5 39.5t126.5 77t183 106.5t221 128l-61 -164l-508 -301
q97 -35 212 -44t241 -9q28 0 52 0.5l48 1t49 1t54 1.5q43 1 83.5 3t81.5 3.5t83.5 2.5t89.5 1q53 0 100 -12.5t82 -34t55.5 -51.5t20.5 -65q0 -20 -10.5 -55t-22.5 -70q0 -18 53.5 -21t147.5 -3v-147z" />
    <glyph glyph-name="uni06AA.fina" unicode="&#x6aa;" horiz-adv-x="1986" 
d="M1986 0q-50 0 -94 1t-78.5 5.5t-58 15t-33.5 30.5l-3 9q-165 -18 -315 -30t-288 -19t-265 -10t-247 -3q-41 0 -83.5 2t-81.5 5t-72 7t-54 9q-29 10 -64 27.5t-72 38.5t-72.5 43t-64.5 41l13 31q139 -26 296.5 -38.5t320.5 -12.5q135 0 264 2.5t259 9.5t265 18t281 28
q0 27 -20 47t-53 32.5t-76.5 18.5t-90.5 6q-55 0 -108.5 -3t-108.5 -6q-27 -2 -48 -2.5t-40.5 -1.5t-40.5 -1h-49q-82 0 -165 2t-164 8.5t-158.5 20t-148.5 36.5q10 33 18.5 61.5t18 56.5t21 58.5t27.5 68.5q4 9 51.5 39.5t126.5 77t183 106.5t221 128l-61 -164l-508 -301
q97 -35 212 -44t241 -9q28 0 52 0.5l48 1t49 1t54 1.5q43 1 83.5 3t81.5 3.5t83.5 2.5t89.5 1q53 0 100 -12.5t82 -34t55.5 -51.5t20.5 -65q0 -20 -10.5 -55t-22.5 -70q5 -9 24 -13.5t47 -7t62 -3t68 -0.5v-147z" />
    <glyph glyph-name="uni06AB.init" unicode="&#x6ab;" horiz-adv-x="786" 
d="M606 841q0 -27 -5.5 -54.5t-15.5 -44.5q-21 -21 -49.5 -34t-65.5 -13q-13 0 -26 6t-24 17.5t-18 29t-7 40.5q0 14 1.5 29.5t5.5 31.5q1 2 1.5 5t1.5 5q-32 -13 -62.5 -26t-61.5 -27q-40 -17 -77 -33t-71 -32q48 -33 111 -80t125.5 -99.5t117 -106t86.5 -99.5
q26 -38 40 -71t14 -76q0 -24 -6 -51t-14.5 -54t-18 -53.5t-17.5 -50.5h-571q-11 0 -23.5 3t-24 8.5t-19 14t-7.5 19.5v57q0 12 7.5 20.5t19 14t24 8t23.5 2.5h551q-6 39 -40 84t-83.5 90.5t-108 90.5t-112.5 84l-6 -50q-26 13 -56 28.5t-59 29.5q-70 34 -70 121q0 42 19 95
t59 116q8 13 45 34t95 48t133 58.5t158 66.5l296 122l-67 -157q-34 -14 -71 -30t-77 -33q-8 -4 -17 -7t-18 -7q15 -18 25 -41.5t10 -48.5zM481 772q58 0 83 28q0 51 -22 71.5t-49 20.5q-6 0 -15.5 -3.5t-18.5 -12t-16 -22t-7 -32.5q0 -18 10 -34t35 -16z" />
    <glyph glyph-name="uni06AB.medi" unicode="&#x6ab;" horiz-adv-x="843" 
d="M628 842q0 -27 -5.5 -54.5t-15.5 -44.5q-21 -21 -49.5 -34t-65.5 -13q-13 0 -26 6t-24 17.5t-18 29t-7 40.5q0 14 1.5 29.5t5.5 31.5q1 2 1.5 5t1.5 5q-34 -14 -67.5 -29t-66.5 -29q-42 -18 -78.5 -34.5t-70.5 -31.5q48 -31 89.5 -61.5t80 -63.5t77 -69.5t80.5 -79.5
q51 -52 88 -95.5t66 -78.5t50 -61.5t38.5 -44t34.5 -26.5t37 -9h58v-147h-132q-21 0 -37.5 9t-31 25.5t-28 39t-29.5 50.5q-11 19 -22.5 40t-24.5 41l-11 -4q-2 -25 -6 -47.5t-12 -46.5t-20.5 -50t-30.5 -57h-458q-11 0 -23.5 3t-24 8.5t-19 14t-7.5 19.5v57q0 12 7.5 20.5
t19 14t24 8t23.5 2.5h464q0 39 -17 84t-48 90.5t-75.5 90.5t-98.5 84l-6 -50l-111 56q-18 9 -31.5 18.5t-23 23t-14.5 33t-5 48.5q0 85 78 211q8 13 58 38.5t126.5 59.5t172 74.5t193.5 82.5q45 20 89.5 38t87.5 36l-67 -157q-34 -14 -70 -30.5t-78 -33.5q-8 -3 -15.5 -6
t-15.5 -7q15 -17 25 -40.5t10 -48.5zM503 773q58 0 83 28q0 51 -22 71.5t-49 20.5q-6 0 -15.5 -3.5t-18.5 -12t-16 -22t-7 -32.5q0 -18 10 -34t35 -16z" />
    <glyph glyph-name="uni06AB.fina" unicode="&#x6ab;" horiz-adv-x="1428" 
d="M1210 839q0 -27 -5.5 -54.5t-15.5 -44.5q-21 -21 -49.5 -34t-65.5 -13q-13 0 -26 6t-24 17.5t-18 29t-7 40.5q0 14 1.5 29.5t5.5 31.5q1 3 3 11l-64 -28l-64 -28q-42 -17 -78.5 -33.5t-70.5 -31.5q45 -31 90.5 -65t88.5 -69t81.5 -69.5t69.5 -66.5q75 -78 122.5 -138
t79.5 -100.5t55.5 -61t51.5 -20.5h57v-147h-131q-28 0 -48.5 16t-39 43.5t-38.5 65t-47 80.5l-11 -4q-2 -25 -6 -47.5t-12 -46.5t-20.5 -50t-30.5 -57h-767q-49 0 -86 19t-61.5 47t-37 60.5t-12.5 59.5q0 66 16 128t58 128l30 -12q-35 -94 -35 -154q0 -18 6 -40t25 -42
t53.5 -33.5t90.5 -13.5h726q0 39 -17 84t-48 90.5t-75.5 90.5t-98.5 84l-6 -50l-115 58q-34 17 -52 46.5t-18 74.5q0 85 78 211q6 10 40.5 29.5t89 45t125 56t149 63.5t161.5 67.5t162 67.5q-5 -14 -12.5 -33.5t-16.5 -40.5t-19 -43t-19 -40q-34 -14 -70 -30.5t-78 -33.5
q-8 -4 -17 -7.5t-18 -7.5q15 -18 25 -41.5t10 -48.5zM1085 770q58 0 83 28q0 51 -22 71.5t-49 20.5q-6 0 -15.5 -3.5t-18.5 -12t-16 -22t-7 -32.5q0 -18 10 -34t35 -16z" />
    <glyph glyph-name="uni06AC.init" unicode="&#x6ac;" horiz-adv-x="786" 
d="M754 1008q-68 -29 -148 -62.5t-162.5 -69t-162.5 -70t-148 -65.5q48 -33 111 -80t125.5 -99.5t117 -106t86.5 -99.5q26 -38 40 -71t14 -76q0 -24 -6 -51t-14.5 -54t-18 -53.5t-17.5 -50.5h-571q-11 0 -23.5 3t-24 8.5t-19 14t-7.5 19.5v57q0 12 7.5 20.5t19 14t24 8
t23.5 2.5h551q-6 39 -40 84t-83.5 90.5t-108 90.5t-112.5 84l-6 -50l-115 58q-70 34 -70 121q0 42 19 95t59 116q8 13 44 33.5t93.5 47.5t132.5 58.5t161 67.5l296 122zM401 1102l-135 82l86 115l135 -84z" />
    <glyph glyph-name="uni06AC.medi" unicode="&#x6ac;" horiz-adv-x="843" 
d="M711 0q-21 0 -37.5 9t-31 25.5t-28 39t-29.5 50.5q-11 19 -22.5 40t-24.5 41l-11 -4q-2 -25 -6 -47.5t-12 -46.5t-20.5 -50t-30.5 -57h-458q-11 0 -23.5 3t-24 8.5t-19 14t-7.5 19.5v57q0 12 7.5 20.5t19 14t24 8t23.5 2.5h464q0 39 -17 84t-48 90.5t-75.5 90.5t-98.5 84
l-6 -50l-111 56q-18 9 -31.5 18.5t-23 23t-14.5 33t-5 48.5q0 85 78 211q8 13 58 39t126.5 60.5t171.5 74.5t194 81q45 19 89.5 37.5t87.5 36.5l-67 -157q-67 -29 -148 -64t-165 -71t-165.5 -71.5t-149.5 -65.5q48 -31 89.5 -61.5t80 -63.5t77 -69.5t80.5 -79.5
q51 -52 87.5 -94t66.5 -80q28 -35 49 -61.5t39 -44t35 -26.5t37 -9h58v-147h-132zM401 1102l-135 82l86 115l135 -84z" />
    <glyph glyph-name="uni06AC.fina" unicode="&#x6ac;" horiz-adv-x="1295" 
d="M1264 0q-14 1 -29 3t-31 7q-32 10 -59 33.5t-38 71.5h-12q-14 -32 -26.5 -58t-23.5 -46h-768q-49 0 -86 19t-61.5 47t-37 60.5t-12.5 59.5q0 66 16 128t58 128l30 -12q-15 -39 -25 -76t-10 -75q0 -71 48 -101.5t127 -30.5h668q29 0 47.5 12.5t28.5 32t13.5 44t3.5 49.5
q0 4 -2.5 32t-7.5 79q-4 42 -9.5 100t-11.5 127t-13 148t-14 164l96 164l57 -862q3 -38 13 -58t24.5 -30t30 -11.5t29.5 -1.5h18v-147h-31zM702 782q-10 -8 -22.5 -20.5t-24.5 -25.5t-20 -23.5t-8 -13.5q0 -8 14 -9.5t34 -3.5q15 -2 30.5 -3t28.5 -3.5t21.5 -7.5t8.5 -13
q0 -17 -4.5 -42t-15.5 -50.5t-28.5 -48.5t-43.5 -36q-5 -3 -31 -9.5t-59 -13.5t-66.5 -13t-53.5 -7l-3 8q10 4 29.5 13t44 20t50 23.5t46 24.5t34 21.5t13.5 15.5q0 9 -19 9t-42 2t-42 11.5t-19 37.5q0 24 10 49.5t25 49t33 44.5t35 37.5t30.5 27.5t18.5 14zM661 922
l-135 82l86 115l135 -84z" />
    <glyph glyph-name="uni06AD" unicode="&#x6ad;" horiz-adv-x="1274" arabic-form="isolated" 
d="M702 782q-10 -8 -23 -19.5t-25 -24.5t-19.5 -24.5t-7.5 -14.5q0 -8 14 -9.5t34 -3.5q15 -2 30.5 -3t28.5 -3.5t21.5 -7.5t8.5 -13q0 -17 -4.5 -42t-15.5 -50.5t-28.5 -48.5t-43.5 -36q-2 -1 -27.5 -7.5t-59.5 -14t-68.5 -14t-54.5 -7.5l-3 8q10 4 29.5 13t44 20t50 23.5
t46 24.5t34 21.5t13.5 15.5q0 9 -19 9t-42 2t-42 11.5t-19 37.5q0 24 10 49.5t25 49t33 44.5t35 37.5t30.5 27.5t18.5 14zM296 0q-49 0 -89 19t-68 47t-43.5 60.5t-15.5 59.5q0 66 16 128t58 128l30 -12q-35 -94 -35 -154q0 -18 10 -40t33.5 -42t62 -33.5t94.5 -13.5h754
l-80 795q-17 17 -28 35t-11 31l104 135h11q1 -19 4 -34t16.5 -33t42.5 -42.5t82 -62.5l-104 -129l53 -635l-68 -207h-829zM521 1077l68 90l104 -66l-66 -89zM784 962l-69 -91l-99 58l-44 -58l-103 61l69 93l98 -60l46 60z" />
    <glyph glyph-name="uni06AD.init" unicode="&#x6ad;" horiz-adv-x="786" arabic-form="initial" 
d="M754 1008q-68 -29 -148 -62.5t-162.5 -69t-162.5 -70t-148 -65.5q48 -33 111 -80t125.5 -99.5t117 -106t86.5 -99.5q26 -38 40 -71t14 -76q0 -24 -6 -51t-14.5 -54t-18 -53.5t-17.5 -50.5h-571q-11 0 -23.5 3t-24 8.5t-19 14t-7.5 19.5v57q0 12 7.5 20.5t19 14t24 8
t23.5 2.5h551q-6 39 -40 84t-83.5 90.5t-108 90.5t-112.5 84l-6 -50l-115 58q-70 34 -70 121q0 42 19 95t59 116q8 13 44 33.5t93.5 47.5t132.5 58.5t161 67.5l296 122zM289 1013l-110 67l70 93l110 -68zM449 1060l-110 67l70 93l110 -68zM321 1168l-110 67l70 93l110 -68z
" />
    <glyph glyph-name="uni06AD.medi" unicode="&#x6ad;" horiz-adv-x="843" arabic-form="medial" 
d="M711 0q-21 0 -37.5 9t-31 25.5t-28 39t-29.5 50.5q-11 19 -22.5 40t-24.5 41l-11 -4q-2 -25 -6 -47.5t-12 -46.5t-20.5 -50t-30.5 -57h-458q-11 0 -23.5 3t-24 8.5t-19 14t-7.5 19.5v57q0 12 7.5 20.5t19 14t24 8t23.5 2.5h464q0 39 -17 84t-48 90.5t-75.5 90.5t-98.5 84
l-6 -50l-111 56q-18 9 -31.5 18.5t-23 23t-14.5 33t-5 48.5q0 85 78 211q8 13 58 39t126.5 60.5t171.5 74.5t194 81q45 19 89.5 37.5t87.5 36.5l-67 -157q-67 -29 -148 -64t-165 -71t-165.5 -71.5t-149.5 -65.5q48 -31 89.5 -61.5t80 -63.5t77 -69.5t80.5 -79.5
q51 -52 87.5 -94t66.5 -80q28 -35 49 -61.5t39 -44t35 -26.5t37 -9h58v-147h-132zM303 1013l-110 67l70 93l110 -68zM463 1060l-110 67l70 93l110 -68zM337 1168l-110 67l70 93l110 -68z" />
    </font>
</defs>
</svg>
